<svg xmlns="http://www.w3.org/2000/svg" xmlns:xlink="http://www.w3.org/1999/xlink" viewBox="0 0 103.89 33.59"><defs><style>.cls-1{fill:url(#linear-gradient);}.cls-2{fill:url(#linear-gradient-2);}.cls-3{fill:#1c1c1c;}</style><linearGradient id="linear-gradient" x1="10.5" y1="9.22" x2="10.65" y2="9.22" gradientUnits="userSpaceOnUse"><stop offset="0" stop-color="#f7f7f7"/><stop offset="1" stop-color="#787878"/></linearGradient><linearGradient id="linear-gradient-2" x1="0" y1="16.8" x2="36.63" y2="16.8" xlink:href="#linear-gradient"/></defs><title>gusk</title><g id="Слой_2" data-name="Слой 2"><g id="_1280" data-name="1280"><g id="Index"><g id="body"><path class="cls-1" d="M10.65,9.26l-.15-.07Z"/><path class="cls-2" d="M36.31,19.49c0-.19.32-.23.32-.54s-1.36-.83-1.36-1.43.52-.45.52-.68-1.53-2.74-2.93-2.74c-.68,0-1.26,0-1.26.23s.27.06.27.28-.15.61-.4.61-1.34-1.59-2.21-1.59-1.09-.08-1.09-.49,0-.87-.41-.87-.76.31-1.07.31A7.47,7.47,0,0,1,24.35,11c-.38-.49-.77-.82-.77-1s.64-.62.64-1-.61-.38-.86-.38a11.76,11.76,0,0,0,0-2.6c-.19-.21-.71-.09-.71-.15S23,5.6,23,5.47s-.49-.43-.49-.66.56-1.58.56-1.88S22.86,1,22.12,1H20.78s-.06-1-1.5-1-2.36.54-2.53,1.23c-.75,0-1.51.19-1.57.5s-1-.6-1.2-.38c-.69.62,1.34,1.15,1.34,1.53s1,.14,1,.45V4.82A20.6,20.6,0,0,0,13.48,4c-.5,0-1.62.93-2.09.86s-1.15.13-1.26.45-.8.11-1,0S8.11,5.69,8,5.9s-1.06.56-1.2.43-.32.53-.43.64S6,6.63,5.63,6.63s-.4-.42-.78-.42-.55.31-.82.31c0,0-.12-1.09-.69-1.09,0-.37-.26-.15-.26-.26s0,.18-.27.18S2.48,5,2.3,5s1,0,1,.5.83,1.28,2,1.28V8s-2.6.36-2.6.85-1.13.41-1.13.75.15.43.15.74-1.44.41-1.59,1a3.88,3.88,0,0,0,.41,2.2,6.41,6.41,0,0,1,.51,2c0,.25.58.22.58.59S.41,16.65.41,17.55s.41,1.15.41,1.62S.43,20.39.43,20.7s.62.16.87.55.66-.24.94-.18.18.62.45.43,0-.86.26-.93.87-.37,1,.06.18.88.43.88S5,21,5.28,21s1.31.81,1.6.81.44-.44.85-.44.91-1.08,1.37-1,.52-.55.89-.49a.52.52,0,0,1,.45.59c0,.25-.19.72.25.72s1.33.4,1.43.79c0-.4,0-.8.22-.8s.11-.55-.42-.9-7-5.38-7-5.38,6.22,3.58,7.18,3.58.78-.6.78-.78a6.31,6.31,0,0,0-1.31-3c-1.12-1.5-2.16-2.74-2.16-2.74s2.94,1.66,4,3.36,1.47,2.46,1.47,2.46A17.18,17.18,0,0,0,14,13.39c-.56-1-2.08-3.45-3.35-4.13l-.15-.07.15.07c2.6,1.27,3.17,1.44,3.73,2a13,13,0,0,0-1.52-4.71,10.11,10.11,0,0,1,3.27,7.58c.6-1.37,2.51-5.15,6.82-6-.71.76-4,3.08-4,4.5,0,.4.47.22.63.22s4.87-1.53,5.08-1.5,1.26.25.41.59C20.44,13.82,18.59,19.8,18.59,25v1.62H19.7V25.55h.73a1.2,1.2,0,0,0,.09,1.16c.39.46.1,1.06.33,1.16a3.47,3.47,0,0,1,1.1.76c.26.34.47-.14.75-.14s.41.55.57.53.55-.5.65-.5a1.42,1.42,0,0,1,.64,1,1.55,1.55,0,0,1-.85,1.07c-.19,0-.32-.29-.32.08s.1.74.59.74c.21,0,.33.72.33,1s-.65.66-.65.84.35.38,1.1.38c1,0,1.29-.36,1.29-.42s-.38-.11-.35-.22.28-.47.56-.5,1,.43,1.11.43-.25-.3-.09-.43.62-.22.62-.38-.53-.5-.9-.41-.45-.55-.54-.67a2.69,2.69,0,0,1-.34-1.06c0-.32,1-.51,1-.64s.13-.37.21-.37.17.5.42.5,0-.36.37-.36,1.55-.09,1.66-.35-.2-.94,0-.94.6.44.69.28-.28-.46-.22-.58.66-.66.64-.81-.3-.09-.3-.37.59-.45.59-.91.36-.37.59-.75-.06-.84.16-.84.62.44.75.11a6.89,6.89,0,0,1,.43-1.43c.23-.31.69-.1.75-.23s-.13-.46.15-.43,1.07.12,1.32-.21,1.27-1.38,1.27-1.65S36.31,19.68,36.31,19.49Zm-25.1-3.55a1,1,0,1,1-1,1A1,1,0,0,1,11.21,15.94ZM13.35,9.1a.59.59,0,0,1,.51.65.59.59,0,0,1-.51.65.59.59,0,0,1-.52-.65A.59.59,0,0,1,13.35,9.1Zm7.53,3.06a.66.66,0,1,1,.67-.66A.66.66,0,0,1,20.88,12.16Z"/><path class="cls-3" d="M46,10v.48H44.77v2.76h-.59V10Z"/><path class="cls-3" d="M47.9,10.92v2.34h-.59V11.38h-.65v.5c0,.61-.06,1-.34,1.23a.79.79,0,0,1-.59.2l-.06-.46a.49.49,0,0,0,.25-.12c.17-.15.19-.41.19-.87v-.94Z"/><path class="cls-3" d="M50.34,12.7a3,3,0,0,0,0,.56h-.53l0-.26h0a.83.83,0,0,1-.69.32.7.7,0,0,1-.74-.7c0-.59.53-.89,1.39-.89v0c0-.15-.06-.41-.47-.41a1.27,1.27,0,0,0-.64.18l-.11-.39a1.76,1.76,0,0,1,.85-.2.87.87,0,0,1,1,1Zm-.57-.58c-.42,0-.82.08-.82.44a.3.3,0,0,0,.33.33.48.48,0,0,0,.47-.32.3.3,0,0,0,0-.13Z"/><path class="cls-3" d="M51,11a5.89,5.89,0,0,1,.85-.06c.4,0,1.11,0,1.11.59a.54.54,0,0,1-.49.52h0c.36.05.59.25.59.57,0,.65-.85.71-1.31.71-.3,0-.61,0-.75,0Zm.57,2h.29c.27,0,.6-.07.6-.35s-.26-.35-.64-.35h-.25Zm0-1h.24c.3,0,.55-.08.55-.31s-.16-.29-.51-.29l-.28,0Z"/><path class="cls-3" d="M54.1,10.92v.89H55v-.89h.59v2.34H55v-1H54.1v1h-.59V10.92Z"/><path class="cls-3" d="M58.46,12.07a1.17,1.17,0,0,1-1.2,1.25,1.14,1.14,0,0,1-1.18-1.21,1.16,1.16,0,0,1,1.22-1.24A1.12,1.12,0,0,1,58.46,12.07Zm-1.77,0c0,.46.23.8.59.8s.57-.33.57-.81-.16-.79-.57-.79S56.69,11.7,56.69,12.09Z"/><path class="cls-3" d="M59.37,12.26c0,.42.34.6.72.6a2,2,0,0,0,.65-.1l.09.4a2.11,2.11,0,0,1-.82.15,1.11,1.11,0,0,1-1.21-1.18,1.16,1.16,0,0,1,1.14-1.26A1,1,0,0,1,61,12a1.47,1.47,0,0,1,0,.25Zm1-.42a.51.51,0,0,0-.49-.57.57.57,0,0,0-.54.57Z"/><path class="cls-3" d="M62.81,10.92l.41,1.26a4.59,4.59,0,0,1,.14.45h0c0-.13.08-.31.13-.46l.37-1.25h.63l-.59,1.6a3.47,3.47,0,0,1-.82,1.5,1.16,1.16,0,0,1-.62.3l-.13-.49a1.08,1.08,0,0,0,.34-.17.93.93,0,0,0,.33-.37.22.22,0,0,0,0-.1.23.23,0,0,0,0-.12l-.86-2.15Z"/><path class="cls-3" d="M66.9,10.92v2.34h-.59V11.38h-.88v1.88h-.6V10.92Z"/><path class="cls-3" d="M67.54,11.7c0-.31,0-.56,0-.78H68l0,.36h0a.88.88,0,0,1,.8-.41,1.06,1.06,0,0,1,1,1.19,1.12,1.12,0,0,1-1.07,1.26.76.76,0,0,1-.66-.32h0v1.22h-.59Zm.59.58a1,1,0,0,0,0,.17.55.55,0,0,0,.53.41c.37,0,.59-.31.59-.78s-.2-.75-.58-.75a.56.56,0,0,0-.53.44.77.77,0,0,0,0,.15Z"/><path class="cls-3" d="M72.17,12.7a3,3,0,0,0,0,.56h-.53L71.63,13h0a.85.85,0,0,1-.69.32.69.69,0,0,1-.74-.7c0-.59.52-.89,1.39-.89v0c0-.15-.06-.41-.48-.41a1.26,1.26,0,0,0-.63.18l-.11-.39a1.76,1.76,0,0,1,.85-.2.87.87,0,0,1,1,1Zm-.57-.58c-.42,0-.82.08-.82.44a.3.3,0,0,0,.33.33.48.48,0,0,0,.47-.32.3.3,0,0,0,0-.13Z"/><path class="cls-3" d="M72.8,11a5.89,5.89,0,0,1,.85-.06c.4,0,1.11,0,1.11.59a.55.55,0,0,1-.49.52h0c.36.05.59.25.59.57,0,.65-.85.71-1.31.71-.3,0-.61,0-.75,0Zm.57,2h.29c.27,0,.6-.07.6-.35s-.26-.35-.64-.35h-.25Zm0-1h.24c.3,0,.55-.08.55-.31s-.16-.29-.51-.29l-.28,0Z"/><path class="cls-3" d="M77.29,10.92v2.34H76.7V11.38h-.64v.5c0,.61-.07,1-.35,1.23a.75.75,0,0,1-.58.2l-.07-.46a.42.42,0,0,0,.25-.12c.18-.15.2-.41.2-.87v-.94Z"/><path class="cls-3" d="M78.34,12.26c0,.42.34.6.72.6a1.93,1.93,0,0,0,.65-.1l.09.4a2,2,0,0,1-.82.15,1.11,1.11,0,0,1-1.21-1.18,1.16,1.16,0,0,1,1.15-1.26,1,1,0,0,1,1,1.14,1.47,1.47,0,0,1,0,.25Zm1-.42a.5.5,0,0,0-.49-.57.57.57,0,0,0-.54.57Z"/><path class="cls-3" d="M81,10.92v.89h.91v-.89h.59v2.34H81.9v-1H81v1H80.4V10.92Z"/><path class="cls-3" d="M83.68,10.92v.84c0,.37,0,.62,0,1h0c.12-.27.19-.45.31-.69l.58-1.1h.72v2.34h-.57v-.83c0-.38,0-.55,0-1h0a6.23,6.23,0,0,1-.31.68l-.59,1.15h-.71V10.92Z"/><path class="cls-3" d="M86.33,12.26c0,.42.34.6.72.6a2,2,0,0,0,.65-.1l.09.4a2.11,2.11,0,0,1-.82.15,1.11,1.11,0,0,1-1.21-1.18,1.16,1.16,0,0,1,1.14-1.26,1,1,0,0,1,1,1.14,1.47,1.47,0,0,1,0,.25Zm1-.42a.51.51,0,0,0-.49-.57.57.57,0,0,0-.54.57Z"/><path class="cls-3" d="M45.88,19a1.7,1.7,0,0,1-.67.12,1.12,1.12,0,0,1-1.2-1.2,1.2,1.2,0,0,1,1.3-1.24,1.49,1.49,0,0,1,.57.1l-.1.45a1,1,0,0,0-.45-.09.76.76,0,0,0,0,1.52,1.17,1.17,0,0,0,.47-.1Z"/><path class="cls-3" d="M48.51,17.85a1.16,1.16,0,0,1-1.2,1.25,1.14,1.14,0,0,1-1.18-1.21,1.16,1.16,0,0,1,1.22-1.24A1.12,1.12,0,0,1,48.51,17.85Zm-1.76,0c0,.46.22.8.58.8s.57-.33.57-.81-.16-.79-.57-.79S46.75,17.48,46.75,17.87Z"/><path class="cls-3" d="M49.59,16.7v1.89h.88V16.7h.6v1.92h.25l0,1.17h-.45l0-.76H49V16.7Z"/><path class="cls-3" d="M52.31,16.7v.84c0,.37,0,.62,0,.95h0c.13-.27.19-.45.32-.69l.57-1.1h.72V19h-.56v-.83c0-.38,0-.55,0-1h0c-.11.28-.19.45-.3.68L52.46,19h-.71V16.7Z"/><path class="cls-3" d="M56.36,18.48a3,3,0,0,0,0,.56h-.54l0-.26h0a.85.85,0,0,1-.7.32.69.69,0,0,1-.73-.7c0-.59.52-.89,1.39-.89v0c0-.15-.06-.41-.48-.41a1.26,1.26,0,0,0-.63.18l-.11-.39a1.72,1.72,0,0,1,.84-.2.88.88,0,0,1,1,1Zm-.58-.58c-.42,0-.82.08-.82.44a.31.31,0,0,0,.34.33.49.49,0,0,0,.47-.32.57.57,0,0,0,0-.13Z"/><path class="cls-3" d="M58.93,16.7V19h-.59V17.16H57.7v.5c0,.61-.07,1-.35,1.23a.75.75,0,0,1-.58.2l-.07-.46a.45.45,0,0,0,.25-.12c.18-.14.2-.41.2-.87V16.7Z"/><path class="cls-3" d="M60.15,16.7v.74a2.13,2.13,0,0,1,.37,0c.54,0,1.11.18,1.11.81a.69.69,0,0,1-.29.58,1.8,1.8,0,0,1-1.07.27c-.25,0-.5,0-.72,0V16.7Zm0,1.94.28,0c.28,0,.62-.09.62-.42s-.37-.42-.63-.42a1.12,1.12,0,0,0-.27,0Z"/><path class="cls-3" d="M62.69,16.7v.89h.91V16.7h.59V19H63.6v-1h-.91v1H62.1V16.7Z"/><path class="cls-3" d="M65.41,16.7v.74a3.07,3.07,0,0,1,.38,0c.51,0,1,.21,1,.81a.69.69,0,0,1-.29.58,1.66,1.66,0,0,1-1,.27c-.25,0-.5,0-.71,0V16.7Zm0,1.94.25,0c.28,0,.58-.11.58-.42s-.29-.42-.55-.42a1,1,0,0,0-.28,0Zm2.28-1.94V19H67.1V16.7Z"/><path class="cls-3" d="M68.72,16.7l.28.44.21.36h0l.21-.37.26-.43h.64l-.78,1.13.8,1.21h-.68l-.28-.46c-.08-.13-.14-.25-.21-.38h0l-.21.38-.27.46H68l.82-1.19-.79-1.15Z"/><path class="cls-3" d="M72.29,16.7v1h.09l.72-1h.71l-.94,1c.33.05.52.3.68.67a5.53,5.53,0,0,0,.27.64H73.2a3.87,3.87,0,0,1-.22-.5.61.61,0,0,0-.61-.47h-.08v1H71.7V16.7Z"/><path class="cls-3" d="M76.34,17.85a1.17,1.17,0,0,1-1.2,1.25A1.14,1.14,0,0,1,74,17.89a1.16,1.16,0,0,1,1.22-1.24A1.12,1.12,0,0,1,76.34,17.85Zm-1.77,0c0,.46.23.8.59.8s.57-.33.57-.81-.16-.79-.57-.79S74.57,17.48,74.57,17.87Z"/><path class="cls-3" d="M76.87,16.7h.75l.33,1c0,.15.13.41.18.61h0c0-.17.15-.48.23-.71l.31-.92h.74L79.58,19H79l0-1c0-.22,0-.55,0-.83h0c-.08.27-.11.4-.24.77L78.32,19h-.43l-.35-1-.21-.78h0c0,.29,0,.61,0,.84l0,1H76.7Z"/><path class="cls-3" d="M80.16,16.7h.75l.33,1c.05.15.13.41.18.61h0c0-.17.15-.48.23-.71L82,16.7h.74L82.87,19h-.56l0-1c0-.22,0-.55,0-.83h0c-.08.27-.11.4-.24.77L81.61,19h-.43l-.35-1-.21-.78h0c0,.29,0,.61,0,.84l0,1H80Z"/><path class="cls-3" d="M83.73,16.7,84.15,18a4.45,4.45,0,0,1,.13.45h0c0-.13.08-.31.12-.46l.37-1.25h.63l-.59,1.6A3.74,3.74,0,0,1,84,19.81a1.27,1.27,0,0,1-.62.29l-.14-.49a1.08,1.08,0,0,0,.34-.17.93.93,0,0,0,.33-.37.16.16,0,0,0,0-.1.41.41,0,0,0,0-.12l-.87-2.15Z"/><path class="cls-3" d="M86.35,16.7v.89h.91V16.7h.59V19h-.59v-1h-.91v1h-.59V16.7Z"/><path class="cls-3" d="M89,16.7v.84c0,.37,0,.62,0,.95h0c.13-.27.2-.45.32-.69l.57-1.1h.72V19h-.56v-.83c0-.38,0-.55,0-1h0c-.12.28-.19.45-.31.68L89.18,19h-.71V16.7Z"/><path class="cls-3" d="M91.86,16.7v1h.08l.72-1h.71l-.94,1c.33.05.52.3.68.67.08.18.16.44.27.64h-.62a3.87,3.87,0,0,1-.22-.5.61.61,0,0,0-.61-.47h-.07v1h-.6V16.7Z"/><path class="cls-3" d="M95.57,18.48a3,3,0,0,0,0,.56h-.53l0-.26h0a.85.85,0,0,1-.69.32.69.69,0,0,1-.74-.7c0-.59.52-.89,1.39-.89v0c0-.15-.06-.41-.48-.41a1.26,1.26,0,0,0-.63.18l-.11-.39a1.76,1.76,0,0,1,.85-.2.87.87,0,0,1,1,1ZM95,17.9c-.42,0-.82.08-.82.44a.3.3,0,0,0,.33.33.48.48,0,0,0,.47-.32.3.3,0,0,0,0-.13Z"/><path class="cls-3" d="M96.79,16.7v1.89h.88V16.7h.6v1.92h.25l0,1.17H98L98,19H96.2V16.7Z"/><path class="cls-3" d="M99.51,16.7v.84c0,.37,0,.62,0,.95h0c.13-.27.19-.45.32-.69l.57-1.1h.72V19h-.56v-.83c0-.38,0-.55,0-1h0c-.11.28-.19.45-.3.68L99.66,19H99V16.7Z"/><path class="cls-3" d="M102.3,16.7v.84c0,.37,0,.62,0,.95h0c.13-.27.2-.45.32-.69l.58-1.1h.71V19h-.56v-.83c0-.38,0-.55,0-1h0c-.12.28-.19.45-.31.68s-.39.77-.6,1.15h-.7V16.7Zm.24-1c0,.21.1.35.26.35s.26-.14.28-.35h.39a.62.62,0,0,1-.68.64.59.59,0,0,1-.64-.64Z"/><path class="cls-3" d="M46.92,23.5c0-.42,0-.92,0-1.36h0c-.11.39-.24.83-.39,1.24L46,24.79h-.45l-.43-1.39c-.13-.42-.24-.86-.33-1.26h0c0,.42,0,.94-.06,1.38l-.07,1.3H44.1l.21-3.24h.78l.43,1.3c.11.38.21.77.3,1.13h0c.09-.35.2-.75.32-1.13l.45-1.3h.77l.19,3.24H47Z"/><path class="cls-3" d="M50.37,23.63a1.17,1.17,0,0,1-1.21,1.25A1.13,1.13,0,0,1,48,23.67a1.16,1.16,0,0,1,1.21-1.24A1.13,1.13,0,0,1,50.37,23.63Zm-1.77,0c0,.46.23.8.58.8s.58-.33.58-.81-.17-.79-.57-.79S48.6,23.26,48.6,23.65Z"/><path class="cls-3" d="M52.58,24.75a1.7,1.7,0,0,1-.67.12,1.12,1.12,0,0,1-1.2-1.2A1.2,1.2,0,0,1,52,22.43a1.49,1.49,0,0,1,.57.1l-.1.45a1,1,0,0,0-.45-.09.76.76,0,0,0,0,1.52,1.17,1.17,0,0,0,.47-.1Z"/><path class="cls-3" d="M53.61,22.48v1h.09l.72-1h.7l-.93,1c.32,0,.52.3.68.67a5.38,5.38,0,0,0,.26.64h-.61a2.84,2.84,0,0,1-.22-.5.62.62,0,0,0-.61-.47h-.08v1H53V22.48Z"/><path class="cls-3" d="M57.66,23.63a1.17,1.17,0,0,1-1.21,1.25,1.13,1.13,0,0,1-1.17-1.21,1.15,1.15,0,0,1,1.21-1.24A1.13,1.13,0,0,1,57.66,23.63Zm-1.77,0c0,.46.23.8.58.8s.57-.33.57-.81-.16-.79-.56-.79S55.89,23.26,55.89,23.65Z"/><path class="cls-3" d="M58.14,22.51a5.93,5.93,0,0,1,.86-.06c.39,0,1.1.05,1.1.59a.54.54,0,0,1-.48.52h0c.35.06.58.25.58.58,0,.64-.84.7-1.31.7-.3,0-.61,0-.75,0Zm.58,2H59c.27,0,.6-.07.6-.35s-.26-.35-.63-.35h-.25Zm0-1H59c.3,0,.55-.08.55-.31s-.17-.29-.51-.29l-.29,0Z"/><path class="cls-3" d="M62.41,24.75a1.64,1.64,0,0,1-.66.12,1.13,1.13,0,0,1-1.21-1.2,1.2,1.2,0,0,1,1.3-1.24,1.59,1.59,0,0,1,.58.1l-.11.45a1,1,0,0,0-.45-.09.76.76,0,0,0,0,1.52,1.17,1.17,0,0,0,.47-.1Z"/><path class="cls-3" d="M63.44,22.48v1h.09l.72-1H65l-.93,1c.32,0,.52.3.68.67a5.38,5.38,0,0,0,.26.64h-.61a2.84,2.84,0,0,1-.22-.5.62.62,0,0,0-.61-.47h-.08v1h-.59V22.48Z"/><path class="cls-3" d="M67.49,23.63a1.17,1.17,0,0,1-1.21,1.25,1.13,1.13,0,0,1-1.17-1.21,1.15,1.15,0,0,1,1.21-1.24A1.13,1.13,0,0,1,67.49,23.63Zm-1.77,0c0,.46.23.8.58.8s.58-.33.58-.81-.17-.79-.57-.79S65.72,23.26,65.72,23.65Z"/><path class="cls-3" d="M68.53,22.48v.84c0,.37,0,.62,0,.95h0c.12-.27.19-.45.32-.69l.57-1.1h.72v2.34h-.57V24c0-.38,0-.55,0-1h0a6.23,6.23,0,0,1-.31.68c-.17.35-.39.77-.59,1.15H68V22.48Zm.25-1c0,.21.09.35.26.35s.26-.14.28-.35h.39a.63.63,0,0,1-.68.64.6.6,0,0,1-.65-.64Z"/><path class="cls-3" d="M74,23.63a1.17,1.17,0,0,1-1.21,1.25,1.13,1.13,0,0,1-1.17-1.21,1.15,1.15,0,0,1,1.21-1.24A1.13,1.13,0,0,1,74,23.63Zm-1.77,0c0,.46.22.8.58.8s.57-.33.57-.81-.16-.79-.56-.79S72.22,23.26,72.22,23.65Z"/><path class="cls-3" d="M76.39,21.83a3.58,3.58,0,0,1-.53.1,1.09,1.09,0,0,0-.78.36,1.29,1.29,0,0,0-.26.67h0a.88.88,0,0,1,.79-.48,1,1,0,0,1,1,1.16,1.12,1.12,0,0,1-1.15,1.24c-.83,0-1.17-.72-1.17-1.56A2,2,0,0,1,74.78,22a1.44,1.44,0,0,1,1-.48,5.48,5.48,0,0,0,.65-.11Zm-.9,1.07a.46.46,0,0,0-.42.25.85.85,0,0,0-.12.48c0,.34.16.82.56.82s.54-.4.54-.78S75.92,22.9,75.49,22.9Z"/><path class="cls-3" d="M79.06,22.48v2.34h-.59V22.94h-.64v.5c0,.61-.07,1-.35,1.24a.78.78,0,0,1-.59.19l-.06-.46a.49.49,0,0,0,.25-.12c.18-.14.2-.41.2-.87v-.94Z"/><path class="cls-3" d="M81.51,24.26a3,3,0,0,0,0,.56H81l0-.26h0a.85.85,0,0,1-.7.32.7.7,0,0,1-.74-.7c0-.59.53-.89,1.4-.89v0c0-.15-.07-.4-.48-.4a1.26,1.26,0,0,0-.63.17l-.12-.39a1.8,1.8,0,0,1,.85-.2.88.88,0,0,1,1,1Zm-.58-.58c-.42,0-.82.08-.82.44a.31.31,0,0,0,.34.33.49.49,0,0,0,.47-.32.57.57,0,0,0,0-.13Z"/><path class="cls-3" d="M83.86,24.75a1.7,1.7,0,0,1-.67.12,1.12,1.12,0,0,1-1.2-1.2,1.2,1.2,0,0,1,1.3-1.24,1.49,1.49,0,0,1,.57.1l-.1.45a1,1,0,0,0-.45-.09.76.76,0,0,0,0,1.52,1.17,1.17,0,0,0,.47-.1Z"/><path class="cls-3" d="M86.11,22.48v.46h-.7v1.88h-.6V22.94h-.7v-.46Z"/><path class="cls-3" d="M87,22.48v.84c0,.37,0,.62,0,.95h0c.12-.27.19-.45.31-.69l.58-1.1h.71v2.34H88V24c0-.38,0-.55,0-1h0c-.12.28-.19.45-.31.68s-.39.77-.6,1.15h-.7V22.48Z"/></g></g></g></g></svg>