<svg xmlns="http://www.w3.org/2000/svg" viewBox="0 0 17.74 17.74"><g data-name="Layer 2"><path d="M16.25 1.49a5.11 5.11 0 0 0-7.25 0L6.19 4.33a5.08 5.08 0 0 0-.81 1 5.08 5.08 0 0 0-1 .81L1.49 9a5.12 5.12 0 0 0 0 7.22 5.13 5.13 0 0 0 7.23 0l2.84-2.84a5.4 5.4 0 0 0 .8-1.05 4.83 4.83 0 0 0 1.05-.81l2.84-2.83a5.12 5.12 0 0 0 0-7.2zM5.58 13.12a.69.69 0 0 1-1 0 .71.71 0 0 1-.19-.48.67.67 0 0 1 .19-.47l1.12-1.12a4.32 4.32 0 0 0 .45.5 4.32 4.32 0 0 0 .5.45zm6.59-8.5a.7.7 0 0 1 .95 0 .71.71 0 0 1 .19.48.67.67 0 0 1-.19.47L12 6.69a5.34 5.34 0 0 0-.95-1zm-1.08 3l-.82.82a.66.66 0 0 1-.94 0 2 2 0 0 0-2.76 0l-2.85 2.82A2 2 0 0 0 6.48 14l1.36-1.36a5.08 5.08 0 0 0 2.28.38l-2.31 2.33A3.83 3.83 0 1 1 2.4 9.93l2.83-2.84a3.84 3.84 0 0 1 5.42 0 3.67 3.67 0 0 1 .44.52zm-3.62 1.7a.67.67 0 0 1 1 0 2 2 0 0 0 2.74 0L14 6.48a2 2 0 1 0-2.76-2.76L9.9 5.08a5.22 5.22 0 0 0-2.28-.38l2.31-2.31a3.83 3.83 0 1 1 5.42 5.42l-2.84 2.84a3.83 3.83 0 0 1-5.42 0 4.23 4.23 0 0 1-.44-.51z" fill="#359cff" data-name="1280"/></g></svg>