<svg xmlns="http://www.w3.org/2000/svg" viewBox="0 0 58.75 43.26"><defs><style>.cls-1{fill:#5d5d5d;}.cls-2{fill:#686868;}.cls-3{fill:#fff;}</style></defs><title>rcsmp</title><g id="Слой_2" data-name="Слой 2"><g id="_1280" data-name="1280"><g id="Index"><g id="body"><g id="Logo2"><path class="cls-1" d="M20.68,23.5a14.17,14.17,0,0,0,4.23-4,10,10,0,0,0,1.46-4.25h2.86l3.17,0,2.25,4.78-3.5,1.64-4.39,1.2-1.36.25A23.62,23.62,0,0,1,20.68,23.5Z"/><path class="cls-2" d="M22.66,23.49a51.36,51.36,0,0,0,6.67-.91s5.35-1.58,6.2-2.37a79.43,79.43,0,0,0-5-9.29S24.36,3,21.38,0l5.89,7.4H25.15a18,18,0,0,1,1.15,8.38h6.07a23.79,23.79,0,0,1,1.46,3.34s.24,1-.19,1.21C33.64,20.33,29.82,22.59,22.66,23.49Z"/><path class="cls-3" d="M21.38,0s3.69,7.21,3.79,7.47H27.4L26.38,6,23.77,2.75Z"/><path class="cls-2" d="M18.64,23.52a12.38,12.38,0,0,0,2.69-2,10.17,10.17,0,0,0,2-2.67,8.36,8.36,0,0,0,.62-1.55,9,9,0,0,0,.3-1.63,10.22,10.22,0,0,0,0-1.66A15.55,15.55,0,0,0,24,12.32a20.27,20.27,0,0,0-.83-3.24A23.22,23.22,0,0,0,21.89,6,24.8,24.8,0,0,0,20.16,3.1,29.49,29.49,0,0,0,18.1.44,25.53,25.53,0,0,1,20.27,3a23,23,0,0,1,1.8,2.87,20.92,20.92,0,0,1,2.22,6.39A15.92,15.92,0,0,1,24.5,14a9.65,9.65,0,0,1,0,1.7,8.64,8.64,0,0,1-1,3.26,10.42,10.42,0,0,1-2.09,2.67,13.6,13.6,0,0,1-1.32,1.06A10.17,10.17,0,0,1,18.64,23.52Z"/><path class="cls-2" d="M17.79,23.52a12.72,12.72,0,0,0,2.72-1.92A10.48,10.48,0,0,0,22.59,19a9.27,9.27,0,0,0,.65-1.52,8,8,0,0,0,.34-1.61,10,10,0,0,0,0-1.64,15.54,15.54,0,0,0-.22-1.65,19.63,19.63,0,0,0-.86-3.2,23.67,23.67,0,0,0-1.36-3,25.15,25.15,0,0,0-1.79-2.81A29.05,29.05,0,0,0,17.23,1a25.19,25.19,0,0,1,2.23,2.5,24.6,24.6,0,0,1,1.86,2.79,20.18,20.18,0,0,1,2.31,6.29,16.06,16.06,0,0,1,.21,1.68c0,.28,0,.56,0,.84s0,.28,0,.43,0,.28,0,.42a8,8,0,0,1-1.06,3.2A10.3,10.3,0,0,1,20.6,21.7a12,12,0,0,1-1.34,1A10.59,10.59,0,0,1,17.79,23.52Z"/><path class="cls-2" d="M17.26,23.52A12.4,12.4,0,0,0,19.9,21.7a10,10,0,0,0,2-2.45,8.56,8.56,0,0,0,.65-1.45,6.83,6.83,0,0,0,.33-1.54,2.8,2.8,0,0,0,0-.4c0-.13,0-.26,0-.39s0-.54,0-.8a13.94,13.94,0,0,0-.21-1.58A18.62,18.62,0,0,0,21.87,10a22.5,22.5,0,0,0-1.34-2.91A24.77,24.77,0,0,0,18.78,4.4a28.65,28.65,0,0,0-2.07-2.46,24.6,24.6,0,0,1,2.18,2.38A22.85,22.85,0,0,1,20.71,7,19,19,0,0,1,23,13a14.47,14.47,0,0,1,.21,1.61q0,.4,0,.81c0,.14,0,.28,0,.42s0,.27,0,.4a7.64,7.64,0,0,1-1.06,3.08A10.14,10.14,0,0,1,20,21.8a12.51,12.51,0,0,1-1.31.95A10.2,10.2,0,0,1,17.26,23.52Z"/><path class="cls-2" d="M16.78,23.42a12.43,12.43,0,0,0,2.58-1.71,9.69,9.69,0,0,0,2-2.32A7.36,7.36,0,0,0,22,18a6.32,6.32,0,0,0,.34-1.49,6.47,6.47,0,0,0,.05-.76c0-.26,0-.51,0-.77a13.39,13.39,0,0,0-.21-1.53,17.06,17.06,0,0,0-.85-3A20.5,20.5,0,0,0,20,7.68a22.29,22.29,0,0,0-1.74-2.57,25.25,25.25,0,0,0-2-2.35A23,23,0,0,1,18.38,5a21.88,21.88,0,0,1,1.81,2.56,17.92,17.92,0,0,1,2.27,5.82,13.58,13.58,0,0,1,.2,1.56c0,.26,0,.52,0,.79a7,7,0,0,1-.05.79,7.16,7.16,0,0,1-1.08,3,9.88,9.88,0,0,1-2.11,2.31,12.31,12.31,0,0,1-1.28.9A10.7,10.7,0,0,1,16.78,23.42Z"/><path class="cls-2" d="M16.18,23.49a12.62,12.62,0,0,0,2.54-1.66,9.69,9.69,0,0,0,2-2.25,7.62,7.62,0,0,0,.65-1.35,6.4,6.4,0,0,0,.35-1.45c0-.24,0-.49,0-.74s0-.5,0-.75a14.81,14.81,0,0,0-.2-1.49,17.18,17.18,0,0,0-.84-2.9,20.68,20.68,0,0,0-1.32-2.72,21.23,21.23,0,0,0-1.71-2.5,24.27,24.27,0,0,0-2-2.28,21.83,21.83,0,0,1,2.11,2.19,19.75,19.75,0,0,1,1.79,2.48,17.06,17.06,0,0,1,2.25,5.68c.09.5.16,1,.2,1.52A6.6,6.6,0,0,1,22,16a6.55,6.55,0,0,1-1.13,3.65,9.25,9.25,0,0,1-2.08,2.24,10.85,10.85,0,0,1-1.26.87A10.21,10.21,0,0,1,16.18,23.49Z"/><path class="cls-2" d="M15.55,23.52a13.39,13.39,0,0,0,2.55-1.58,9.67,9.67,0,0,0,2-2.15,8.19,8.19,0,0,0,.69-1.31,6.46,6.46,0,0,0,.37-1.42,7.85,7.85,0,0,0,0-1.48A12.39,12.39,0,0,0,21,14.11a15.11,15.11,0,0,0-.87-2.85,18.92,18.92,0,0,0-1.36-2.65A20,20,0,0,0,17,6.18c-.32-.39-.65-.77-1-1.13S15.36,4.33,15,4a21.42,21.42,0,0,1,2.15,2.11A21.12,21.12,0,0,1,19,8.49a16.27,16.27,0,0,1,2.32,5.57,10.81,10.81,0,0,1,.2,1.5c0,.26,0,.51,0,.77a4.88,4.88,0,0,1-.07.76,6.32,6.32,0,0,1-1.14,2.81,9.66,9.66,0,0,1-2.13,2.15,12.34,12.34,0,0,1-1.27.81A11.37,11.37,0,0,1,15.55,23.52Z"/><path class="cls-2" d="M15,23.46A13.41,13.41,0,0,0,17.54,22a9.31,9.31,0,0,0,2-2,7,7,0,0,0,.71-1.24,5.77,5.77,0,0,0,.47-2.08c0-.23,0-.47,0-.71a9.86,9.86,0,0,0-.21-1.43,13.26,13.26,0,0,0-.88-2.74,17.88,17.88,0,0,0-1.37-2.55,19.71,19.71,0,0,0-1.76-2.3c-.32-.37-.64-.73-1-1.07l-1-1a23.66,23.66,0,0,1,2.13,2,19.23,19.23,0,0,1,1.83,2.28,14.93,14.93,0,0,1,2.35,5.35A11.94,11.94,0,0,1,21,15.92c0,.24,0,.49,0,.74a6,6,0,0,1-.07.74,6.14,6.14,0,0,1-1.2,2.69,9.49,9.49,0,0,1-2.14,2A11.93,11.93,0,0,1,15,23.46Z"/><path class="cls-2" d="M.13,29V24.75H1.41a2.32,2.32,0,0,1,.52,0,.92.92,0,0,1,.42.2,1,1,0,0,1,.27.41,1.57,1.57,0,0,1,.1.58,1.54,1.54,0,0,1-.27.92,1.18,1.18,0,0,1-1,.38H.58V29Zm.45-2.24h.88a.8.8,0,0,0,.62-.2A.81.81,0,0,0,2.26,26a1,1,0,0,0-.11-.46.52.52,0,0,0-.28-.25,1.82,1.82,0,0,0-.42,0H.58Z"/><path class="cls-2" d="M2.88,27.47a1.84,1.84,0,0,1,.38-1.27A1,1,0,0,1,4,25.85a1,1,0,0,1,.83.42,1.81,1.81,0,0,1,.33,1.15,2.4,2.4,0,0,1-.15.94,1.15,1.15,0,0,1-.41.53,1,1,0,0,1-1.43-.23A1.92,1.92,0,0,1,2.88,27.47Zm.43,0a1.59,1.59,0,0,0,.2.88.6.6,0,0,0,1,0,1.57,1.57,0,0,0,.21-.9,1.51,1.51,0,0,0-.21-.87A.63.63,0,0,0,4,26.29a.6.6,0,0,0-.52.29A1.63,1.63,0,0,0,3.31,27.47Z"/><path class="cls-2" d="M7.28,27.88l.41.07a1.47,1.47,0,0,1-.34.83.9.9,0,0,1-.68.3,1,1,0,0,1-.82-.42,2,2,0,0,1-.3-1.18,2.59,2.59,0,0,1,.13-.88,1.13,1.13,0,0,1,.4-.56,1.06,1.06,0,0,1,.59-.19.87.87,0,0,1,.65.26,1.27,1.27,0,0,1,.33.72l-.4.08A.93.93,0,0,0,7,26.44a.5.5,0,0,0-.35-.16.6.6,0,0,0-.52.29,1.59,1.59,0,0,0-.19.89,1.64,1.64,0,0,0,.19.91.58.58,0,0,0,.49.28.5.5,0,0,0,.41-.19A1.07,1.07,0,0,0,7.28,27.88Z"/><path class="cls-2" d="M9.65,27.88l.41.07a1.4,1.4,0,0,1-.34.83.88.88,0,0,1-.68.3,1,1,0,0,1-.81-.42,1.91,1.91,0,0,1-.31-1.18,2.59,2.59,0,0,1,.13-.88,1.13,1.13,0,0,1,.4-.56A1.06,1.06,0,0,1,9,25.85a.9.9,0,0,1,.66.26,1.27,1.27,0,0,1,.33.72l-.41.08a.93.93,0,0,0-.21-.47.46.46,0,0,0-.35-.16.6.6,0,0,0-.51.29,1.58,1.58,0,0,0-.2.89,1.64,1.64,0,0,0,.19.91.59.59,0,0,0,.5.28.52.52,0,0,0,.41-.19A1,1,0,0,0,9.65,27.88Z"/><path class="cls-2" d="M10.42,25.92h.42v2.36L12,25.92h.45V29H12V26.67L10.87,29h-.45Z"/><path class="cls-2" d="M13.07,25.92h.42v2.36l1.16-2.36h.45V29h-.42V26.67L13.52,29h-.45Zm1.45-1.16h.29a1,1,0,0,1-.21.55.63.63,0,0,1-.48.2.65.65,0,0,1-.47-.19.92.92,0,0,1-.21-.56h.28a.52.52,0,0,0,.13.29.34.34,0,0,0,.26.1.36.36,0,0,0,.28-.1A.46.46,0,0,0,14.52,24.76Z"/><path class="cls-2" d="M17.33,27.88l.41.07a1.47,1.47,0,0,1-.34.83.9.9,0,0,1-.68.3,1,1,0,0,1-.82-.42,2,2,0,0,1-.3-1.18,2.59,2.59,0,0,1,.13-.88,1.13,1.13,0,0,1,.4-.56,1.06,1.06,0,0,1,.59-.19.9.9,0,0,1,.66.26,1.27,1.27,0,0,1,.32.72l-.4.08a.93.93,0,0,0-.21-.47.5.5,0,0,0-.35-.16.61.61,0,0,0-.52.29,1.59,1.59,0,0,0-.19.89,1.64,1.64,0,0,0,.19.91.58.58,0,0,0,.49.28.5.5,0,0,0,.41-.19A1.07,1.07,0,0,0,17.33,27.88Z"/><path class="cls-2" d="M18.1,25.92h.41v1.34a.32.32,0,0,0,.28-.1A2.15,2.15,0,0,0,19,26.6a2.53,2.53,0,0,1,.2-.48A.42.42,0,0,1,19.4,26a1.19,1.19,0,0,1,.32,0h.09v.44h-.12q-.17,0-.21.06a2.22,2.22,0,0,0-.15.39,1.56,1.56,0,0,1-.17.41.79.79,0,0,1-.25.22c.18.06.36.26.53.62l.46,1h-.46l-.44-1a1.47,1.47,0,0,0-.24-.38.37.37,0,0,0-.25-.09V29H18.1Z"/><path class="cls-2" d="M20.18,25.92h.41v2.36l1.16-2.36h.45V29h-.42V26.67L20.63,29h-.45Z"/><path class="cls-2" d="M22.83,25.92h.41v2.36l1.16-2.36h.45V29h-.42V26.67L23.28,29h-.45Zm1.45-1.16h.28a.89.89,0,0,1-.21.55.62.62,0,0,1-.47.2.66.66,0,0,1-.48-.19,1,1,0,0,1-.21-.56h.29a.46.46,0,0,0,.13.29.32.32,0,0,0,.25.1.38.38,0,0,0,.29-.1A.6.6,0,0,0,24.28,24.76Z"/><path class="cls-2" d="M26.85,24.75h.45v3.76h1.77V24.75h.46v3.76h.31v1.68h-.4V29H26.85Z"/><path class="cls-2" d="M32,28l.44.06a1.45,1.45,0,0,1-.38.74,1,1,0,0,1-.71.26,1,1,0,0,1-.85-.42,1.91,1.91,0,0,1-.32-1.17,2,2,0,0,1,.32-1.21,1,1,0,0,1,.83-.43,1,1,0,0,1,.81.43,1.93,1.93,0,0,1,.31,1.18v.14H30.6a1.39,1.39,0,0,0,.23.78.63.63,0,0,0,.52.27.56.56,0,0,0,.39-.15A1,1,0,0,0,32,28Zm-1.36-.85H32a1.18,1.18,0,0,0-.16-.58.58.58,0,0,0-.51-.31.58.58,0,0,0-.49.25A1,1,0,0,0,30.63,27.17Z"/><path class="cls-2" d="M33,25.92h.42v1.29h1.16V25.92h.41V29h-.41V27.64H33.37V29H33Z"/><path class="cls-2" d="M35.35,25.92h2v.44h-.8V29h-.41V26.36h-.79Z"/><path class="cls-2" d="M37.75,30.19V25.92h.38v.4a1.17,1.17,0,0,1,.3-.35.69.69,0,0,1,.41-.12.83.83,0,0,1,.56.21,1.17,1.17,0,0,1,.36.57,2.64,2.64,0,0,1,.12.81,2.59,2.59,0,0,1-.13.86,1.24,1.24,0,0,1-.4.58.88.88,0,0,1-.54.2.67.67,0,0,1-.37-.11.93.93,0,0,1-.28-.28v1.5Zm.37-2.71a1.57,1.57,0,0,0,.2.88.55.55,0,0,0,.46.29.57.57,0,0,0,.48-.3,1.66,1.66,0,0,0,.2-.91,1.59,1.59,0,0,0-.2-.88.55.55,0,0,0-.46-.3.58.58,0,0,0-.47.32A1.6,1.6,0,0,0,38.12,27.48Z"/><path class="cls-2" d="M2.55,34l.45.14a2.06,2.06,0,0,1-.5,1.06,1.25,1.25,0,0,1-.9.36,1.36,1.36,0,0,1-.9-.28,1.7,1.7,0,0,1-.52-.81A3.49,3.49,0,0,1,0,33.35a3.16,3.16,0,0,1,.2-1.16,1.65,1.65,0,0,1,.58-.75,1.36,1.36,0,0,1,.82-.26,1.24,1.24,0,0,1,.86.32,1.89,1.89,0,0,1,.49.92l-.45.13a1.4,1.4,0,0,0-.34-.68.8.8,0,0,0-.57-.21.93.93,0,0,0-.65.24,1.17,1.17,0,0,0-.37.63,3.18,3.18,0,0,0-.11.82,3.28,3.28,0,0,0,.13.94A1.18,1.18,0,0,0,1,34.9a1,1,0,0,0,.58.2.85.85,0,0,0,.64-.27A1.52,1.52,0,0,0,2.55,34Z"/><path class="cls-2" d="M3.35,34a1.84,1.84,0,0,1,.38-1.27,1,1,0,0,1,.77-.34,1,1,0,0,1,.83.41,1.81,1.81,0,0,1,.33,1.15,2.4,2.4,0,0,1-.15.94,1.15,1.15,0,0,1-.41.53,1,1,0,0,1-1.43-.23A1.92,1.92,0,0,1,3.35,34Zm.43,0a1.59,1.59,0,0,0,.2.88.63.63,0,0,0,.52.3.61.61,0,0,0,.52-.3,1.55,1.55,0,0,0,.21-.9A1.51,1.51,0,0,0,5,33.08a.63.63,0,0,0-.52-.29.64.64,0,0,0-.52.29A1.63,1.63,0,0,0,3.78,34Z"/><path class="cls-2" d="M6.37,32.42H8.09v2.66h.26v1.3H8v-.87H6.07v.87H5.73v-1.3H6A5.63,5.63,0,0,0,6.37,32.42Zm.35.44a6.3,6.3,0,0,1-.37,2.22H7.67V32.86Z"/><path class="cls-2" d="M10.5,34.52l.43.06a1.45,1.45,0,0,1-.38.74A1.08,1.08,0,0,1,9,35.16,1.89,1.89,0,0,1,8.67,34,2,2,0,0,1,9,32.79a1,1,0,0,1,1.64,0A1.93,1.93,0,0,1,10.94,34v.14H9.1a1.39,1.39,0,0,0,.23.78.63.63,0,0,0,.52.27.56.56,0,0,0,.39-.15A1.08,1.08,0,0,0,10.5,34.52Zm-1.37-.85H10.5a1.18,1.18,0,0,0-.16-.58.59.59,0,0,0-.51-.3.6.6,0,0,0-.49.24A1,1,0,0,0,9.13,33.67Z"/><path class="cls-2" d="M11.45,32.42h.42v2.36L13,32.42h.45v3.09h-.41V33.17L11.9,35.51h-.45Zm1.45-1.16h.28a.92.92,0,0,1-.21.56.63.63,0,0,1-.47.19.6.6,0,0,1-.47-.19,1,1,0,0,1-.22-.56h.29a.46.46,0,0,0,.13.29.33.33,0,0,0,.26.1.39.39,0,0,0,.28-.09A.6.6,0,0,0,12.9,31.26Z"/><path class="cls-2" d="M15.71,34.38l.41.07a1.47,1.47,0,0,1-.35.83.88.88,0,0,1-.68.3,1,1,0,0,1-.81-.41A2,2,0,0,1,14,34a2.63,2.63,0,0,1,.13-.88,1.13,1.13,0,0,1,.4-.56,1,1,0,0,1,.59-.18.88.88,0,0,1,.65.25,1.27,1.27,0,0,1,.33.72l-.41.08a.85.85,0,0,0-.2-.47.49.49,0,0,0-.36-.15.59.59,0,0,0-.51.28,1.6,1.6,0,0,0-.2.89,1.74,1.74,0,0,0,.19.91.58.58,0,0,0,.5.28A.52.52,0,0,0,15.5,35,1.07,1.07,0,0,0,15.71,34.38Z"/><path class="cls-2" d="M16.25,32.42h2v.44h-.79v2.65H17V32.86h-.79Z"/><path class="cls-2" d="M18.65,32.42h1a1.36,1.36,0,0,1,.53.08.64.64,0,0,1,.3.27.89.89,0,0,1,.12.47.94.94,0,0,1-.07.39.64.64,0,0,1-.22.27.6.6,0,0,1,.29.28.88.88,0,0,1,.11.47.86.86,0,0,1-.25.65.93.93,0,0,1-.66.21H18.65Zm.42,1.3h.45a1.48,1.48,0,0,0,.36,0,.34.34,0,0,0,.18-.14.45.45,0,0,0,.08-.26A.4.4,0,0,0,20,33a.9.9,0,0,0-.47-.09h-.46Zm0,1.36h.55a.83.83,0,0,0,.49-.1.52.52,0,0,0,.06-.63.31.31,0,0,0-.2-.16,1.24,1.24,0,0,0-.39,0h-.51Z"/><path class="cls-2" d="M21.17,32.42h.42v2.36l1.16-2.36h.45v3.09h-.42V33.17l-1.16,2.34h-.45Z"/><path class="cls-2" d="M25.76,32.42v3.09h-.41v-1.2h-.24a.58.58,0,0,0-.33.07,1.55,1.55,0,0,0-.32.46l-.36.67h-.52l.45-.83c.14-.25.28-.4.41-.43a.79.79,0,0,1-.53-.32,1.13,1.13,0,0,1-.17-.6,1,1,0,0,1,.23-.66.86.86,0,0,1,.65-.25Zm-.41.44h-.6a.61.61,0,0,0-.48.14.58.58,0,0,0-.11.34.52.52,0,0,0,.16.41,1,1,0,0,0,.57.13h.46Z"/><path class="cls-2" d="M27.75,35.51V31.25h.68l.8,3c.08.28.13.49.17.63l.18-.69.81-3H31v4.26h-.44V32l-1,3.56h-.4l-1-3.63v3.63Z"/><path class="cls-2" d="M31.57,34A1.79,1.79,0,0,1,32,32.7a1,1,0,0,1,.77-.34,1,1,0,0,1,.83.41,1.81,1.81,0,0,1,.32,1.15,2.62,2.62,0,0,1-.14.94,1.22,1.22,0,0,1-.41.53,1,1,0,0,1-1.44-.23A1.92,1.92,0,0,1,31.57,34ZM32,34a1.5,1.5,0,0,0,.21.88.6.6,0,0,0,1,0,1.64,1.64,0,0,0,.2-.9,1.6,1.6,0,0,0-.2-.87.61.61,0,0,0-1,0A1.54,1.54,0,0,0,32,34Z"/><path class="cls-2" d="M34.46,32.42H36.4v3.09H36V32.86h-1.1v1.53a5.14,5.14,0,0,1,0,.71.54.54,0,0,1-.15.3.48.48,0,0,1-.36.13l-.34,0v-.44h.18a.44.44,0,0,0,.19,0,.14.14,0,0,0,.07-.11,2.22,2.22,0,0,0,0-.47Z"/><path class="cls-2" d="M36.93,34a1.79,1.79,0,0,1,.38-1.27,1,1,0,0,1,1.6.07,1.87,1.87,0,0,1,.32,1.15,2.62,2.62,0,0,1-.14.94,1.17,1.17,0,0,1-.42.53,1,1,0,0,1-.59.19,1,1,0,0,1-.84-.42A1.92,1.92,0,0,1,36.93,34Zm.42,0a1.5,1.5,0,0,0,.21.88.6.6,0,0,0,1,0,1.64,1.64,0,0,0,.2-.9,1.6,1.6,0,0,0-.2-.87.61.61,0,0,0-1,0A1.54,1.54,0,0,0,37.35,34Z"/><path class="cls-2" d="M40,32.42h1.71v2.66h.27v1.3h-.35v-.87H39.65v.87H39.3v-1.3h.22A5.48,5.48,0,0,0,40,32.42Zm.34.44a6.08,6.08,0,0,1-.37,2.22h1.33V32.86Z"/><path class="cls-2" d="M44.07,34.52l.43.06a1.38,1.38,0,0,1-.38.74,1,1,0,0,1-.7.26,1,1,0,0,1-.86-.42,2.39,2.39,0,0,1,0-2.37,1,1,0,0,1,.83-.43.94.94,0,0,1,.8.42A1.93,1.93,0,0,1,44.52,34a.82.82,0,0,1,0,.14H42.68a1.31,1.31,0,0,0,.23.78.63.63,0,0,0,.51.27.53.53,0,0,0,.39-.15A1,1,0,0,0,44.07,34.52Zm-1.37-.85h1.38a1.18,1.18,0,0,0-.16-.58.6.6,0,0,0-.52-.3.6.6,0,0,0-.48.24A1.11,1.11,0,0,0,42.7,33.67Z"/><path class="cls-2" d="M46.46,32.42v1.34a.33.33,0,0,0,.28-.1A2.15,2.15,0,0,0,47,33.1a1.83,1.83,0,0,1,.26-.56.49.49,0,0,1,.36-.12h.15v.44h-.11a.26.26,0,0,0-.21.07,2,2,0,0,0-.15.38,1.56,1.56,0,0,1-.17.41.79.79,0,0,1-.25.22,1.13,1.13,0,0,1,.53.62l.46,1h-.46l-.45-1a1.24,1.24,0,0,0-.24-.38.32.32,0,0,0-.24-.09v1.43H46V34.08a.36.36,0,0,0-.24.09,1.52,1.52,0,0,0-.23.38l-.45,1h-.46l.46-1a1.13,1.13,0,0,1,.53-.62.61.61,0,0,1-.26-.24,3.24,3.24,0,0,1-.23-.6.45.45,0,0,0-.1-.2.44.44,0,0,0-.18,0h-.13v-.44h.06a1.19,1.19,0,0,1,.34,0,.39.39,0,0,1,.18.16,2.26,2.26,0,0,1,.2.48,2.49,2.49,0,0,0,.23.56.34.34,0,0,0,.28.1V32.42Z"/><path class="cls-2" d="M48.15,32.42h.42v1.29h1.16V32.42h.41v3.09h-.41V34.14H48.57v1.37h-.42Z"/><path class="cls-2" d="M50.62,34A1.79,1.79,0,0,1,51,32.7a1,1,0,0,1,1.6.07,1.87,1.87,0,0,1,.32,1.15,2.62,2.62,0,0,1-.14.94,1.17,1.17,0,0,1-.42.53,1,1,0,0,1-.59.19,1,1,0,0,1-.84-.42A1.92,1.92,0,0,1,50.62,34ZM51,34a1.5,1.5,0,0,0,.21.88.6.6,0,0,0,1,0,1.64,1.64,0,0,0,.2-.9,1.6,1.6,0,0,0-.2-.87.61.61,0,0,0-1,0A1.54,1.54,0,0,0,51,34Z"/><path class="cls-2" d="M53.42,32.42h.65l.65,2.47.72-2.47H56v3.09h-.42V33l-.73,2.48h-.37l-.69-2.6v2.6h-.41Z"/><path class="cls-2" d="M56.71,36.7l-.05-.49a.75.75,0,0,0,.24,0,.45.45,0,0,0,.22,0,.39.39,0,0,0,.14-.17,2.33,2.33,0,0,0,.13-.39s0-.07,0-.12l-.94-3.1h.45l.51,1.79q.11.34.18.72c0-.24.11-.48.17-.71l.53-1.8h.42l-.94,3.14c-.1.34-.18.57-.23.7a1.05,1.05,0,0,1-.26.38.5.5,0,0,1-.34.12A.74.74,0,0,1,56.71,36.7Z"/><path class="cls-2" d="M.13,37.75H2.81V42H2.36V38.26H.58V42H.13Z"/><path class="cls-2" d="M3.49,43.19V38.93h.38v.4a1.11,1.11,0,0,1,.3-.36.78.78,0,0,1,.41-.11.82.82,0,0,1,.56.2,1.27,1.27,0,0,1,.36.57,2.66,2.66,0,0,1,.13.82,2.52,2.52,0,0,1-.14.85,1.3,1.3,0,0,1-.39.58.93.93,0,0,1-.55.2A.67.67,0,0,1,4.18,42a.9.9,0,0,1-.27-.28v1.5Zm.38-2.7a1.6,1.6,0,0,0,.19.88.55.55,0,0,0,.46.28A.58.58,0,0,0,5,41.36a1.72,1.72,0,0,0,.2-.92A1.69,1.69,0,0,0,5,39.56a.55.55,0,0,0-.47-.29.58.58,0,0,0-.47.31A1.64,1.64,0,0,0,3.87,40.49Z"/><path class="cls-2" d="M7.81,41l.44.06a1.45,1.45,0,0,1-.38.74,1,1,0,0,1-.71.26,1,1,0,0,1-.85-.42A1.87,1.87,0,0,1,6,40.49a2,2,0,0,1,.32-1.2,1,1,0,0,1,1.64,0,2,2,0,0,1,.31,1.18v.14H6.42a1.39,1.39,0,0,0,.23.78.63.63,0,0,0,.51.27.57.57,0,0,0,.4-.15A1.08,1.08,0,0,0,7.81,41Zm-1.37-.85H7.82a1.18,1.18,0,0,0-.16-.58.6.6,0,0,0-1-.06A1.11,1.11,0,0,0,6.44,40.17Z"/><path class="cls-2" d="M9,38.93h1.72v2.65H11v1.31h-.35V42H8.69v.88H8.35V41.58h.22A5.37,5.37,0,0,0,9,38.93Zm.35.43A6.08,6.08,0,0,1,9,41.58h1.32V39.36Z"/><path class="cls-2" d="M11.44,38.93h1.94V42H13V39.36H11.85V42h-.41Z"/><path class="cls-2" d="M14,43.19V38.93h.38v.4a1,1,0,0,1,.3-.36.76.76,0,0,1,.41-.11.84.84,0,0,1,.56.2,1.27,1.27,0,0,1,.36.57,2.66,2.66,0,0,1,.12.82,2.53,2.53,0,0,1-.13.85,1.31,1.31,0,0,1-.4.58.88.88,0,0,1-.54.2.73.73,0,0,1-.38-.11.9.9,0,0,1-.27-.28v1.5Zm.37-2.7a1.59,1.59,0,0,0,.2.88.53.53,0,0,0,.46.28.58.58,0,0,0,.48-.29,1.72,1.72,0,0,0,.2-.92,1.59,1.59,0,0,0-.2-.88.54.54,0,0,0-.46-.29.55.55,0,0,0-.47.31A1.63,1.63,0,0,0,14.38,40.49Z"/><path class="cls-2" d="M16.65,38.93h.41v2.35l1.16-2.35h.45V42h-.42V39.67L17.1,42h-.45Z"/><path class="cls-2" d="M19.3,38.93h.42v1.28h1.15V38.93h.42V42h-.42V40.64H19.72V42H19.3Z"/><path class="cls-2" d="M21.92,38.93h.42v2.35l1.15-2.35h.45V42h-.41V39.67L22.37,42h-.45Z"/><path class="cls-2" d="M24.58,38.93h.65l.65,2.46.72-2.46h.6V42h-.42V39.53L26.05,42h-.37L25,39.41V42h-.41Z"/><path class="cls-2" d="M29.44,41.63A1.53,1.53,0,0,1,29,42a1,1,0,0,1-.46.1.77.77,0,0,1-.62-.25.93.93,0,0,1-.22-.63,1,1,0,0,1,.09-.42.81.81,0,0,1,.21-.3,1.11,1.11,0,0,1,.3-.17,2.76,2.76,0,0,1,.37-.08,3.15,3.15,0,0,0,.75-.18v-.13a.64.64,0,0,0-.12-.45.62.62,0,0,0-.48-.18.6.6,0,0,0-.43.13.9.9,0,0,0-.21.46l-.41-.07a1.37,1.37,0,0,1,.19-.53.76.76,0,0,1,.37-.31,1.2,1.2,0,0,1,.55-.11,1.25,1.25,0,0,1,.52.09.69.69,0,0,1,.29.23,1.17,1.17,0,0,1,.13.36,4.64,4.64,0,0,1,0,.48v.7c0,.48,0,.79,0,.92A1.58,1.58,0,0,0,30,42h-.44A1.34,1.34,0,0,1,29.44,41.63Zm0-1.17a2.4,2.4,0,0,1-.69.2,1.68,1.68,0,0,0-.36.1.37.37,0,0,0-.16.17.54.54,0,0,0-.06.25.51.51,0,0,0,.12.35.5.5,0,0,0,.37.14.71.71,0,0,0,.43-.13.77.77,0,0,0,.28-.36,1.74,1.74,0,0,0,.07-.53Z"/><path class="cls-2" d="M30.15,38.93h2v.43h-.8V42h-.41V39.36h-.79Z"/><path class="cls-2" d="M34.18,41l.43.06a1.45,1.45,0,0,1-.38.74,1.08,1.08,0,0,1-1.56-.16,1.87,1.87,0,0,1-.32-1.17,2,2,0,0,1,.32-1.2,1,1,0,0,1,.83-.43,1,1,0,0,1,.81.42,1.93,1.93,0,0,1,.31,1.18v.14H32.78a1.47,1.47,0,0,0,.23.78.63.63,0,0,0,.52.27.56.56,0,0,0,.39-.15A1.08,1.08,0,0,0,34.18,41Zm-1.37-.85h1.37a1.18,1.18,0,0,0-.16-.58.59.59,0,0,0-.51-.3.6.6,0,0,0-.49.24A1,1,0,0,0,32.81,40.17Z"/><path class="cls-2" d="M35.18,38.93h1.94V42H36.7V39.36H35.59V40.9a5.69,5.69,0,0,1,0,.7.49.49,0,0,1-.16.3.45.45,0,0,1-.36.13l-.33,0v-.44h.18a.36.36,0,0,0,.18,0,.15.15,0,0,0,.08-.11,3.35,3.35,0,0,0,0-.47Z"/><path class="cls-2" d="M37.74,38.93h.41v1.2h.53a1.2,1.2,0,0,1,.8.25.92.92,0,0,1,.28.7,1,1,0,0,1-.24.66.92.92,0,0,1-.74.27h-1Zm.41,2.65h.44a1,1,0,0,0,.57-.12.45.45,0,0,0,.17-.38.59.59,0,0,0-.13-.36.72.72,0,0,0-.55-.16h-.5Z"/><path class="cls-2" d="M41.82,40.88l.41.07a1.47,1.47,0,0,1-.34.83.9.9,0,0,1-.68.3,1,1,0,0,1-.81-.41,1.94,1.94,0,0,1-.31-1.19,2.57,2.57,0,0,1,.13-.87,1.16,1.16,0,0,1,.4-.57,1,1,0,0,1,.59-.18.89.89,0,0,1,.66.25,1.21,1.21,0,0,1,.32.72l-.4.08a.93.93,0,0,0-.21-.47.45.45,0,0,0-.35-.15.59.59,0,0,0-.51.28,1.54,1.54,0,0,0-.2.9,1.63,1.63,0,0,0,.19.9.56.56,0,0,0,.49.28.5.5,0,0,0,.41-.19A1,1,0,0,0,41.82,40.88Z"/><path class="cls-2" d="M42.37,38.93h2v.43h-.8V42h-.41V39.36h-.79Z"/><path class="cls-2" d="M44.77,38.93h1a1.44,1.44,0,0,1,.53.07.67.67,0,0,1,.29.27.82.82,0,0,1,.13.48.92.92,0,0,1-.08.38.58.58,0,0,1-.22.27.56.56,0,0,1,.29.28.89.89,0,0,1,.12.47,1,1,0,0,1-.25.65.93.93,0,0,1-.66.21H44.77Zm.41,1.29h.45a1.52,1.52,0,0,0,.37,0,.37.37,0,0,0,.17-.14.38.38,0,0,0,.08-.26.38.38,0,0,0-.14-.34.88.88,0,0,0-.47-.09h-.46Zm0,1.36h.55a.83.83,0,0,0,.49-.1.46.46,0,0,0,.14-.36.5.5,0,0,0-.08-.27.29.29,0,0,0-.2-.16,1.65,1.65,0,0,0-.39,0h-.51Z"/><path class="cls-2" d="M47.16,43.2l0-.49a.75.75,0,0,0,.24,0,.38.38,0,0,0,.22,0,.61.61,0,0,0,.14-.17q0-.08.12-.39s0-.07,0-.12L47,38.93h.45l.51,1.78q.09.34.18.72a5.65,5.65,0,0,1,.17-.71l.52-1.79h.42l-.94,3.13a5.61,5.61,0,0,1-.23.7,1,1,0,0,1-.25.38.53.53,0,0,1-.35.12A.74.74,0,0,1,47.16,43.2Z"/></g></g></g></g></g></svg>