<?xml version="1.0" standalone="no"?>
<!DOCTYPE svg PUBLIC "-//W3C//DTD SVG 20010904//EN"
 "http://www.w3.org/TR/2001/REC-SVG-20010904/DTD/svg10.dtd">
<svg version="1.0" xmlns="http://www.w3.org/2000/svg"
 width="144.000000pt" height="144.000000pt" viewBox="0 0 144.000000 144.000000"
 preserveAspectRatio="xMidYMid meet">
<metadata>
Created by potrace 1.11, written by Peter Selinger 2001-2013
</metadata>
<g transform="translate(0.000000,144.000000) scale(0.100000,-0.100000)"
fill="#000000" stroke="none">
<path d="M714 1426 c-18 -8 -35 -19 -38 -25 -5 -8 -17 -6 -39 6 -83 42 -211
-9 -281 -112 -14 -20 -27 -36 -30 -35 -72 5 -127 -30 -196 -124 -177 -243
-172 -595 13 -846 168 -228 455 -335 742 -275 288 60 536 339 553 621 9 153
-31 283 -119 389 -21 26 -42 59 -46 74 -10 45 -50 115 -84 149 -47 48 -129 88
-186 91 -7 1 -30 16 -50 34 -70 62 -169 83 -239 53z m153 -93 c43 -28 66 -67
81 -138 16 -80 5 -177 -44 -380 -54 -224 -62 -280 -60 -410 3 -137 24 -209 76
-262 31 -31 31 -31 9 -38 -38 -12 -108 -7 -146 11 -81 39 -142 129 -166 247
-17 82 -13 241 9 351 2 12 7 34 10 51 3 16 28 120 56 230 44 173 50 209 45
266 -6 68 -2 82 23 92 33 12 68 6 107 -20z m-259 -9 c31 -21 54 -71 54 -113 0
-20 -21 -109 -46 -198 -76 -268 -99 -392 -98 -515 1 -178 50 -311 147 -396
l45 -40 -37 5 c-192 23 -309 134 -356 340 -32 133 -15 275 54 476 41 118 42
126 41 237 -2 105 0 117 22 150 41 62 125 88 174 54z m503 -107 c20 -13 46
-47 64 -81 27 -54 30 -67 29 -155 0 -57 -9 -137 -22 -196 -12 -55 -24 -113
-27 -130 -7 -41 -7 -204 0 -235 11 -49 5 -141 -11 -177 -23 -47 -69 -75 -112
-69 -42 6 -58 19 -85 70 -18 34 -22 60 -23 151 -2 124 9 198 67 439 32 131 42
195 44 278 2 59 6 112 10 118 10 16 29 12 66 -13z m-784 -64 c15 -56 5 -122
-40 -263 -53 -164 -65 -229 -65 -348 0 -100 19 -187 59 -266 l29 -60 -26 25
c-14 13 -46 52 -70 86 -150 208 -174 466 -67 692 64 133 161 205 180 134z
m988 -253 c77 -153 63 -362 -36 -526 -18 -29 -34 -52 -35 -51 -8 7 -16 84 -19
173 -2 76 3 128 20 215 25 120 34 179 35 217 0 33 7 28 35 -28z"/>
</g>
</svg>
