<svg xmlns="http://www.w3.org/2000/svg" viewBox="0 0 56 56"><defs><style>.cls-1{fill:#d4f3fd;}.cls-2,.cls-3{fill:#46b2e8;}.cls-3{opacity:0.3;}</style></defs><title>analytics</title><g id="Слой_2" data-name="Слой 2"><g id="_1280" data-name="1280"><g id="Strategy"><g id="body"><rect class="cls-1" width="56" height="56" rx="28"/><path class="cls-2" d="M25,13.37h5.81V28.71H25Z"/><path class="cls-2" d="M32.53,17.61h5.81v11.1H32.53Z"/><path class="cls-2" d="M17.42,15.11h5.81v13.6H17.42Z"/><path class="cls-3" d="M17.42,30.46H38.34V32.2H17.42Z"/><path class="cls-3" d="M40.09,19.36V33.94H15.68V19.36H14a1,1,0,0,0-1,1V35.27a1,1,0,0,0,1,1h6.85v4a1,1,0,0,0,1.66.75l5.36-4.76H41.76a1,1,0,0,0,1-1V20.36a1,1,0,0,0-1-1Z"/></g></g></g></g></svg>