<svg xmlns="http://www.w3.org/2000/svg" viewBox="0 0 56 56"><defs><style>.cls-1{fill:#d4f3fd;}.cls-2,.cls-3{fill:#46b2e8;}.cls-3{opacity:0.3;}</style></defs><title>chat</title><g id="Слой_2" data-name="Слой 2"><g id="_1280" data-name="1280"><g id="IT"><g id="body"><rect class="cls-1" width="56" height="56" rx="28"/><path class="cls-2" d="M24.19,34.74l-1.37.95-2.05,1.44L19.52,38a1.46,1.46,0,0,0,1.14.56h9.82l7,4.88a1.47,1.47,0,0,0,.82.26,1.43,1.43,0,0,0,1.44-1.44v-3.7h2a1.43,1.43,0,0,0,1.43-1.43V20.26a1.43,1.43,0,0,0-1.43-1.43H37.4v11.6a4.31,4.31,0,0,1-4.3,4.31Z"/><path class="cls-3" d="M18.79,24.61h9.57a1.44,1.44,0,0,1,1.3.83,1.5,1.5,0,0,1,.13.6,1.43,1.43,0,0,1-1.43,1.44H18.79a1.44,1.44,0,0,1,0-2.87Zm0-5.74h9.57a1.44,1.44,0,0,1,0,2.87H18.79a1.44,1.44,0,0,1,0-2.87Zm-5.74,14h2v3.7A1.43,1.43,0,0,0,16.5,38a1.47,1.47,0,0,0,.82-.26l2.91-2,1.43-1,1.44-1,1.18-.83H34.1a1.43,1.43,0,0,0,1.43-1.44V14.56a1.43,1.43,0,0,0-1.43-1.43h-21a1.43,1.43,0,0,0-1.43,1.43V31.43a1.43,1.43,0,0,0,1.43,1.44Z"/></g></g></g></g></svg>