<svg xmlns="http://www.w3.org/2000/svg" viewBox="0 0 56 56"><defs><style>.cls-1{fill:#d4f3fd;}.cls-2,.cls-3{fill:#46b2e8;}.cls-2{opacity:0.3;}</style></defs><title>clock</title><g id="Слой_2" data-name="Слой 2"><g id="_1280" data-name="1280"><g id="Index"><g id="body"><rect class="cls-1" width="56" height="56" rx="28"/><path class="cls-2" d="M42.25,20.15l-4.94-4.32-3,3.46A13.7,13.7,0,0,0,29,17.82V16.65h3.74V10.5H23.23v6.15H27v1.17a13.7,13.7,0,0,0-5.25,1.47l-3-3.46-4.94,4.32,3,3.42a13.86,13.86,0,1,0,22.52,0ZM28,42A10.37,10.37,0,1,1,38.37,31.64,10.38,10.38,0,0,1,28,42Z"/><path class="cls-3" d="M28,30.46a1.18,1.18,0,1,0,1.18,1.18A1.18,1.18,0,0,0,28,30.46Z"/><path class="cls-3" d="M28,23.32a8.32,8.32,0,1,0,8.32,8.32A8.33,8.33,0,0,0,28,23.32Zm0,11.55a3.23,3.23,0,0,1-1-6.29V25.13H29v3.45a3.23,3.23,0,0,1-1,6.29Z"/></g></g></g></g></svg>