<svg xmlns="http://www.w3.org/2000/svg" viewBox="0 0 56 56"><defs><style>.cls-1{fill:#d4f3fd;}.cls-2{fill:#46b2e8;}.cls-3{opacity:0.3;}</style></defs><title>contract</title><g id="Слой_2" data-name="Слой 2"><g id="_1280" data-name="1280"><g id="Strategy"><g id="body"><rect class="cls-1" width="56" height="56" rx="28"/><path class="cls-2" d="M37,18.81A2.56,2.56,0,0,0,36.28,17l-2.43-2.43A2.59,2.59,0,0,0,32,13.82h-.15V19H37v-.15Z"/><g class="cls-3"><path class="cls-2" d="M30.43,31.51a3.38,3.38,0,0,1,.82-1.34l5.8-5.78V20.67H31a.83.83,0,0,1-.83-.85v-6H17.35a2.58,2.58,0,0,0-2.58,2.57V40.5a2.58,2.58,0,0,0,2.58,2.57H34.46a2.59,2.59,0,0,0,2.59-2.57V34.11l-.94.91a3.44,3.44,0,0,1-1.33.83l-2.73.91-.41,0a2.14,2.14,0,0,1-2-2.82ZM19.06,29.25H27.6a.86.86,0,1,1,0,1.71H19.06a.86.86,0,1,1,0-1.71Zm-.86-2.58a.86.86,0,0,1,.86-.85H27.6a.86.86,0,1,1,0,1.71H19.06A.86.86,0,0,1,18.2,26.67Zm0,6.86a.87.87,0,0,1,.86-.86H27.6a.86.86,0,0,1,0,1.72H19.06A.86.86,0,0,1,18.2,33.53ZM31,37.82a.86.86,0,1,1,0,1.71H25.89a.86.86,0,1,1,0-1.71Zm-12-13.72a.86.86,0,1,1,0-1.71H31a.86.86,0,1,1,0,1.71Z"/></g><path class="cls-2" d="M32,32.26l-.75,2.24a.43.43,0,0,0,.55.54L34,34.3Z"/><path class="cls-2" d="M38.64,25.21,33,30.85l2.44,2.44,5.64-5.65Z"/><path class="cls-2" d="M43.53,22.75a1.74,1.74,0,0,0-1.22-.48,1.76,1.76,0,0,0-1.22.48L39.85,24l2.43,2.44,1.25-1.25A1.72,1.72,0,0,0,43.53,22.75Z"/><path class="cls-2" d="M43.53,25.18Z"/><path class="cls-2" d="M43.53,25.18h0Z"/><path class="cls-2" d="M43.54,25.17Z"/></g></g></g></g></svg>