<svg xmlns="http://www.w3.org/2000/svg" viewBox="0 0 56 56"><defs><style>.cls-1{fill:#d4f3fd;}.cls-2,.cls-3{fill:#46b2e8;}.cls-3{opacity:0.3;}</style></defs><title>doc</title><g id="Слой_2" data-name="Слой 2"><g id="_1280" data-name="1280"><g id="Index"><g id="body"><rect class="cls-1" width="56" height="56" rx="28"/><path class="cls-2" d="M18.64,35.92c-.05-5.32,0-21.28,0-21.28a1.47,1.47,0,0,1,1.46-1.46H31.79a.68.68,0,0,1,.49.22l3.78,4.1a.71.71,0,0,1,.17.46V28.59H35V18.88a.31.31,0,0,0-.31-.31H31.81A.61.61,0,0,1,31.2,18V14.71a.31.31,0,0,0-.31-.3H20.1a.23.23,0,0,0-.23.23V34.58l-.94,1.9S18.65,36.46,18.64,35.92ZM32.42,17.35h1.82l-1.82-2v2Zm.67,2.47H21.79a.76.76,0,0,0,0,1.51h11.3a.76.76,0,0,0,0-1.51ZM33.84,25a.76.76,0,0,0-.75-.76H21.79a.76.76,0,0,0,0,1.51h11.3A.76.76,0,0,0,33.84,25ZM21,29.39a.76.76,0,0,0,.75.75h.27a2.27,2.27,0,0,1,1.66-1.51H21.79A.76.76,0,0,0,21,29.39Z"/><path class="cls-3" d="M45.55,31.18,40,41.73a2.18,2.18,0,0,1-1.64,1.08H16A1.79,1.79,0,0,1,14.19,41V23.68A1.78,1.78,0,0,1,16,21.9h1.63v1.51H16.52a.8.8,0,0,0-.57.24.78.78,0,0,0-.24.57V40.49a.81.81,0,0,0,.81.81h1.12l5.28-10.69a1.8,1.8,0,0,1,1.46-1.08H37.32v-4.3a1.65,1.65,0,0,1,1.51,1.65v2.65h5.94C45.47,29.54,46.06,30.23,45.55,31.18Z"/></g></g></g></g></svg>