<svg xmlns="http://www.w3.org/2000/svg" viewBox="0 0 56 56"><defs><style>.cls-1{fill:#d4f3fd;}.cls-2,.cls-3{fill:#46b2e8;}.cls-3{opacity:0.3;}</style></defs><title>docs</title><g id="Слой_2" data-name="Слой 2"><g id="_1280" data-name="1280"><g id="IT"><g id="body"><rect class="cls-1" width="56" height="56" rx="28"/><path class="cls-2" d="M40.42,16.7h-1V40.4a2.86,2.86,0,0,1-2.85,2.86H19.05v.88A1.83,1.83,0,0,0,20.88,46H40.42a1.83,1.83,0,0,0,1.82-1.82V18.53a1.82,1.82,0,0,0-1.82-1.83Z"/><path class="cls-3" d="M25.83,41.22H35.6a1.82,1.82,0,0,0,1.82-1.82V13.79A1.83,1.83,0,0,0,35.6,12h-13v.6c0,.07,0,.13,0,.2v5A2.57,2.57,0,0,1,20,20.32H14.24V39.4a1.81,1.81,0,0,0,1.82,1.82ZM26.19,35H19.82a.86.86,0,0,1,0-1.72H26.2a.86.86,0,1,1,0,1.72Zm6.38-4.4H19.82a.86.86,0,0,1,0-1.72H32.57a.86.86,0,0,1,0,1.72ZM19.82,24.24H32.57a.87.87,0,0,1,0,1.73H19.82a.87.87,0,0,1,0-1.73Z"/><path class="cls-2" d="M14,18.29h5a1.53,1.53,0,0,0,1.52-1.51v-5a.76.76,0,0,0-.77-.77.75.75,0,0,0-.54.23L13.49,17A.76.76,0,0,0,14,18.29Z"/></g></g></g></g></svg>