<svg xmlns="http://www.w3.org/2000/svg" viewBox="0 0 81.19 38.05"><defs><style>.cls-1{fill:#fff;}.cls-1,.cls-2,.cls-3,.cls-4,.cls-5{fill-rule:evenodd;}.cls-2{fill:#1c1c1c;}.cls-3{fill:#3d3d3d;}.cls-4{fill:#a2a2a2;}.cls-5{fill:#6d6d6d;}</style></defs><title>govmoscow</title><g id="Слой_2" data-name="Слой 2"><g id="_1280" data-name="1280"><g id="Index"><g id="body"><polygon class="cls-1" points="0 0 32.03 0 32.03 29.63 32.02 29.94 32 30.25 31.98 30.55 31.93 30.86 31.87 31.16 31.8 31.43 31.71 31.73 31.61 31.99 31.51 32.27 31.37 32.52 31.24 32.78 31.1 33.01 30.93 33.25 30.75 33.48 30.55 33.69 30.36 33.89 30.14 34.08 29.91 34.27 29.68 34.43 29.41 34.61 29.15 34.74 28.89 34.89 28.59 35.01 28.3 35.12 27.99 35.21 27.67 35.3 27.35 35.39 27.01 35.44 26.66 35.49 26.29 35.52 25.93 35.53 25.55 35.55 21.92 35.55 21.67 35.55 21.43 35.56 21.2 35.56 20.96 35.59 20.75 35.6 20.53 35.63 20.32 35.66 20.12 35.71 19.91 35.75 19.72 35.8 19.53 35.84 19.34 35.9 19.15 35.96 18.97 36.02 18.81 36.07 18.64 36.15 18.48 36.22 18.32 36.29 18.15 36.37 18.01 36.45 17.86 36.54 17.71 36.63 17.57 36.72 17.42 36.81 17.29 36.91 17.16 37.01 17.03 37.11 16.91 37.22 16.78 37.32 16.66 37.42 16.53 37.54 16.02 38.05 15.5 37.54 15.37 37.42 15.26 37.32 15.12 37.22 15.01 37.11 14.88 37.01 14.74 36.91 14.6 36.81 14.46 36.72 14.32 36.63 14.17 36.54 14.03 36.45 13.88 36.37 13.72 36.29 13.56 36.22 13.4 36.15 13.22 36.07 13.04 36.02 12.87 35.96 12.69 35.9 12.5 35.84 12.31 35.8 12.12 35.75 11.92 35.71 11.71 35.66 11.49 35.63 11.29 35.6 11.07 35.59 10.83 35.56 10.6 35.56 10.35 35.55 10.1 35.55 6.49 35.55 6.11 35.53 5.74 35.52 5.37 35.49 5.02 35.44 4.68 35.39 4.36 35.3 4.04 35.21 3.73 35.12 3.44 35.01 3.15 34.89 2.87 34.74 2.61 34.61 2.36 34.43 2.12 34.27 1.89 34.08 1.68 33.89 1.48 33.69 1.29 33.48 1.11 33.25 0.94 33.01 0.79 32.78 0.66 32.52 0.53 32.27 0.41 31.99 0.32 31.73 0.23 31.43 0.16 31.16 0.1 30.86 0.06 30.55 0.03 30.25 0.01 29.94 0 29.63 0 0 0 0 0 0"/><polygon class="cls-2" points="0.4 0.38 31.65 0.38 31.65 29.63 31.64 29.93 31.62 30.22 31.59 30.51 31.55 30.79 31.49 31.07 31.42 31.34 31.34 31.59 31.26 31.86 31.16 32.11 31.04 32.35 30.91 32.58 30.77 32.81 30.61 33.03 30.45 33.23 30.28 33.42 30.09 33.61 29.9 33.79 29.68 33.97 29.46 34.13 29.22 34.27 28.97 34.41 28.72 34.54 28.46 34.65 28.17 34.76 27.89 34.84 27.58 34.93 27.27 35.01 26.94 35.05 26.62 35.11 26.27 35.14 25.91 35.15 25.55 35.17 21.92 35.17 21.67 35.17 21.42 35.18 21.17 35.18 20.94 35.21 20.7 35.23 20.48 35.25 20.26 35.3 20.04 35.33 19.84 35.37 19.63 35.41 19.43 35.47 19.22 35.53 19.03 35.59 18.86 35.65 18.67 35.72 18.49 35.8 18.32 35.87 18.15 35.96 17.98 36.03 17.82 36.12 17.67 36.21 17.51 36.29 17.36 36.4 17.22 36.5 17.07 36.6 16.92 36.7 16.79 36.81 16.66 36.92 16.53 37.04 16.4 37.14 16.28 37.26 16.02 37.51 15.77 37.26 15.64 37.14 15.5 37.04 15.37 36.92 15.24 36.81 15.11 36.7 14.96 36.6 14.82 36.5 14.67 36.4 14.52 36.29 14.38 36.21 14.22 36.12 14.04 36.03 13.88 35.96 13.72 35.87 13.54 35.8 13.37 35.72 13.18 35.65 13 35.59 12.8 35.53 12.61 35.47 12.41 35.41 12.21 35.37 11.99 35.33 11.77 35.3 11.55 35.25 11.33 35.23 11.1 35.21 10.86 35.18 10.61 35.18 10.37 35.17 10.1 35.17 6.49 35.17 6.12 35.15 5.77 35.14 5.42 35.11 5.08 35.05 4.76 35.01 4.45 34.93 4.14 34.84 3.85 34.76 3.59 34.65 3.31 34.54 3.04 34.41 2.81 34.27 2.58 34.13 2.36 33.97 2.14 33.79 1.95 33.61 1.76 33.42 1.58 33.23 1.42 33.03 1.26 32.81 1.13 32.58 1 32.35 0.88 32.11 0.78 31.86 0.69 31.59 0.6 31.34 0.54 31.07 0.48 30.79 0.44 30.51 0.41 30.22 0.4 29.93 0.4 29.63 0.4 0.38 0.4 0.38 0.4 0.38"/><path class="cls-3" d="M.57.57H31.45V29.63c0,3.14-2,5.35-5.9,5.35H21.92A7.83,7.83,0,0,0,16,37.25,7.87,7.87,0,0,0,10.12,35H6.49C2.59,35,.57,32.77.57,29.63V.57Z"/><path class="cls-2" d="M7,2.47c-.19,0-.26.17-.23.38L8,4.7c.05.09.13.18.12.25-.1.25-.15.41.07.63L8.65,6a1.22,1.22,0,0,0,.21.65c-.11.2,0,.39.2.58s.06.13.13.19l.08.63a2.9,2.9,0,0,0-1,1.13c0,.13-.06.23,0,.31l.86-.09c.07,0,.16.06.19.12a.63.63,0,0,1-.51.85C7.79,10.63,7,11,7.32,11.71c.4.51.19,1-.48,1.38a.64.64,0,0,0-.21.58,2.26,2.26,0,0,0-.47.69c-.1.3-.1.43.11.4,1.49-.5,3-.71,4,.16.52.42.43.64,1.23.69-.09.33,0,.52.3.58l0,.38c-.32.08-.69.08-1,.16a5,5,0,0,1-1,.24,8,8,0,0,0-.86-.51c-1.35-.84-2.48-.88-3.46.26A7.22,7.22,0,0,0,4.1,19.4c-.07.22-.25.31-.6.1-.7-.57-.84-1.08-.48-1.42s.68-.19.42.06l0,.06c.38,0,.52.26.67.54a1.57,1.57,0,0,0-.31-1.86h-.1l0,.71a1,1,0,0,0-1.26,1A1.49,1.49,0,0,0,3.41,20c.4.14.51.59.21,1-.77,1.12-.65,2.3,0,3.82l.09,0c.14-1.67.5-2.52,1-2.68a1,1,0,0,0,.49-.37c.16-.24.24-.21.36,0a2,2,0,0,1-.15,2.05c-1,1.57-1,2.77.37,3.72l0,.11-.36.47c-.12.19,0,.43.29.69a2.58,2.58,0,0,1,.43,1.3.73.73,0,0,0-.06.65,1.5,1.5,0,0,0,1.4.38c.08,0,.06-.07.06-.15.06-.32-.16-.55-.39-.95a1.52,1.52,0,0,1-.62-1.77l.1-.16a10.56,10.56,0,0,0,1.86.5,1.85,1.85,0,0,0,0,1.61,1.7,1.7,0,0,0,1.8,1c1.19-.11,1.78-1.09,1.34-2.42.42-.23.7-.22.85,0,0,.6.24.41.26,1-.7.61-1,1.14-.21,1.48.4.39.18.54-.33.57-.54-.13-.94-.1-1,.34-.5,0-.65.32-.63.79.14-.35.42-.38.57-.3a2.18,2.18,0,0,0,.77,0,.93.93,0,0,1,.75,0,.34.34,0,0,1,.32.18c.35.37.31,0,1.09.42.19,0,.51,0,.57.31l.07-.28a.24.24,0,0,0-.09-.32c-.25-.29.15-.31.84-.17a1.82,1.82,0,0,0,1,.19c.31-.31.38-.12.44.29.22-.6.08-.92-.52-.95.1-.32.14.16.36-.24.19-.08.38,0,.57.19.05-.29-.13-.46-.51-.55-.09-.25-.28-.27-.54,0-1.11-.29-1.23-1-.6-1.1.34-.08.47.27.73.37a2.45,2.45,0,0,0,.59.07,1.59,1.59,0,0,1,.77.21l.22.07c.12-.09.24-.07.38.06s.32.26.47.07c.44-.35,1.1-.35,1.05-.13s.05.44.17.41.14.15.14.38c-.42,0-.72.06-.72.37-.39.12-.38.39-.2.76,0-.7.56-.13,1.14-.51l.41,0c.05.21.24.3.6.28A2.6,2.6,0,0,1,22,33a1.42,1.42,0,0,1,1.71.44.51.51,0,0,0,0-.54c.5-.34,1-.2.72.34.29-.15.58-.89.2-.88.16-.44.82-.07.63.25.28-.15.32-.37,0-.65-.05-.24-.25-.32-.62-.21-.2-.36-.47-.37-.82-.06s-.63.17-.8-.06-.15-.46.11-.35.19-.12.36-.43c.05-.13.17-.23.26-.41.38-.06.69-.39,1.08-1.07.28-.13.41-.67.43-1.52.11.06.26,0,.45-.1-.13,0-.19-.06-.19-.4h.37c.14-.06.2-.11.19-.19s-.15,0-.25-.2a1.23,1.23,0,0,0-.38-.62L25,25.78c-.25-.79-.55-1.24-.91-1l-.1-.06a3.48,3.48,0,0,1-.65-1.17c0-.56-.57-.59-.88-.06l-.08-.44-.15.24L21.32,22c.1,0,.27-.11.38-.13a8.23,8.23,0,0,0,3.41-1.07l.82-.24a.49.49,0,0,1,.67.16l.84.86a.4.4,0,0,1,.07.51c-.09.18.12.41.41.66A1,1,0,0,1,28,23.94c-.13.32-.1.52.09.63l.57.41c.38.3.57.2.55-.34a1.91,1.91,0,0,0-.28-.82,2.19,2.19,0,0,1-.33-1c0-.67-.1-1-.38-1.25a4.82,4.82,0,0,1-.82-1c-.08-.22-.13-.36-.25-.41,0-.71-.54-1.06-.87-.87a2.3,2.3,0,0,1-.83.05v-.16a9.09,9.09,0,0,0,1.63-1.56c.23-.29.35-.17.58.06l.91.95c0,.47,0,.78.36.75.22.38.33.75.12.91s-.36.29-.36.54a1.36,1.36,0,0,0,.93.92.13.13,0,0,0,.15-.07,1.49,1.49,0,0,0,0-1.08L29.6,20a1.93,1.93,0,0,1,0-.55.83.83,0,0,0-.4-1,11.46,11.46,0,0,1-1.45-1.82c0-.83-.7-1.05-1.15-.15l-.88.62c-.22.15-.37-.09-.37-.32A4.86,4.86,0,0,0,23.72,14c-.44-1.33-1-2.44-1.26-3.47a3.25,3.25,0,0,1,1.71.5c.37.39.84.6.95.32.05-.09-.22-.25-.35-.38a.9.9,0,0,1,.54.34c.37,0,.49-.28.38-.66,0-.31,0-.54-.1-.65l-.31-.17A9.42,9.42,0,0,1,24,8.08a.3.3,0,0,1-.06-.19.86.86,0,0,0-.33-.69l.12-.06V7.06l.26.06-.26-.44c-.15-.55-.65-.63-1.39-.41-.11,0-.24-.09-.37-.24-.47-.45-1-.7-.79-.36,0,0,.18.22,0,.2l-.8-.13c-.18,0-.21,0-.16.12a1.55,1.55,0,0,1,.35.48l-1,.06c-.2,0-.38.1-.57.09-.55-.47-1.24-.12-2,.42l-.1,0V6H17l-.07-.54H17a2.25,2.25,0,0,0-.41-1.71c-.06-.25.19-.22.25-.3a1.21,1.21,0,0,0,.22-.8c-.05-.35-.16-.47-.34-.35h-.2A.77.77,0,0,1,16,2.12a.54.54,0,0,0-.67,0c-1.06.26-1.25,1.08-2.53.53-.15,0-.18,0-.12.16a2.16,2.16,0,0,0,.86.63,1.26,1.26,0,0,1-.73.07,1.49,1.49,0,0,0,1.3.42,1,1,0,0,0,.87,0c.17-.1.19,0,.07.19a2.35,2.35,0,0,0-.61,1.8,1.66,1.66,0,0,0-.25.67c-.49-.13-.91-.22-1.09-.07h-.19a.94.94,0,0,0-1.17-.09L11,6.94c-.27.19-.51.2-.55,0l-.31-.66c0-.47-.16-.69-.48-.72a.81.81,0,0,1-.28-.46l-.22-.28c.07-.25,0-.34-.2-.34a.86.86,0,0,1-.47-.1L7,2.47Zm-1,18.17a3.39,3.39,0,0,1,.39,4.19c-.33.78-.28,1.27.14,1.51a4.5,4.5,0,0,0,.28-1.1c.09-.66.51-.59,1.07-1.16s.42-1.26.36-2.28c-.1-2.2.36-3.47,1-4.19-1.64-.45-2.64.76-3.24,3Zm4.28,8.7c.23.1.23.32-.06.45-.22-.08-.2-.27.06-.45Zm3.75,1.54c-.16.11-.24.25-.15.42l.32.28a.25.25,0,0,0,0-.41.42.42,0,0,1-.13-.29Zm7.65.64c-.24.13-.3.28-.07.43s.25.11.28,0c.29-.06-.12-.22-.21-.47Zm-8.3-4.73c-.52-.54-.58-1,0-1.43a8.52,8.52,0,0,0,1.45-1.6c.41,0,.77-.12,1.18-.17a12.52,12.52,0,0,0,4.44-1.25.39.39,0,0,1,.51.15l1,1.27-.28.1.73.56c-.13.1,0,.18.12.23-.09.14,0,.27.1.25.06.18.19.44-.19.08-.23-.12-.26,0-.07.36l.39.57a1.06,1.06,0,0,0,.34.68l.32.66a1,1,0,0,0,.09.29c0,.25.1.38.31.41a2.22,2.22,0,0,1-.91,1c-.86.47-1.55.28-1.48-.86.05-.61.16-1.13.18-1.76.25-1,0-1.48-.84-1.53a1.79,1.79,0,0,0-1,.19c-.24.16-.57.1-1-.16a4.07,4.07,0,0,0-2-1,1.08,1.08,0,0,1,.2,1.44c.35.17.34.33,0,.49a9.46,9.46,0,0,1-2.8-.43c-.32-.06-.38,0-.16.18.73.29,1.13.73,1.13,1.35a8,8,0,0,0-1.09.08.43.43,0,0,1-.63-.13Zm-6,0A1.86,1.86,0,0,1,9,25.31a12.27,12.27,0,0,0,2.86-1.11c.44-.32.5-.18.18.45l-.5.58a.54.54,0,0,0,0,.89c.5.25.7.48.63.69a1.43,1.43,0,0,0-1.46.32,1.63,1.63,0,0,0-1.19.2,1.13,1.13,0,0,0-.91,0c-.08-.22-.33-.28-.76-.21a1.1,1.1,0,0,0-.55-.28Z"/><path class="cls-1" d="M28.18,21.92s.11,0,.15.1.07.17,0,.19-.1,0-.14-.12-.08-.16-.05-.17Zm.21,1.18s.09.13.09.28-.05.28-.09.28-.09-.13-.09-.28,0-.28.09-.28Zm-.31,1.06.15-.31c.07-.1.13-.1.17,0l.35.33c-.07.07-.23.07-.35.1l.12.19-.12.06,0,.16c-.22-.18-.35-.34-.28-.51Z"/><path class="cls-1" d="M29.24,20.28l.07-.34c0-.09,0-.07.09,0a1,1,0,0,1,.25.54q0,.15-.06.18a.3.3,0,0,1-.24-.1c-.1-.12-.13-.2-.11-.28Zm-.12-1.16c-.15-.18-.12-.28.07-.26-.17-.28,0-.34.19-.05a1.21,1.21,0,0,1,.08.71c0,.08-.12.11-.15,0a1.5,1.5,0,0,0-.19-.4Zm0,1.36s-.09,0-.13,0-.19.33-.1.47l.32.24c.1.09.22.05.16,0L29.25,21c.07,0,.13.1.21.1s.07-.09,0-.14-.15-.17-.08-.24,0-.06,0-.09l-.25-.16Z"/><path class="cls-1" d="M25.93,18.18a2.92,2.92,0,0,1,.17-.85c0-.13.11-.14.18-.07.26-.42.2-.19.09.13l.07.05c.32-.6.19-.12.16.14-.23.3-.39.35-.47.15l-.07.38c-.06.18-.1.21-.13.07Zm-1.7-.45c-.06-.28,0-.32.13-.06a3.57,3.57,0,0,1,.24,1.45c0,.22-.18.23-.19,0a13.37,13.37,0,0,0-.18-1.42Zm-.19-1c.1,0,.23.11.26.27a.28.28,0,0,1-.13.35c-.12,0-.23-.09-.28-.27s0-.32.15-.35Zm-.4.72s.09,0,.14.1,0,.16,0,.18-.09,0-.13-.12-.05-.14,0-.16ZM25,17.6s.09,0,.13.11.05.15,0,.17-.08,0-.11-.11-.05-.16,0-.17Zm2.12-1a.27.27,0,0,1,0-.36.24.24,0,0,1,.33-.05.2.2,0,0,1,.11.15l-.17.06.22.06c.11.1,0,.29-.09.13a.23.23,0,0,0-.29,0c0,.14,0,.17-.11.06Zm-1.55,1.8.09-.57-.1.21c-.09,0-.1-.09-.12-.27s0-.27.12-.23l.07.19.06-.13c.1-.06.12,0,.07.17l0,.63c-.06.09-.1.25-.16,0Zm-2.11-1.56.06,0a0,0,0,0,1,.06,0l.22.28a0,0,0,0,1,0,.05l-.06.05s0,0-.06,0l-.23-.27s0-.05,0-.06ZM24.9,19a.06.06,0,0,1,0,.12s0,0,0-.06,0-.06,0-.06Zm-.85-2.44c0-.62.09-1.11.09-1.57,0-.19.13-.19.13,0a9.68,9.68,0,0,1-.08,1.5c0,.07-.14.2-.14,0Z"/><path class="cls-1" d="M6,28.37c-.11.4-.54.19-.32-.16a6.58,6.58,0,0,0,1.17-2.94c0-.43.29-.62.63-.81a1.89,1.89,0,0,0,.95-1.83c-.16-3.3.76-4.75,2.18-5.32l0,.13c-1.28.77-1.81,2.27-1.82,4.3a8.41,8.41,0,0,0,0,1.42l0-.1A23.17,23.17,0,0,1,9,20.13a3.82,3.82,0,0,1,.66-1.58,3.53,3.53,0,0,1,.25-.35c.12-.12.25-.15.35-.25v.1A4,4,0,0,0,9.16,20,11.66,11.66,0,0,0,9,23.06a1.54,1.54,0,0,1-.1.41l.05,0a1.36,1.36,0,0,0,.14-.63,7.22,7.22,0,0,1,.48-3.66,2.83,2.83,0,0,1,1.48-1.44l0,.11c-.79.54-1.54,1.17-1.68,3.31l0-.05c.15-1.62.73-2.82,1.81-3.26a3.58,3.58,0,0,1,1.34-.13l-.09.07a2.33,2.33,0,0,0-2,.79l.09,0a2,2,0,0,1,2-.69l-.06.12a1.85,1.85,0,0,0-1.47.45v.06a1.85,1.85,0,0,1,1.4-.41c.14,0,.19.13.14.31l-.09.8a8.92,8.92,0,0,1-.24,2.23l-.08.06.08-1.35-.31,1.67c0,.19-.16.16-.13,0,.07-.35.19-.83.26-1.34a.18.18,0,0,0-.15.16,3.92,3.92,0,0,1-.36,1.51,7.13,7.13,0,0,0,.17-1.37l-.08.08-.22,1.27c.16.09-.05.22-.11.06l.08-.7-.06,0L11,22.59l.1-.78-.26.78h-.1l.13-.66-.44,1.2c-.13,0-.15,0,0-.22l.27-.82-.08,0c-.18.6-.31,1-.53,1.15l-.07,0a2.2,2.2,0,0,0,.36-1.07,2.91,2.91,0,0,1-.61,1.19c-.05,0,0-.18.19-.5l.16-.43c-.08-.08-.12-.06-.16.08a2.4,2.4,0,0,1-.4.85l.19-.72,0-.09a2.22,2.22,0,0,1-.55,1l.11.06c.4-.26.94-.18,1.5-.43.11-.05.23-.08.3,0l-.1.27-.1-.16a1,1,0,0,1-.26.51l-.05-.32c-.23.51-.39.79-.41.54l.05-.3a1.09,1.09,0,0,0-.34.63c-.09,0-.1-.19-.07-.44l-.15.54c-.13,0-.16-.12-.09-.44a2.41,2.41,0,0,1-.26.53.54.54,0,0,1,0-.43l-.15.28c0,.21-.06.28-.14.26,0-.3,0-.42,0-.35l-.17.47c-.11.06-.14-.06-.12-.32-.16.09-.12.41-.24.54-.08-.06-.1-.2-.08-.37-.08.25-.15.4-.25.41l0-.48a1.7,1.7,0,0,1-.19.54l-.13-.35-.06.34c-.1.06-.19,0-.25-.25,0,.45-.06.83-.35,1a2,2,0,0,1-.28.78L7.22,26c.1,0,.14,0,.1.25L6.84,27c-.08.09-.16.06-.25,0a2.75,2.75,0,0,1-.46.94,1.65,1.65,0,0,0,.5-.79c0-.12.16,0,.12.26l-.12.1,0,.18H6.5V28L6.37,28c.13.32,0,.52-.35.36Z"/><polygon class="cls-1" points="8.77 17.35 9.34 17.25 9.31 17.36 8.77 17.35 8.77 17.35 8.77 17.35"/><path class="cls-1" d="M3.44,21.81A3.86,3.86,0,0,1,3.89,21c.12-.19.17-.06.15.12a2.28,2.28,0,0,1-.6.65Z"/><path class="cls-1" d="M9.43,17.09A3.29,3.29,0,0,0,6.88,16a3.5,3.5,0,0,0-2.31,2.63c.22-.38.41-.63.64-.7a6.61,6.61,0,0,0-1.07,3.27.8.8,0,0,1-.23.38,1.06,1.06,0,0,0-.45.8,4,4,0,0,0,.32-.41,2.06,2.06,0,0,0,.47-.83c.13-.52.19-1,.29-1.41a4.79,4.79,0,0,1,.55-1.27,4.22,4.22,0,0,1,1.76-1.77v.05a4.83,4.83,0,0,0-1.7,1.79,4.17,4.17,0,0,0-.33.73,3.06,3.06,0,0,0-.27,1,3.38,3.38,0,0,1-.49,1.61c-.24.31-.39.44-.43.59a.66.66,0,0,0-.07.35c.51-1,.74-.88,1-1.57C4.83,20.12,4.63,19,6,17.5h.1a5.3,5.3,0,0,0-1.36,3.07,3.3,3.3,0,0,1-.2.85c-.18.34-.54.6-.65.94l.08,0a4.32,4.32,0,0,0,.66-.86c.42-.82.27-1.92.82-2.8a4.25,4.25,0,0,1,2.1-2.09l.11,0a4.51,4.51,0,0,0-1.91,1.79,3.06,3.06,0,0,0-.45.91A9.36,9.36,0,0,0,5,20.69a2.43,2.43,0,0,1-.55,1.23c-.13.16-.23.23-.33.38a1.92,1.92,0,0,0-.22.55l.07,0c.32-.86.51-.67.75-1a2.25,2.25,0,0,0,.39-.94,5.6,5.6,0,0,1,.56-2.05A5.76,5.76,0,0,1,7,17.13a2,2,0,0,1,.78-.43h.07a7.39,7.39,0,0,0-1,.63,5.41,5.41,0,0,0-1.21,1.78A6.28,6.28,0,0,0,5.26,21c0-.09,0,0,.08,0a6,6,0,0,1,1.5-3.28,2.75,2.75,0,0,1,1.26-.79h.27A2.77,2.77,0,0,0,6.65,18l.08,0a3.35,3.35,0,0,1,1.7-1h.09a2.65,2.65,0,0,0-.95.49l0,.08a4.26,4.26,0,0,1,1.83-.49Z"/><path class="cls-1" d="M3.57,23.48a.7.7,0,0,1-.1-.36c0-.18.15-.16.18-.05s-.08.24-.08.41Z"/><path class="cls-1" d="M5.27,25.05l.15-.16a.22.22,0,0,1,.22,0c0,.07-.18.15-.37.19Z"/><path class="cls-1" d="M5.14,25.5l.19-.2a.33.33,0,0,1,.31-.05c0,.09-.24.2-.5.25Z"/><path class="cls-1" d="M5.15,25.74l.22-.19a.33.33,0,0,1,.33,0c0,.08-.28.16-.55.21Z"/><path class="cls-1" d="M5.21,25.94l.21-.17a.32.32,0,0,1,.3,0c0,.09-.26.16-.51.19Z"/><path class="cls-1" d="M5.31,26.16,5.45,26a.22.22,0,0,1,.22,0c0,.06-.18.13-.36.17Z"/><path class="cls-1" d="M6.06,23.82l.12-.07a.15.15,0,0,1,.16,0s-.15.06-.28.06Z"/><path class="cls-1" d="M5.87,24.07,6.12,24a.34.34,0,0,1,.29.07c-.06.08-.28.09-.54.05Z"/><path class="cls-1" d="M6,23.47l.19-.15a.3.3,0,0,1,.26,0c0,.08-.23.12-.45.15Z"/><path class="cls-1" d="M6.16,23.12l.19-.05a.25.25,0,0,1,.21.11s-.22,0-.4-.06Z"/><path class="cls-1" d="M5.75,27.06,5.89,27a.27.27,0,0,1,.16,0s-.15.07-.3.06Z"/><path class="cls-1" d="M6.16,26.6l-.32,0a.41.41,0,0,0-.25.27c.11,0,.34-.11.57-.32Z"/><path class="cls-1" d="M6,26.46H5.77a.25.25,0,0,0-.22.19A.87.87,0,0,0,6,26.46Z"/><path class="cls-1" d="M7.16,27.66l.15-.31a.4.4,0,0,1,.32-.16c0,.1-.21.3-.47.47Z"/><path class="cls-1" d="M7.82,27.35l.26-.1a.42.42,0,0,1,.31.11h0c0,.09-.19.25-.41.37l.14-.25a.45.45,0,0,1,.1-.09H8.11a1.23,1.23,0,0,1-.31.25l.11-.2a.16.16,0,0,1,0-.06.49.49,0,0,0-.14,0Z"/><path class="cls-1" d="M9.09,27.39c.09,0,.4,0,.35.13h0c0,.09-.2.25-.41.4l.12-.26c0-.05.06-.06.09-.09h-.1a1.7,1.7,0,0,1-.3.25l.09-.22L9,27.55H8.92a1,1,0,0,1-.22.17l.05-.14c.11-.13.18-.12.34-.18Z"/><path class="cls-1" d="M11,27.35c0-.25.19-.4.56-.44s.93,0,.79.22h-.05l-.07.17-.16.3.1-.32,0-.17L12,27.06l-.14.13-.22.25.18-.3L11.9,27l-.09,0-.13.13-.22.25.18-.28.07-.11H11.6l-.09.13-.21.26.15-.31,0-.07-.16,0-.1.24,0-.23a.45.45,0,0,0-.29.28Z"/><path class="cls-1" d="M9.6,27.55h0v0h0l.37-.23c.25-.12.56-.16.51,0,0,0,0,.05-.09.06s0,.16,0,.25l-.1-.22h-.06c0,.12,0,.24,0,.35l-.14-.32a.12.12,0,0,1-.08,0,4.18,4.18,0,0,1,0,.51l-.21-.43v0c0,.09,0,.19-.07.28l0-.29h0a3.22,3.22,0,0,0-.15.41l0-.31v-.07Z"/><path class="cls-1" d="M5.42,17.66c.2-.21.42-.43.63-.63a1.2,1.2,0,0,0-.63.63Z"/><path class="cls-1" d="M8.87,29.11a.68.68,0,0,1,0-.62c.12-.31.27-.39.35-.38s0,.35,0,.64L9,28.55l.07.39-.17-.19-.05.36Z"/><path class="cls-1" d="M11,29.49c0-.06-.07-.09-.09-.09s0,.07,0,.13a.29.29,0,0,0,.1.09s0-.08,0-.13Z"/><path class="cls-1" d="M11,29.75c-.06-.09-.12-.13-.15-.12s0,.09.06.18.12.13.15.12,0-.09-.06-.18Z"/><path class="cls-1" d="M10.82,30a.33.33,0,0,0-.1-.12s0,.09,0,.16.09.12.1.1,0-.07,0-.14Z"/><path class="cls-1" d="M10.69,30.25c0-.12-.1-.21-.13-.19s0,.11,0,.23.09.19.12.19,0-.12,0-.23Z"/><path class="cls-1" d="M9,30.14c.09,0,.15.05.15.08a.24.24,0,0,1-.16,0c-.07,0-.15,0-.13-.06s.07,0,.14,0Z"/><path class="cls-1" d="M8.9,30c.1,0,.18.06.18.09s-.09.05-.19,0S8.71,30,8.71,30s.09,0,.19,0Z"/><path class="cls-1" d="M8.86,29.72c.11,0,.2.07.2.1s-.11.06-.23,0-.22-.06-.21-.1.11,0,.24,0Z"/><path class="cls-1" d="M12.66,27.23c-.08-.29.24-.39.57-.25a1.77,1.77,0,0,0,1,.06,2,2,0,0,1,.64,0c.22.11.2.22,0,.26A2.52,2.52,0,0,0,14,28.62c-.16-.22.17-.77.7-1.46a4.72,4.72,0,0,0-.89.94,3,3,0,0,1,.51-.91,2.34,2.34,0,0,0-.91,2.22,2.26,2.26,0,0,1,.38-2l-.63.66.57-.88-.35.12,0-.14-.22.11V27.1l-.29.23.06-.25c-.1,0-.18,0-.27.15Z"/><path class="cls-1" d="M12.93,28.89a.72.72,0,0,0,.13.58c0,.05.1,0,.07-.12a.82.82,0,0,1-.2-.46Z"/><path class="cls-1" d="M13.66,29s.06.08.06.18,0,.19-.06.19-.06-.09-.06-.19,0-.18.06-.18Z"/><path class="cls-1" d="M14.33,28.23s0,.08,0,.16-.09.14-.12.13,0-.09,0-.16.08-.15.11-.13Z"/><path class="cls-1" d="M14.49,27.88s0,.08,0,.14-.1.12-.12.1a.17.17,0,0,1,.05-.14.17.17,0,0,1,.11-.1Z"/><path class="cls-1" d="M20,28.45c.25.08.28.44.15.86a1.73,1.73,0,0,0-.15-.86Z"/><path class="cls-1" d="M18.71,30.25a.47.47,0,0,0-.09-.22l.05.26,0,0Z"/><path class="cls-1" d="M15.84,25.83H16l.12.19a.35.35,0,0,1-.14,0l-.1-.17Z"/><path class="cls-1" d="M15.61,27.1s.07.09.08.16,0,.12,0,.1a.19.19,0,0,1-.09-.14c0-.08,0-.12,0-.12Z"/><path class="cls-1" d="M15.83,27.08s.05.05.07.12,0,.13,0,.15-.06-.05-.09-.12,0-.15,0-.15Z"/><path class="cls-1" d="M16.09,27s.09.09.1.19,0,.13,0,.13,0,0-.06-.13a.53.53,0,0,1,0-.19Z"/><path class="cls-1" d="M16.34,27a.58.58,0,0,1,.12.19c0,.11,0,.21,0,.21s-.07-.06-.12-.18,0-.2,0-.22Z"/><path class="cls-1" d="M16.6,27s.09.09.12.21,0,.23,0,.25a.4.4,0,0,1-.1-.22c0-.13,0-.24,0-.24Z"/><path class="cls-1" d="M16.9,27s.11.13.13.25,0,.17-.05.19-.07-.05-.1-.18,0-.26,0-.26Z"/><path class="cls-1" d="M17.09,26.94s.08.09.13.22,0,.25,0,.25-.09-.09-.12-.22,0-.25,0-.25Z"/><path class="cls-1" d="M17.39,26.87s.08.13.08.29,0,.29-.08.29-.07-.13-.07-.29,0-.29.07-.29Z"/><path class="cls-1" d="M17.64,27s.06.12.06.25,0,.25-.06.25-.06-.1-.06-.25,0-.25.06-.25Z"/><path class="cls-1" d="M17.89,26.88s.06.13.06.29,0,.3-.06.3-.06-.14-.06-.3,0-.29.06-.29Z"/><path class="cls-1" d="M18.15,26.81c.05,0,.06.14.05.33s-.06.31-.1.31-.05-.15,0-.32,0-.32.08-.32Z"/><path class="cls-1" d="M18.51,26.79s0,.15,0,.32-.07.31-.12.31,0-.14,0-.32.09-.31.12-.31Z"/><path class="cls-1" d="M18.78,26.63s.12.22.09.43-.1.39-.14.38,0-.19,0-.4,0-.42,0-.41Z"/><path class="cls-1" d="M17.29,28.29s0,0,.07.1a.4.4,0,0,1,0,.14s-.06,0-.07-.1,0-.14,0-.14Z"/><path class="cls-1" d="M17.5,28.21s.07.08.1.16,0,.13,0,.15,0,0-.07-.12a.25.25,0,0,1,0-.19Z"/><path class="cls-1" d="M19.47,27.6v.1h0l.13-.09a4.48,4.48,0,0,0,0-.72c-.05.27-.09.5-.15.71Z"/><path class="cls-1" d="M19.33,27.92c-.08.38-.09.5-.24.63a1.3,1.3,0,0,0,0-.45l-.1,0v.05a.8.8,0,0,1-.16.57,5.79,5.79,0,0,1,.07-.6l-.12,0v.21a1.43,1.43,0,0,1-.11.32,1.56,1.56,0,0,0,0-.51.45.45,0,0,0-.11,0v.06s0,.08,0,.08,0,0,0-.07,0,0,0-.06a.12.12,0,0,0-.07,0h0a.14.14,0,0,1,0,.09s-.05-.05-.08-.09l-.07,0c0,.07,0,.1,0,.13s-.08-.05-.09-.12a.5.5,0,0,0-.13,0c0,.06,0,.1,0,.1s0,0-.07-.09h-.12c0,.06,0,.09,0,.11s0,0-.07-.09h0s0,0,0,0,0-.05,0-.07-.06-.18,0-.19.07,0,.11.14a.19.19,0,0,1,0,.1l.1,0a.07.07,0,0,0,0,0c0-.12,0-.22,0-.24s.07.08.1.19,0,.05,0,.08l.11-.05a.82.82,0,0,1,0-.14c0-.06,0-.09,0-.09s.09.09.12.2.05,0,.07,0,0,0,0,0a.38.38,0,0,1,0-.17c0-.05,0-.06,0-.08s.09.11.12.21a.06.06,0,0,0,0,0l.08,0v-.23c0-.06,0-.09,0-.09s0,0,0,.08,0,.13,0,.2h0a.16.16,0,0,0,.09,0v-.12s0-.07,0-.07,0,.07.06.15l.12-.05V27.8s0-.09,0-.09,0,0,0,.06a.37.37,0,0,1,0,.15l.09,0h0c0-.09,0-.18,0-.24s0-.1,0-.1,0,0,0,.07a1.41,1.41,0,0,1,0,.22h0l.09,0a6.45,6.45,0,0,0,.24-1.46l-.09-.16a3.35,3.35,0,0,1-.25,1.33,3.58,3.58,0,0,0,0-1.49h0A3.18,3.18,0,0,1,19,27.45a3.48,3.48,0,0,0-.14-1.57l-.09,0c.13.11.1.58,0,.65-.08-.27,0-.36-.26-.55h-.07a.65.65,0,0,1,.11.54,1.89,1.89,0,0,0-.3-.47h-.14c.2.22.2.26.17.44-.08-.19-.37-.32-.49-.41h-.13c.15.08.35.34.28.43-.1-.12-.32-.24-.41-.4-.06,0,0,0-.09,0s0,.15,0,.25a.53.53,0,0,1-.37-.22s-.09,0-.09,0,.08.15.09.19-.34-.2-.37-.25.06,0-.11,0c0,.05.11.28.13.33s-.25-.28-.28-.31l-.2,0-.14-.22a8.83,8.83,0,0,0,2.27-.15l.82-.16c.28-.08.47.06.53.49l0,.46a1,1,0,0,1,.08,1,1.49,1.49,0,0,0,.51.79c.23.22.26.52,0,1a6,6,0,0,1-.9,1.47s0,0,0,0,0,0-.05.06l.05-.07-.05-.22a.35.35,0,0,1,.08.16l.13-.22c0-.08,0-.15-.05-.24l.09.16c0-.05.08-.11.11-.17s0-.16-.08-.25a.54.54,0,0,1,.1.18,1.64,1.64,0,0,0,.12-.22,1.41,1.41,0,0,0-.06-.22.85.85,0,0,1,.09.14c0-.13.07-.23.09-.32l-1.51.94c.13-.12.28-.22.41-.34v0c0-.09,0-.19-.05-.28a.77.77,0,0,1,.1.23l.11-.09L19,29.63a1.44,1.44,0,0,1,.12.3l.13-.11a4.66,4.66,0,0,0-.06-.47,1.41,1.41,0,0,1,.15.4.58.58,0,0,1,.12-.1c0-.21-.05-.44-.08-.66a1.22,1.22,0,0,1,.18.55l.09-.07c0-.22,0-.48-.09-.72a1.54,1.54,0,0,1,.2.62s0,0,0-.05a7.11,7.11,0,0,0-.09-.84,1.24,1.24,0,0,1,.19.73l.09-.09a4.48,4.48,0,0,0-.29-1.2c-.06.2-.06.28-.12.26,0-.23,0-.33,0-.36a1,1,0,0,1-.21.63l.06-.53Z"/><path class="cls-1" d="M18,28.84h0c0,.09,0,.16-.06.16s0-.09,0-.16Z"/><path class="cls-1" d="M18.17,28.68s0,0,0,.15,0,.17-.07.17-.07-.1,0-.19,0-.13.07-.13Z"/><path class="cls-1" d="M18.37,28.71h0c0,.16,0,.28-.05.26s-.06-.13,0-.26Z"/><path class="cls-1" d="M18.34,28.5s0,0,0,.08H18.3s0-.08,0-.08Z"/><path class="cls-1" d="M18.55,28.48s0,.05,0,.19,0,.24-.1.23-.07-.13,0-.26.06-.16.1-.16Z"/><path class="cls-1" d="M17.54,24.27a3.19,3.19,0,0,1,1.13.72c.06.1,0,.13-.06.09a9.69,9.69,0,0,1-1.07-.81Z"/><path class="cls-1" d="M18.94,25.23c.08,0,.11.08.09.1s-.07,0-.14,0-.11-.1-.09-.12.07,0,.14.05Z"/><path class="cls-1" d="M15.26,25.77l.39,0,.09.15,0,0s.14.47-.1,0c0-.05-.12,0-.19-.07a.47.47,0,0,0-.17-.07Z"/><path class="cls-1" d="M13.43,32.09c.07,0,.14,0,.14.06s0,0-.12,0-.14,0-.14,0,0-.06.12-.06Z"/><path class="cls-1" d="M13.62,32.46c.11,0,.24-.05.26,0s-.06.08-.18.12a.37.37,0,0,1-.26,0s.06-.07.18-.1Z"/><path class="cls-1" d="M13.73,32.57c.13,0,.27,0,.3,0s-.08.09-.21.12-.26,0-.29,0,.06-.09.2-.12Z"/><path class="cls-1" d="M13.91,32.71c.09,0,.17,0,.19,0s0,.06-.13.08-.19,0-.21,0,.06-.06.15-.07Z"/><path class="cls-1" d="M14,32.82c.08,0,.14,0,.14.06s0,0-.12,0-.14,0-.14,0,0-.06.12-.06Z"/><path class="cls-1" d="M15.59,32.24c.12-.05.24-.05.25,0s-.06.13-.17.18-.24,0-.25,0,.05-.11.17-.17Z"/><path class="cls-1" d="M15.39,32.11c.08,0,.17,0,.19,0s-.05.1-.13.13-.18,0-.19,0,0-.1.13-.13Z"/><path class="cls-1" d="M15.2,31.84a.16.16,0,0,1,.14,0c0,.05,0,.09-.1.11s-.13,0-.15,0,0-.08.11-.11Z"/><path class="cls-1" d="M13.07,30.63c0-.08-.08-.08-.11,0a.29.29,0,0,0,.11.3c.12.05.15-.06.09-.11a.32.32,0,0,1-.09-.17Z"/><path class="cls-1" d="M12.87,30.53c0-.09-.06-.14-.12-.06a.3.3,0,0,0,0,.36c.1.13.19,0,.16-.06a.27.27,0,0,1,0-.24Z"/><path class="cls-1" d="M23.09,24c-.09.13-.12.63.32,1.23.16.21,0,.35.2.38s.15-.09.17-.22l-.15-.07h.2l-.22-.15c.08,0,.25,0,.24,0s-.22-.1-.32-.15l.25-.06c0-.07-.14-.13-.37-.2l.23-.06-.26-.16.21-.06-.33-.16.18-.09-.19-.06.17-.08c-.14-.06-.2-.19-.33-.05Z"/><path class="cls-1" d="M22.74,24.33a.65.65,0,0,1-.06-.5c.1-.26.2-.33.29-.33.18.19-.12.31-.17.45s-.06.13-.06.38Z"/><path class="cls-1" d="M22.66,23.42c.08-.07.16-.11.19-.08s0,.1-.08.19-.17.13-.19.1,0-.12.08-.21Z"/><path class="cls-1" d="M22.59,24.36a.11.11,0,0,1,.09.1.1.1,0,0,1-.09.09.09.09,0,0,1-.1-.09.1.1,0,0,1,.1-.1Z"/><path class="cls-1" d="M22.78,24.65c.06,0,.07.09,0,.17s-.09.11-.13.08-.08-.08,0-.16.09-.11.13-.09Z"/><path class="cls-1" d="M23,25c.07,0,.08.1,0,.19a.19.19,0,0,1-.21.1c-.08,0-.09-.11-.05-.19A.23.23,0,0,1,23,25Z"/><path class="cls-1" d="M23.21,25.3c0,.06,0,.12-.06.15A.17.17,0,0,1,23,25.4s0-.1.05-.13a.18.18,0,0,1,.2,0Z"/><path class="cls-1" d="M24.26,25.47a.08.08,0,0,0,0-.13c-.08,0-.12,0-.17-.09a.22.22,0,0,1,.18-.3c.12,0,.16,0,.13.11l-.07.06c.13.05.22.09.26.16s-.12,0-.13.08c.25-.05.23.35,0,.28s-.21,0-.14.26.26.36.25.06.47-.18.52.14L24.87,26c.05.23.24.13.27.34H25a1.08,1.08,0,0,1,.41.49c-.21,0-.22-.25-.41-.25.25.33.54.26.68.6a1.46,1.46,0,0,1-.73-.44c.25.35.41.64.35.79-.36-.16-.44-.7-.58-.87,0,.28.2.44.13.75a1.33,1.33,0,0,1-.22-.89c.15,0,.21-.08.21-.32s-.17-.25-.14,0-.13.24-.52,0c-.06.06,0,.13.25.26l0,.22.12-.19,0,.62c0,.16-.06.13-.1,0l0-.31c0,.22,0,.32-.11.31l-.06-.57-.16.2,0-.32-.15.12v-.4c-.1.06-.22,0-.33-.16a.41.41,0,0,0,.39-.06c-.07-.29.06-.44.31-.47Z"/><path class="cls-1" d="M20.77,27.26a.33.33,0,0,0-.08-.35c-.06-.06-.11-.07-.09,0s.15.23.17.35Z"/><path class="cls-1" d="M20.54,26.37c.19.1.28.11.38.39,0,.11,0,.18-.06.09s-.17-.35-.32-.48Z"/><path class="cls-1" d="M20.57,25.8a.83.83,0,0,1,.47.61c0,.16,0,.25-.1.12s-.19-.51-.37-.73Z"/><path class="cls-1" d="M20.69,25.39a.77.77,0,0,1,.48.71c0,.16-.07.27-.12.12a2.14,2.14,0,0,0-.36-.83Z"/><path class="cls-1" d="M20.8,25.17a.84.84,0,0,1,.5.54c0,.15,0,.22-.1.1a1.59,1.59,0,0,0-.4-.64Z"/><path class="cls-1" d="M22.53,32.41a.4.4,0,0,1,.54-.17c.12,0,.11.17.11.28-.08-.08-.15-.16-.22-.08-.21-.16-.28-.07-.43,0Z"/><path class="cls-1" d="M21.74,32.47c.06,0,.1,0,.1.09s0,.07-.1.07-.09,0-.09-.07a.09.09,0,0,1,.09-.09Z"/><path class="cls-1" d="M21.23,32.47s.07.05.1.12,0,.15,0,.15-.08,0-.11-.12,0-.15,0-.15Z"/><path class="cls-1" d="M21.4,32.44s.05,0,.06.09,0,.09,0,.1-.05,0-.06-.08,0-.09,0-.11Z"/><path class="cls-1" d="M21.45,30.55s0,0,0,.05-.12.1-.13.07,0-.09,0-.14l.06-.06a.13.13,0,0,1,0,0,.13.13,0,0,0,0,0c-.06.07-.14.11-.16.08s0-.1,0-.17a.12.12,0,0,1,.06-.06s0,0,0,0h0c-.06.07-.13.1-.16.09s0-.1,0-.18a0,0,0,0,1,0,0l0-.05c-.05,0-.08,0-.11,0s0-.07.05-.13-.05-.11,0-.14.13,0,.22.22,0,.11,0,.16.12.08.15.13.09.29.07.31,0,0-.07-.14Z"/><path class="cls-1" d="M21.45,30.7s0,.12-.06.21-.15.13-.18.1,0-.12.05-.21.16-.13.19-.1Z"/><path class="cls-1" d="M23.25,29.84a.34.34,0,0,1,0,.17c0,.09-.09.15-.12.13a.35.35,0,0,1,0-.17c.05-.09.09-.15.12-.13Z"/><path class="cls-1" d="M23,29.75s0,.13,0,.26-.15.22-.19.21,0-.13,0-.27.15-.22.19-.2Z"/><path class="cls-1" d="M22.52,29.54s0,.11,0,.22-.1.18-.13.17,0-.11,0-.21.1-.19.13-.18Z"/><path class="cls-1" d="M8.32,4.8a.36.36,0,0,1,.32-.32L9,4.54c.12.09.1.12,0,.13s-.41,0-.48.19S8.3,5,8.32,4.8Z"/><path class="cls-1" d="M9.34,5.42a.08.08,0,0,1,.07.08.09.09,0,0,1-.07.09.08.08,0,0,1-.07-.09.07.07,0,0,1,.07-.08Z"/><path class="cls-1" d="M8.27,5.12c-.1.14-.07.28.1.46l.24.29c.2.15.31.12.28-.1s0-.21.14-.21a.24.24,0,0,0,.19-.13c0-.12,0-.17-.08-.2a1.43,1.43,0,0,1-.49.22A1.32,1.32,0,0,0,9,5.17a.16.16,0,0,1,.19,0A.18.18,0,0,0,9.06,5a.93.93,0,0,0-.6.35A.6.6,0,0,1,9,4.92.19.19,0,0,0,9,4.73a.63.63,0,0,0-.46.13l-.22.26Z"/><path class="cls-1" d="M9.46,6.94a6.28,6.28,0,0,1,1.21,1.65v.55l-.17-.62c0,.43,0,.7-.05.62l-.14-.88-.11.38-.08-.54C10,8,10,8.37,10,8.84c-.13-.13-.11-.51-.1-.93l-.15.41a1.75,1.75,0,0,1,0-.79c-.08-.08-.14.07-.17.51a1.6,1.6,0,0,1,0-.81l-.1.22,0-.51Z"/><path class="cls-1" d="M13,2.81a1,1,0,0,0,.6.15l0,.11a2,2,0,0,0,1.08-.41.26.26,0,0,0-.16,0c-.26.14-.23,0,.27-.2.07,0,.13,0,.24,0l.33-.07c-.27.23-.53.47-.82.69a1.33,1.33,0,0,1-1.12.17,2.64,2.64,0,0,1-.55-.34c0-.07-.09-.11.11-.07Z"/><path class="cls-1" d="M15.07,2.88a.06.06,0,1,1,0,.12.06.06,0,0,1,0-.12Z"/><path class="cls-1" d="M15.5,3.76s.06-.06.09,0a.06.06,0,0,1,0,.09c0,.05-.07.06-.09.05s0-.06,0-.11Z"/><path class="cls-1" d="M16.54,3.37c.05,0,.09,0,.11,0a.08.08,0,0,1-.06.1c-.05,0-.09,0-.1,0s0-.07.05-.1Z"/><path class="cls-1" d="M16.31,3.21s.09,0,.1,0,0,.07,0,.1-.09,0-.11,0a.1.1,0,0,1,0-.1Z"/><path class="cls-1" d="M14.71,3.51a.1.1,0,0,1,.11,0,.09.09,0,0,1-.08.08.09.09,0,0,1-.1,0s0-.06.07-.08Z"/><path class="cls-1" d="M15.28,4.6c.06,0,.14,0,.15,0s0,.07-.09.1-.13,0-.14,0,0-.07.08-.08Z"/><path class="cls-1" d="M13.41,3.6a2,2,0,0,0,.67-.2l.34-.16c.16-.08.19-.06.06.07a3.58,3.58,0,0,1-.47.32.69.69,0,0,1-.64.12c-.16,0-.11-.13,0-.15Z"/><path class="cls-1" d="M14.44,3.46A1.6,1.6,0,0,1,15,3.12,1.93,1.93,0,0,1,15.75,3c.18-.16.34.06.15.23a.74.74,0,0,1-.21.13,1.61,1.61,0,0,1-.6.27c-.26.07-.29,0-.07-.11a1.53,1.53,0,0,1,.21-.14,1,1,0,0,1,.49-.15c-.25-.16-.73.09-1.21.32-.15.08-.19,0-.07-.08Z"/><path class="cls-1" d="M15.75,2.69a1.06,1.06,0,0,1,.31,0c.19.06.28.16.29.29a.32.32,0,0,1-.19.24c0-.24-.13-.37-.26-.41a.39.39,0,0,0-.15,0V2.69Z"/><path class="cls-1" d="M15.53,2.75l.14-.06v.09l-.12,0c-.06,0-.12,0,0-.06Z"/><path class="cls-1" d="M15.27,2.61a.83.83,0,0,1,.45-.24,2.65,2.65,0,0,1,.56,0c.37.13.22.25,0,.16a.58.58,0,0,0-.53,0c0,.14-.27,0-.41.13s-.12,0-.06-.07Z"/><path class="cls-1" d="M16.34,2.65c.12,0,.2,0,.22.12a.31.31,0,0,1-.1.29c0-.28-.09-.25-.12-.41Z"/><path class="cls-1" d="M16.66,2.58a.54.54,0,0,1,0,.35l-.12.22c0,.1,0,.13.08.1a.36.36,0,0,0,.17-.32c0-.22,0-.32.09-.4-.13-.22-.26-.19-.22.05Z"/><path class="cls-1" d="M15.72,3.87c0,.14.34.17.38,0s-.05-.31,0-.48a.47.47,0,0,0-.37.47Z"/><path class="cls-1" d="M15.64,4.25A.33.33,0,0,1,16,4.08c.13,0,.21,0,.21.17a1.67,1.67,0,0,1,0,.39c0,.12-.06.1-.2.12s-.22-.08-.4,0c.1-.25,0-.35.05-.54Z"/><path class="cls-1" d="M16.27,3.67c-.08-.11,0-.16.08-.07a.38.38,0,0,1,.15.28c0,.1-.1.19-.18.1s0-.17-.05-.31Z"/><path class="cls-1" d="M16.34,4.23c-.05-.15,0-.16.19-.09s.13.18.07.24a.37.37,0,0,1,0,.47c-.08-.06-.16,0-.22-.12s-.06,0,0-.25a.43.43,0,0,0,0-.25Z"/><path class="cls-1" d="M16.54,5.43c.08,0,.12.05.12.09s-.06.07-.12.06a.1.1,0,0,1-.11-.09s.06-.06.11-.06Z"/><path class="cls-1" d="M15.64,5.3c.07,0,.13,0,.11.09a.1.1,0,0,1-.13.07c-.07,0-.13,0-.12-.09s.06-.08.14-.07Z"/><path class="cls-1" d="M15.84,6.44a.25.25,0,0,1,.24,0s0,.08,0,.1a.22.22,0,0,1-.16,0s0-.07-.06-.1Zm-.17-.1a.94.94,0,0,1,.41,0c.23.06.24.15,0,.28a1.27,1.27,0,0,1-.42,0c0-.07.09-.1,0-.23Zm1.08-1.2a.83.83,0,0,0-.63-.29,2.34,2.34,0,0,0-.78.1,1,1,0,0,0-.19.79l.13,0-.11.09h.16l-.1.14.08,0-.07.19.09.06-.05.12h.12l0,.12h.09l0,.12.09,0a.82.82,0,0,0,.28.23.38.38,0,0,0,.28,0,2.4,2.4,0,0,0,.36-.41s.06-.1.06-.23a.21.21,0,0,0,.12-.22l.07-.1V5.64a.45.45,0,0,1-.22,0l-.2-.09L16.21,6c0,.09-.05.22-.15.18l-.25-.12c-.06,0,0-.12,0-.15h.09v-.4a.5.5,0,0,1-.46,0,.32.32,0,0,0-.17,0,.47.47,0,0,1,.16-.2l-.09-.14.13,0c.21,0,.31,0,.37,0a.67.67,0,0,0,.16.14l0-.11c0-.11.13-.14.26-.1l0,.29.47-.14V5.14Z"/><path class="cls-1" d="M15.88,6s0,0,0,0,0,0,0,0,0,0,0,0a0,0,0,0,1,0,0Z"/><path class="cls-1" d="M16.12,5.31s0,0,0-.1.11-.12.11,0a.3.3,0,0,1,0,.14Z"/><path class="cls-1" d="M16,6c0-.19,0-.35.07-.58h.11a5.62,5.62,0,0,1-.09.61c0,.06-.06,0-.09,0Z"/><path class="cls-1" d="M14.9,5c0-.12.11-.1.12,0a.53.53,0,0,1-.1.47c-.07,0-.18,0-.12-.09A.44.44,0,0,0,14.9,5Z"/><path class="cls-1" d="M14.82,5.86c0-.14,0-.18.08,0A2.3,2.3,0,0,0,15.58,7c.16.13,0,.25-.16.12a2,2,0,0,1-.6-1.23Z"/><path class="cls-1" d="M16.28,7.06a.37.37,0,0,1,.16-.34c.09-.06.12,0,.07.1s-.16.1-.23.24Z"/><path class="cls-1" d="M12.46,8.68a.45.45,0,0,1,.09-.25.34.34,0,0,1-.11-.07,2.21,2.21,0,0,1-.32.48,1.89,1.89,0,0,1,.43-.77,2.56,2.56,0,0,1-.09.26l.1.09a.28.28,0,0,0,.07-.09.57.57,0,0,1,0,.13h0v0a.62.62,0,0,1-.15.19Z"/><path class="cls-1" d="M12.28,9a.39.39,0,0,1,.11-.21.31.31,0,0,1-.11.21Z"/><path class="cls-1" d="M13.06,9.06c0-.06,0-.11,0-.16h0l0,0,0-.06h0l.09-.1a.43.43,0,0,1-.19.35Z"/><path class="cls-1" d="M13,9.49c0-.15,0-.25.18-.34,0,.22,0,.28-.18.34Z"/><path class="cls-1" d="M13.38,9.36a1.61,1.61,0,0,0,.12-1c.16.41.13.53-.12,1Z"/><path class="cls-1" d="M15.77,10.69a3.52,3.52,0,0,0,.09-.91l-.08,0a2.28,2.28,0,0,1-.14.58,1.84,1.84,0,0,0,0-.57.11.11,0,0,1-.08,0,3.25,3.25,0,0,1-.12.47,2.42,2.42,0,0,0,0-.45H15.4a4.87,4.87,0,0,1-.09.66c0-.22,0-.44,0-.64h-.15a5.67,5.67,0,0,1-.07.74c0-.26,0-.51,0-.76l-.15,0a6.36,6.36,0,0,1-.07.79c0-.27,0-.54,0-.8l-.13-.05a5.09,5.09,0,0,1-.12.74c0-.27,0-.5,0-.76l-.13,0c0,.29,0,.56-.06.87a3.77,3.77,0,0,1-.05-.91.39.39,0,0,1-.11-.06,3.14,3.14,0,0,0-.08,1,1.84,1.84,0,0,1,0-1L14,9.53a3,3,0,0,1-.2.4A3,3,0,0,0,14,9.5l-.14-.09a2,2,0,0,1-.27.65,3.88,3.88,0,0,0,.22-1.47,2.51,2.51,0,0,1,.07.56l.17.07c0-.25,0-.48,0-.76a2,2,0,0,1,.06.78.65.65,0,0,0,.13,0,.88.88,0,0,1,.07-.12l0,.14h.1c0-.09,0-.19.09-.31,0,.12,0,.22,0,.34l.12,0c0-.08,0-.17,0-.25a1.27,1.27,0,0,1,0,.26h.15V9.05a2.83,2.83,0,0,1,.07.33.55.55,0,0,0,.18,0c0-.12,0-.22,0-.35,0,.13,0,.25.07.35h.15V8.87a2.5,2.5,0,0,1,.1.51h.13c0-.12,0-.25,0-.38a1.45,1.45,0,0,1,.12.37l.09,0c0-.13-.05-.26-.06-.41a2.87,2.87,0,0,1,.13.38h.09c0-.21-.05-.43-.09-.68a2.32,2.32,0,0,1,0,2.07Z"/><path class="cls-1" d="M16.18,9.72l.06.13.2-.19c.06-.07.12-.06.16.05l0-.24c.07,0,.13,0,.19.06a.24.24,0,0,0,0-.22l0-.29c-.12-.19-.2-.31-.34-.35a.47.47,0,0,1,0,.41.44.44,0,0,0-.25-.4.5.5,0,0,1,.06.35.6.6,0,0,0-.14-.13l0,.18-.09.06,0,.58Z"/><path class="cls-1" d="M17.52,8.68c0,.05,0,.07,0,.07s-.06,0-.11-.07Z"/><path class="cls-1" d="M17.44,8.43h0a.62.62,0,0,1,.06.18h-.17l-.08-.15s0,0,0,0Z"/><path class="cls-1" d="M17.17,8.15s.15.09.22.22H17.2c-.06-.11-.07-.22,0-.22Z"/><path class="cls-1" d="M17.09,8.67s.07,0,.13.13.06.16,0,.17-.07,0-.12-.13-.07-.17-.05-.17Z"/><path class="cls-1" d="M16.81,8.61s.09.06.16.16.09.2.06.22-.09-.06-.16-.16-.09-.21-.06-.22Z"/><path class="cls-1" d="M12.08,8a.46.46,0,0,0,.1.07L12.25,8a.27.27,0,0,1-.11.2.66.66,0,0,1,0-.11L12.08,8Z"/><polygon class="cls-1" points="10.78 22.72 10.72 22.91 10.66 22.88 10.69 22.72 10.78 22.72 10.78 22.72 10.78 22.72"/><path class="cls-1" d="M6.24,29.18c.19-.07.23,0,.29.23s.26.27.26.38c.34.28.28.4-.17.35a.31.31,0,0,1-.24-.35l-.14-.61Z"/><path class="cls-1" d="M6.31,30.31a.46.46,0,0,0,.06.57.37.37,0,0,0,.29.13l-.06-.16.18.11c0-.08-.07-.19-.24-.3l.22.06c0-.12-.1-.22-.27-.31h.14c-.07-.21-.2-.27-.32-.1Z"/><path class="cls-1" d="M6.88,30.41c.06,0,.1.06.12.14s0,.17-.08.18-.1-.06-.11-.15,0-.17.07-.17Z"/><path class="cls-1" d="M9.85,20.38A2.88,2.88,0,0,1,10.32,19a11.85,11.85,0,0,0-.47,1.38Z"/><path class="cls-1" d="M10.91,17.66c-.18.07-.19-.08-.06-.18a1.4,1.4,0,0,1,.94-.32h.61c.23,0,.21.23,0,.22H12a1.85,1.85,0,0,0-1,.28Z"/><path class="cls-1" d="M12.24,17.44c.16,0,.29,0,.29.06s-.13.05-.29.05-.29,0-.29-.05.13-.06.29-.06Z"/><path class="cls-1" d="M13.44,14.33s-.1.08-.21.21a1,1,0,0,0-.13.23s.11-.07.19-.2a.58.58,0,0,0,.15-.24Z"/><path class="cls-1" d="M12.42,15.34c-.08.13-.05.21.1.27a2.24,2.24,0,0,0,1.73-.34l.71-.34c.13-.16.11-.2-.07-.14l-.35.17.09-.29a1.49,1.49,0,0,0-.4.45L14.17,15a.52.52,0,0,0-.19.3l-.07-.16a.66.66,0,0,0-.18.19l0-.2c-.06,0-.14.06-.26.29l.06-.22c-.05,0-.12.05-.22.27l.23-.71c-.12,0-.28.28-.45.75-.08,0-.1,0-.09-.07l.26-.52c-.13,0-.27.18-.45.52l.2-.59-.38.5v-.19a.55.55,0,0,0-.24.2Z"/><path class="cls-1" d="M12.49,24.87c-.06-.05,0-.11.07-.08l.18.16s-.06.11-.11.09l-.14-.17Z"/><path class="cls-1" d="M12.62,24.76c0-.05,0-.11.07-.08l.15.15s0,.1-.07.07l-.15-.14Z"/><path class="cls-1" d="M12.71,24.63c-.06-.06,0-.14.09-.09l.17.17c0,.05-.07.12-.1.08l-.16-.16Z"/><path class="cls-1" d="M12.78,24.41c-.06-.08.07-.18.15-.14l.26.27c.07.07-.1.19-.15.13l-.26-.26Z"/><path class="cls-1" d="M13.06,24.17c-.09-.09,0-.2.1-.13l.32.28c.09.07,0,.2-.11.14l-.31-.29Z"/><path class="cls-1" d="M13.25,24c-.07-.07,0-.17.09-.11l.28.23c.07.08,0,.18-.11.13L13.25,24Z"/><path class="cls-1" d="M13.5,23.94c-.06-.06,0-.15.07-.11l.24.21c0,.06-.05.16-.09.12l-.22-.22Z"/><path class="cls-1" d="M12.33,22.28c0-.07-.12,0-.13,0l0,.26c0,.06.13,0,.13,0l0-.27Z"/><path class="cls-1" d="M12,22.65c0-.12-.14-.06-.14,0l0,.21c0,.1.15,0,.14,0l0-.2Z"/><path class="cls-1" d="M11.51,22.93c0-.11-.09-.08-.09,0l0,.19c0,.1.11.06.11,0v-.19Z"/><path class="cls-1" d="M12.06,22.56a.07.07,0,0,1,.06.07c0,.05,0,.08-.06.08a.08.08,0,0,1,0-.08.08.08,0,0,1,0-.07Z"/><path class="cls-1" d="M11.65,22.82a.09.09,0,0,1,.08.09c0,.06,0,.09-.08.09s-.07,0-.07-.09,0-.09.07-.09Z"/><path class="cls-1" d="M11.29,23.09c0-.09-.12-.09-.12,0v.18c0,.09.13.07.13,0v-.17Z"/><path class="cls-1" d="M14.46,12s.08,0,.08.1,0,.12-.08.12-.05-.06-.05-.12,0-.1.05-.1Z"/><path class="cls-1" d="M14.64,12.3s0-.08,0-.16,0-.18,0-.18.06.07.06.18,0,.16-.06.16Z"/><path class="cls-1" d="M14.92,12.22c.07,0,.13,0,.13.06s-.06.05-.13.05-.12,0-.12-.05.06-.06.12-.06Z"/><path class="cls-1" d="M15.07,12.47a.06.06,0,0,1,0,.06c0,.05,0,.08,0,.08s-.05,0-.05-.08a.06.06,0,0,1,.05-.06Z"/><path class="cls-1" d="M15.3,12.46h.54c.18,0,.21.09.09.25.06.29-.31.48-.29,0,0-.09-.14-.13-.34-.13s-.09-.12,0-.13Z"/><path class="cls-1" d="M14.45,15.9a.07.07,0,0,1,.07.07.08.08,0,0,1-.07.09s-.06,0-.06-.09a.07.07,0,0,1,.06-.07Z"/><path class="cls-1" d="M14.22,16s.08,0,.08.11a.09.09,0,0,1-.08.08.08.08,0,0,1-.09-.08c0-.06,0-.11.09-.11Z"/><path class="cls-1" d="M14.51,16.13c.19-.13.38-.22.41-.17s-.1.19-.31.33-.38.21-.42.17.11-.19.32-.33Z"/><path class="cls-1" d="M15.21,15.68a.65.65,0,0,1,.25-.15s-.06.14-.18.24-.23.16-.24.13.05-.13.17-.22Z"/><path class="cls-1" d="M14.76,16.79a2.59,2.59,0,0,1,.14-.29h0a.59.59,0,0,1,.34-.4h0a.93.93,0,0,1,.22-.14,1.32,1.32,0,0,1-.12.2l.05,0a.87.87,0,0,1,.38-.23,1.94,1.94,0,0,1-.28.29l.09.06a1.37,1.37,0,0,1,.42-.26c-.1.1-.2.22-.32.32l.1.06a1,1,0,0,1,.44-.21l-.2.18a2.84,2.84,0,0,1,.36,0c-.19.09-.3.12-.45.18l.12.07a.83.83,0,0,1,.44-.13l-.34.19.1.06a.82.82,0,0,1,.43-.09,3.31,3.31,0,0,0-.33.15l.06,0a1,1,0,0,1,.4-.09l-.31.15.09,0a.63.63,0,0,1,.33,0,1.53,1.53,0,0,0-.26.08l.31.19-.06,0L16.44,17s0,0-.06,0,0,0,0,0l-.12,0-.2.1a.38.38,0,0,1,.12-.13l-.12,0a2,2,0,0,1-.21.11.88.88,0,0,1,.12-.15l-.12,0-.24.16a.67.67,0,0,1,.14-.19l-.16-.06-.22.19a.53.53,0,0,1,.12-.22l-.15-.06-.25.22a1.5,1.5,0,0,1,.15-.25L15,16.54a1.67,1.67,0,0,1-.28.25Z"/><path class="cls-1" d="M12.44,22.44a1.91,1.91,0,0,1,.11-.73c0-.1.13-.16.3-.17l2-.3c.1,0,.11.05.1.18a1.38,1.38,0,0,1-.15.51c-.07.06-.09-.19-.07-.57-.15.35-.09.72-.32.78-.11-.16.06-.47.08-.71-.21.21-.14.46-.33.72-.08,0-.06-.23,0-.63a2,2,0,0,1-.29.63,1.07,1.07,0,0,1,0-.54,1.38,1.38,0,0,1-.28.69,2.2,2.2,0,0,1,0-.63l0-.05a1.53,1.53,0,0,1-.21.69.87.87,0,0,1,0-.67h-.08c-.06.19-.09.35-.18.41s-.18-.15-.18-.37a1.27,1.27,0,0,1-.41.76Zm3.05-4.78c0-.06.12-.05.1,0a12.77,12.77,0,0,0-.2,2.22h-.05a8.2,8.2,0,0,1,.15-2.25Zm.22,0c-.1.73-.1,1.17-.18,1.93l.06.13a11.36,11.36,0,0,1,.25-2c0-.11-.07-.14-.13,0Zm.16.46.09-.44c.1-.05.14,0,.13.09l-.19.37,0,0Zm-2.42-.6h.05a8.65,8.65,0,0,0-.13,2.93,6.64,6.64,0,0,1,.36-3.12l0,.1a6.09,6.09,0,0,0-.14,3,5.47,5.47,0,0,1,.25-2.87v.15a6,6,0,0,0,0,2.63l.06,0A8.44,8.44,0,0,1,14,17.48l.1,0a7.91,7.91,0,0,0-.06,2.81l.06-.06a8,8,0,0,1,.08-2.7l.08,0a8.24,8.24,0,0,0,0,2.71l.06,0a8,8,0,0,1,.11-2.72l.05.06a10.92,10.92,0,0,0,0,2.62l.06,0a11.49,11.49,0,0,1,0-2.5l.07-.09a9.91,9.91,0,0,0,0,2.6h.06a10.62,10.62,0,0,1,0-2.7l.06,0a18.44,18.44,0,0,0,0,2.68l.06,0a9.9,9.9,0,0,1,.12-2.63c.12-.05.12.1,0,.26a9.8,9.8,0,0,0,0,2.36h.08a9.5,9.5,0,0,1,.12-2.6c.07-.08.15,0,.06.19a10.06,10.06,0,0,0-.07,2.41h.1c.11.05.13.09,0,.14a17.83,17.83,0,0,1-2.06.32c-.13,0-.18-.06-.18-.25a9.33,9.33,0,0,1,.32-2.86Zm-.33-.3a6.23,6.23,0,0,0-.51,2.15,4.71,4.71,0,0,0,0,1.59c.06.3.19.4.32.39L15.09,21c.17,0,.33-.16.25-.3l-.08-.18-.08.25-.11-.21-.09.24-.13-.29-.11.35-.13-.28-.07.29-.08-.25-.08.31-.11-.28-.08.34-.12-.32-.09.23-.1-.19-.07.18-.11-.15a.39.39,0,0,0-.3,0l-.05.07-.06-.07-.49-.1.2-.1c0-.08-.07-.11-.2-.09l.22-.16-.24,0,.22-.13c0-.06-.06-.12-.23-.19l.23-.07v-.06l-.23,0,.25-.12c0-.06,0-.1-.21-.16l.21-.06a.25.25,0,0,0-.18-.19l.18-.06-.18-.13.22-.09c0-.07,0-.1-.16-.16l.23-.1s-.07-.12-.22-.16l.22-.07L13,18.36l.2-.09L13,18.21l.19-.11c0-.05,0-.09-.19-.11l.22-.08v-.09l-.2,0,.1-.09-.13-.1.31-.08,0-.06-.22-.05.17-.11a.16.16,0,0,0-.17-.11Z"/><path class="cls-1" d="M16.32,22.5c-.07-.09-.05-.16.05-.22l.53,0a.34.34,0,0,1,.27.17l.25.28c.1.13,0,.24-.09.21a6.24,6.24,0,0,1-1-.4Zm-.11,0c-.12-.06-.18,0-.11.08a2.43,2.43,0,0,0,.62.4,1.34,1.34,0,0,0,.67.13c.16,0,.24-.1,0-.14a5.34,5.34,0,0,1-1.21-.47Zm-.94-.88c-.16-.1,0-.31.13-.22l.24.23c.13.12,0,.22-.08.16l-.29-.17Zm-.18.28c-.16-.11,0-.34.14-.24l.44.32c.13.11,0,.28-.11.21l-.47-.29Zm1.06-3.62c-.12.09-.16.19.07.18-.16.14-.17.25,0,.29-.3.37-.3.47,0,.31-.32.41-.28.46-.06.39-.27.34-.23.38-.14.4-.19.26-.19.39,0,.38a.44.44,0,0,0-.27.41c-.06.23-.69.5-.17.72.17.08.3.3.4.68,0,.21.13.22.31.15a2.13,2.13,0,0,1,.44-.07c.27,0,.29-.28,0-.33,0-.11-.07-.17-.23-.1.13-.22,0-.16-.09-.19.09,0,.07-.14-.16,0l0-.08a.24.24,0,0,0,.19-.2l-.4.13c.12-.1.18-.18.17-.25l-.28.06c.29-.2.41-.35.39-.42l-.31.08c.22-.17.37-.32.36-.41l-.27.11c0-.09.12-.18.34-.24s.26-.2.23-.36l-.39.19a3.21,3.21,0,0,0,.66-.74c0-.1-.35.12-.78.47v-.07a3.24,3.24,0,0,0,.95-1l-.77.6.7-.83c0-.1-.25,0-.64.42l0-.08.37-.4a1.38,1.38,0,0,0,.57-.61c.07-.2-.17.05-.55.39-.09.09-.19.13-.3.23l.9-.93v-.12c-.09-.09-.66.59-1.14.82Z"/><path class="cls-1" d="M18.11,20.32h0c.11-.12.11-.18,0-.21h0v.22Zm-.13.06s0,0,0,0v-.23H18l0,.25Zm-.18.06.08,0v-.27l-.14,0,.06.27Zm-.16,0h0v-.29l-.07,0,0,.26Zm.68-.63c.05,0,.1,0,.11,0s0,.07-.09.09-.1,0-.11,0,0-.06.09-.08Zm.05.19a0,0,0,0,1,0,0s0,.05,0,.05,0,0,0-.05a0,0,0,0,1,0,0Zm-.58-.3a.06.06,0,0,1,.07.07.07.07,0,0,1-.07.07.07.07,0,0,1-.06-.07s0-.07.06-.07Zm-.56.38c-.12.07-.12.13,0,.17h.05c0,.06,0,.1.06.1s.06,0,.06-.1v0l.13,0v.29a.49.49,0,0,1-.14,0s0,0-.05,0a.06.06,0,0,0-.06.06l0,0s0,0,.06.06l1-.22c.29,0,.37-.22.29-.57.05-.11,0-.16-.09-.14l-.22,0,.14-.09c.17-.09.17-.13,0-.13l-.31-.05.25,0c.07,0,.1-.1,0-.15l-.26,0,.2,0c.14-.1.06-.18-.19-.21.09-.1.08-.17,0-.17s-.17-.18-.13,0l.06,1A.17.17,0,0,1,18,20l-.72.15Zm.51-.77c0-.14.14,0,.14.06l-.05.24s-.06,0-.1-.08v-.22Zm1.07.27a.37.37,0,0,1,.13.35c0,.15-.13.25-.13.15a.94.94,0,0,0-.1-.46c-.06-.07,0-.1.1,0ZM19,20s.08.06.09.13,0,.15,0,.15-.06,0-.07-.12A.25.25,0,0,1,19,20Zm0,.9s0,0,0,0,0,.06,0,.06A.06.06,0,0,1,19,21s0,0,.06,0Zm-.08.22s0,0,0,.1,0,.1,0,.1,0,0,0-.1,0-.1,0-.1Zm.05-.6c0-.17.19-.12.12,0l-.09.2H19l0-.24Zm-2.17.55a.75.75,0,0,1,.41-.35,7.32,7.32,0,0,0,1.47-.35c.14-.1.2-.07.19.09a2,2,0,0,1-.24.95v-.79h-.06a1.78,1.78,0,0,1-.2.81l0-.73h-.08l-.16.71.05-.63c0-.08,0-.1-.08-.06-.1.74-.23,1-.38,1.15a2.43,2.43,0,0,0,.12-1.07l0,0a3.56,3.56,0,0,1-.24,1c-.14-.22.13-.6.07-1h0l-.27.9c-.09,0-.06-.11,0-.35l0-.51,0,0a3.05,3.05,0,0,1-.25.66l0-.67-.19.48,0-.4-.21.09Z"/><path class="cls-1" d="M18.58,7.28A1.57,1.57,0,0,1,19.69,7c.26,0,.26.19.12.18a2,2,0,0,0-1.2.14c-.15.08-.12,0,0,0Zm-.32.45a1.86,1.86,0,0,1,1.56-.5c.18,0,.15.19,0,.18a1.18,1.18,0,0,0-.41.07,1.92,1.92,0,0,0-.48.15,2.22,2.22,0,0,0-.8.79c-.08,0-.1,0-.05-.09a1.36,1.36,0,0,1,1-.83v0c-.2,0-.45,0-.82.38,0,0-.06,0,0-.12Zm1-.15c.13,0,.19.06.09.18a2.46,2.46,0,0,0-.93.73.31.31,0,0,1-.17.34c0,.22-.13.32-.35.35l-.33.41c.08.1,0,.26-.27.5s-.21.11-.18-.15c.18-.48.51-1.19.67-1.19s.09,0,.12-.19.13-.08.1,0,0,.14.09,0a2.15,2.15,0,0,1,1.16-1Zm-2.61,3.84c0-.53.07-.83.32-1,.68-.41.91-1,1.13-1a5.37,5.37,0,0,1,1-1.14c.3-.2.35-.16.19.16A6,6,0,0,1,18,10a.54.54,0,0,0-.41.27l.27-.13c.13,0,.14,0,.06.12s-.59.69-.68.32c-.14.28-.39.24-.41.51l0,.37c-.06.1-.1.1-.16,0Zm1.93-3a1.9,1.9,0,0,1,.69-.52c.28-.12.27.1.08.1s-.36.13-.69.55c-.09.12-.19,0-.08-.13Zm-1.62,2.51a.11.11,0,0,1,.12,0A.09.09,0,0,1,17,11c0,.06-.09.08-.13.05a.13.13,0,0,1,0-.13Zm0,.71c0,.12,0,.09.09,0l.13-.36a4,4,0,0,0,.54-.51c.09.13.25,0,.5-.33a1,1,0,0,0,.54-.67c.07-.25,0-.29-.13-.13-.24.31-.41.42-.5.64-.28.09-.5.4-.82.54a.29.29,0,0,0-.12.27.61.61,0,0,0-.23.55Zm0,.47c.13-.35.17-.54.31-.66s.2-.14.1,0a1.43,1.43,0,0,0-.18.71c0,.3-.36.24-.23-.1Zm.41-.23.23-.57c.06-.21.16-.33.3-.34l.32-.31c.07-.08.12,0,.07.11l-.23.38a1.72,1.72,0,0,1-.44.9c-.06.06-.16.06-.1,0l.27-.55-.35.48c-.1.13-.12,0-.07-.07Zm.7.07.1-.53a1,1,0,0,1,.22-.55l.16-.44c0-.18.12-.16.12.06l-.1.28c.09,0,0,.13,0,.21s0,.22-.11.25a1.56,1.56,0,0,1-.19.82c-.18.22-.24.19-.18-.1Zm-.92.67a1.61,1.61,0,0,0,.56-.48c.2-.29.29-.31.23,0a.91.91,0,0,1-.6.65c-.31.11-.4,0-.19-.17Zm-.69.84c.12-.25.44-.41.89-.56a1.76,1.76,0,0,0,.78-.58c.23-.15.19,0,.12.14a.68.68,0,0,1-.3.28,2.54,2.54,0,0,1-.64.37,1.53,1.53,0,0,0-.7.5c-.13.1-.19.05-.15-.15Zm0,.85c-.08.13-.09.23,0,.31.27-.11.19-.55.87-.9.09-.11.06-.16-.08-.11l-.65.46c.22-.35.44-.63.76-.7a.91.91,0,0,0,.57-.31c.08-.16.05-.2-.07-.13-.39.27-.73.37-1,.6a1.55,1.55,0,0,0-.54.87l.21-.09Zm0,.48c-.09.16,0,.22.07.09a5.39,5.39,0,0,1,.92-1.08,2.82,2.82,0,0,0,1-1.31c.11-.35,0-.45-.11-.23a2.79,2.79,0,0,1-.76,1.27,4,4,0,0,0-1.11,1.26Zm.12.31c-.11.13-.09.17.08.1a2.88,2.88,0,0,1,.63-.79l.5-.44c.38-.09.6-.5.67-1.18l0-.09a2,2,0,0,1-.71,1,3.33,3.33,0,0,0-.69.71c-.08.08-.08.19-.16.3s-.23.24-.3.37Zm1.26-1a.8.8,0,0,0-.47.39c-.08.18-.05.19.08.06s.3-.23.44-.35.12-.15-.05-.1Zm-.62,1.11a1,1,0,0,1,.41-.69c.21-.14.25-.1.09.11a4.26,4.26,0,0,0-.35.62c-.05.09-.18.19-.15,0Zm-.09-.51s.05.07.05.14,0,.15-.05.15,0-.06,0-.15,0-.14,0-.14Zm1.06-.43a.22.22,0,0,1,0,.22c0,.09-.11.16-.15.15s-.07-.12,0-.21.1-.17.16-.16Zm2.12-7.81a2.19,2.19,0,0,0-2.12.7,2.09,2.09,0,0,0-.46,1.18c0,.08.16-.08.35-.33L18,8a1.2,1.2,0,0,1,.13-.25s0-.11.1-.16a.27.27,0,0,0,.15-.16h-.1a1.54,1.54,0,0,1,1.33-.5l.41,0a.3.3,0,0,0,.19,0s.06-.07,0-.07a3.82,3.82,0,0,0-1.39.06,2.63,2.63,0,0,1,1.51-.2c.28,0,.29-.19,0-.22Z"/><path class="cls-1" d="M21.24,6.31c-.06,0,0,.15.06.19s.13,0,.1-.06-.1-.17-.16-.13Zm-.63-.23c-.1-.14,0-.21.15-.19a2.42,2.42,0,0,1,1.1.35c.14.1,0,.2-.08.13l-.3-.16c0,.13-.1.07-.28-.08-.12.12-.26.06-.43-.11l.11.29c0,.06-.05.06-.08,0l-.19-.24Z"/><path class="cls-1" d="M22.18,6.68s-.15-.08,0-.11c-.15-.08-.09-.2,0-.22.4,0,.7-.23,1.16,0l.2.23c.13.31,0,.46-.16.24s0-.25-.23-.35a1.49,1.49,0,0,1,.2.68c.34.33,0,.4-.06.19l-.13-.6c0,.3.05.52,0,.52s0-.21-.09-.46S23,6.53,23,6.52a1.42,1.42,0,0,0-.68,0c.32,0,.54,0,.62.08a.55.55,0,0,1,.07.46c-.07.11-.12.08-.12-.06l0-.19c0-.1-.13-.12-.29-.1a.51.51,0,0,1-.34,0Z"/><path class="cls-1" d="M22.63,17.19c-.07-.12.12-.19.27,0a10.14,10.14,0,0,1,.86,1.42c.13.3,0,.37-.13.11a8.87,8.87,0,0,0-1-1.54Zm.46.14c-.1-.14,0-.22.16,0a10.34,10.34,0,0,1,.61,1.11c.08.18,0,.22-.1.06a7.47,7.47,0,0,0-.67-1.13Zm-5,.28a15.14,15.14,0,0,0,1.63,2.23c.07.09,0-.18.07-.08a2.67,2.67,0,0,0,.42.63c.09-.07-.19-.32-.23-.61l.83,1c.08-.14-.41-.71-.8-1.21l.06-.05L21,20.73h0a8.21,8.21,0,0,0-.88-1.37l0-.1c.18.22.41.56.6.84a5.15,5.15,0,0,0,.6.77c.35.09-.83-1.15-1.37-2.19v-.06a8.32,8.32,0,0,0,1.85,2.28c.07.05.13,0,.06-.13a19.47,19.47,0,0,1-1.66-2.06l0-.06a7.71,7.71,0,0,0,2.11,2.27c.07,0,.12.11.19.06.26-.21-1-.52-2-2.17v-.12a8.87,8.87,0,0,0,.76,1c.47.51,1.2,1.11,1.32,1s-1.05-.91-1.68-1.89l0,0a6.35,6.35,0,0,0,2.22,2c.15.08.09.06.27.06.45,0-1-.72-1.78-1.55l0-.07c.22.19.5.44.8.68a12.16,12.16,0,0,0,1.06.68c.28.14.5.23.6.19.26-.13-1-.59-1.33-.92.19.1.38.17.54.25.55.27.95.46,1,.36s-.24-.23-.75-.42c-.06-.06,0-.08.13-.05.59.24.92.4,1,.35s-.12-.19-.47-.41a2.17,2.17,0,0,0,1,.31c.08,0-.24-.19-.52-.44.39.25,1.33.59.44,0l.06,0c.33.25.76.35.24-.06h.08c.29.23.45.41.23-.07.29.42.59.58.19,0l.46.35c-.17.07-.15.12,0,.2.38.25.41.21.33,0a.79.79,0,0,0-.36-.82c-.3-.19-.28,0,.05.56a1.19,1.19,0,0,1-.3-.34.39.39,0,0,0-.34-.19,18.41,18.41,0,0,0-2,.24A1.64,1.64,0,0,1,23,19.5c-.17-.15-.23-.2-.15-.36a.2.2,0,0,0-.08-.28l-.47-.94a2.33,2.33,0,0,0,.19.23c.19.31.32.56.36.55-.07-.21-.32-.66-.51-1.18.37.65.69,1.21.78,1.13a6.2,6.2,0,0,0-.63-1.23,1.3,1.3,0,0,1,.17.19c.12.15.22.28.28.25a1.61,1.61,0,0,0-.74-.88c-.41-.14-.66-.2-.6.06l-.21-.23-.22,0c-.07,0,0,.14.18.39l-.05,0L21,16.81c-.07,0-.17-.09-.19,0l.14.26-.28-.31c-.13-.07-.28-.1-.28,0l.41.67c-.07-.1-.19-.2-.29-.35s-.3-.38-.49-.41.19.29.46.92l-.63-.9c-.06,0-.31-.09-.33,0l.74,1.05a5.76,5.76,0,0,1-.87-1.07.16.16,0,0,0-.13,0s-.06,0-.09,0l.9,1.15a5.66,5.66,0,0,1-.49-.49c-.19-.27-.36-.44-.51-.68a.14.14,0,0,0-.19,0c-.07.1.67.86,1,1.32a7.27,7.27,0,0,1-1.13-1.32c-.15-.08-.25-.08-.29,0s.9,1,1.27,1.56a16.41,16.41,0,0,1-1.38-1.56c-.05-.08-.23-.08-.23,0s.82.89,1.48,1.8A12.26,12.26,0,0,0,18.3,17c-.12,0,.29.5,1.23,1.57a13.76,13.76,0,0,1-1.29-1.36c-.12.1.4.74,1.14,1.56l-1.17-1.23c-.16-.1-.19-.08-.1.06Z"/><path class="cls-1" d="M22.06,8s0,.2,0,.31a.38.38,0,0,0,0,.27c0,.11.06.12.06.09a2,2,0,0,1,0-.54.13.13,0,0,0,0-.13Zm.16,0s0,.25,0,.38a.63.63,0,0,0,.06.36c.05.12.08.15.08.11a3.64,3.64,0,0,1-.06-.69A.16.16,0,0,0,22.22,8Zm.19,0s0,.31,0,.49a.87.87,0,0,0,.07.44c.06.14.09.17.09.13a5.84,5.84,0,0,1-.09-.87c0-.11,0-.16-.06-.19Zm.22.22a2.58,2.58,0,0,0,0,.44.68.68,0,0,0,.07.4c.06.13.11.16.09.11a4.68,4.68,0,0,1-.09-.77.24.24,0,0,0-.06-.18Zm.21.24s0,.25,0,.38a.59.59,0,0,0,.07.36c.08.11.1.14.09.09a5,5,0,0,1-.1-.69c0-.1,0-.13-.06-.14Zm.2.22s0,.22,0,.33a.5.5,0,0,0,.09.33c.06.08.08.11.07.07a3.74,3.74,0,0,1-.12-.6c0-.09,0-.12-.06-.13Zm.22.22s0,.2,0,.3a.48.48,0,0,0,.09.27c.05.07.08.1.07.07A2,2,0,0,1,23.32,9a.14.14,0,0,0-.06-.11Zm.21.22s0,.17,0,.26a.31.31,0,0,0,.09.22c.05.07.08.09.07.06a1.78,1.78,0,0,1-.13-.44.1.1,0,0,0-.06-.1ZM24.65,11c-.16-.16-.26,0,0,.24s.4.11.34.05l-.3-.29ZM20.83,7.09c.05,0,.11.17.16.33s.15.31.15.35a.79.79,0,0,1-.31-.68ZM18.9,10a4.16,4.16,0,0,0,1.54,2.33c-.06-.19-.73-.79-1.06-1.33s-.36-.85-.48-1ZM19,9.69a3.41,3.41,0,0,0,1.37,2.12c-.05-.17-.63-.68-.93-1.2s-.34-.8-.44-.92Zm.1-.29a3.26,3.26,0,0,0,1.27,2c0-.17-.57-.63-.85-1.1s-.32-.76-.42-.88Zm.12-.28A3,3,0,0,0,20.41,11c0-.15-.51-.58-.78-1s-.29-.71-.39-.81Zm.14-.28a2.68,2.68,0,0,0,1.06,1.69c0-.14-.47-.53-.69-.94s-.28-.66-.37-.75Zm.15-.28a2.38,2.38,0,0,0,.95,1.56c0-.12-.41-.5-.61-.87s-.27-.61-.34-.69Zm.16-.27a2.08,2.08,0,0,0,.84,1.4c0-.1-.36-.44-.53-.77s-.24-.56-.31-.63ZM19.87,8c.07.06.11.28.28.57s.43.6.45.69A1.75,1.75,0,0,1,19.87,8Zm.2-.26c.06.06.1.25.24.51a6.59,6.59,0,0,1,.38.62,1.63,1.63,0,0,1-.62-1.13Zm.22-.23c.05,0,.1.21.22.43s.29.46.31.53a1.28,1.28,0,0,1-.53-1Zm-1.77,6.14a1.75,1.75,0,0,0,0-.32,12.17,12.17,0,0,0,1.89,2.2,21.16,21.16,0,0,0-1.56-1.86c-.12-.21-.22-.4-.3-.56a2.06,2.06,0,0,0,0-.26,7.61,7.61,0,0,0,1.91,2.31c-.11-.26-1-1-1.5-1.77a7.58,7.58,0,0,1-.38-.76v-.13a7.91,7.91,0,0,0,1.91,2.31c-.09-.26-1-1-1.48-1.77a6.51,6.51,0,0,1-.4-.78v-.14a9.38,9.38,0,0,0,2,2.46c-.09-.25-1.15-1.17-1.58-1.89a5.34,5.34,0,0,1-.4-.81v-.2a7.34,7.34,0,0,0,1.95,2.43c-.09-.25-1.1-1.09-1.51-1.77a4.71,4.71,0,0,1-.41-.85,1.48,1.48,0,0,1,0-.22,6,6,0,0,0,1.88,2.34c-.09-.22-1-1-1.41-1.62a8,8,0,0,1-.45-.91,2.09,2.09,0,0,1,0-.25,5.54,5.54,0,0,0,1.79,2.33c-.06-.22-.94-.91-1.32-1.53a5.43,5.43,0,0,1-.45-1v0a2.66,2.66,0,0,1,0-.28,4.92,4.92,0,0,0,1.7,2.42c-.06-.19-.87-.88-1.2-1.45a8.71,8.71,0,0,1-.5-1c.25-2.11,1.14-3.36,2.44-3.57h0a1.41,1.41,0,0,0,.15.85,5.47,5.47,0,0,0-.06-.6V6.75l.12,0c0,.29.11.57.25.6a1,1,0,0,1-.12-.54l.16,0c0,.31.1.65.25.66a.92.92,0,0,1-.12-.6h0a.7.7,0,0,0,.13.3c.06-.08,0-.22,0-.38a.51.51,0,0,1,.55,0c.08.09.05.14-.05.14h-.11l.24.1s.06.06-.08.07l-.08.08.3,0c.11,0,.09.08.06.12l-.07.09a1.92,1.92,0,0,1,.88.23c0,.12-.15.11-.4,0,.06.15.29.17.28.25s-.38,0-.54.22l.39,0c.09.06.06.1-.07.1.21.25.37.32.43.15s.11-.13.17,0c.25.14.29.16.15.19l-.24,0,.28,0a.08.08,0,0,1,0,.14c-.19,0-.2.06.15.07.14.07.2.15.14.2-.3,0-.29.06.08.09.08.05.11.11.1.15-.19,0-.16.09.07.09,0,0,.06.07,0,.11-.22.06-.19.09.08.09,0,.1.18.09.24.22.23,0,.34.12.13.12v0c.33,0,.48.11.44.31s-.49-.18-.3.53l.08.07c.13,0,0-.32.2-.29,0,0,.06.11,0,.29s-.15.23-.31.13-.24-.2-.22-.32v-.22c-.16,0-.19-.09-.2-.25s-.06,0-.05-.06a.35.35,0,0,0-.45.24c0,.07-.07,0-.1-.06s-.09,0-.15,0,0-.1-.07-.08,0,0-.09,0,0-.12-.12,0-.07.06-.08,0,.07-.22-.09,0c-.06,0-.08,0-.11-.05-.08-.25-.14-.26-.17,0s-.09.1-.09,0c-.09-.38-.1-.38-.07,0,0,.16-.06.14-.15,0s-.14,0-.22-.12,0-.42-.2-.49l.1.51c0,.07-.12.09-.13,0-.06-.34-.28-.92-.24-.73l.14.7c0,.06-.15,0-.18-.06L22.22,9c0-.25,0,.47.06.78,0,0-.11,0-.1,0A3.59,3.59,0,0,0,22,8.93c-.1.1.18.94,0,.81,0,0-.1-.85-.13-.87s0,.81,0,.79c-.23-.29,0-1.08-.15-1.12s-.1,1-.13.93c.1.75.7.78.66,1l-.42-.22c.11.22.29.45.41.7-.14,0,0,.22.1.31-.13,0-.1.07.14.31.06,0,.08.08.06.13-.3-.08-.33-.08.16.32-.3,0-.32,0,0,.22a.35.35,0,0,1,.15.22c0,.06,0,0-.07,0l-.18-.1c-.09,0,0,.1.38.41.1.08.15.16.07.19-.49-.31-.46-.24.08.23.13.21.14.29.1.32-.44-.36-.73-.6,0,.16.13.14.16.22.06.24-.76-.57-.35-.19.16.33,0,0,0,.08,0,.06-.73-.54-.76-.41,0,.4,0,.07.08.13,0,.19s-.07,0-.1,0c-.53-.49-.49-.39.11.43.09.13.13.25,0,.17-.66-.74-.87-.9,0,.24.09.14.11.22,0,.17-.6-.82-.62-.71,0,.17,0,.1,0,.11,0,.1-.54-.66-.7-.82,0,.14.09.18.07.21,0,.12-.66-.82-.68-.72,0,.13.06.11.08.16,0,.12-.76-.86-.76-.83,0,.1,0,.24,0,.22-.13.11s-.07-.17-.15-.24c-.46-.57-.52-.53,0,.21-.05.05-.13.05-.22,0-.48-.63-.52-.63-.14,0l-.27,0a.55.55,0,0,0-.14-.19c-.46-.44-.62-.49-.16.09,0,0,0,0,0,0l-.51-.09a.26.26,0,0,1-.19-.1,3.21,3.21,0,0,0-.72-.88c0,.13.31.37.53.73.06.24-.21.13-.29.09-.16-.22-.22-.25-.46-.53-.66-.77-1.36-1.65-1.93-2.27Zm0,.31c0-.09,0-.16,0-.23L20.32,16a6,6,0,0,0,.4.47c0,.07-.06,0-.16,0a2,2,0,0,1-.25-.31c-.62-.71-1.29-1.55-1.83-2.15Zm-.08.35c.53.59.72.85,1.29,1.53.06.08.37.39.43.46s.32.15.2.05,0,0-.15-.22c-.46-.57-1.24-1.51-1.71-2.1a1.7,1.7,0,0,1-.06.28Zm-.08.31c.49.57.95,1.08,1.47,1.71a.2.2,0,0,0,.21,0c-.06-.06-.41-.49-.47-.56-.42-.53-.67-.8-1.16-1.39a1.74,1.74,0,0,1-.05.22Zm-.11.37c.38.44.75.82,1.14,1.3.12.06.21.06.25,0-.38-.49-.86-1-1.3-1.58a2,2,0,0,1-.07.19.12.12,0,0,0,0,.08Zm-.06.46c.31.31.55.5.82.8.09,0,.15,0,.19,0-.33-.43-.64-.75-1-1.18a1.76,1.76,0,0,0,0,.38Zm.06.41c.15.15.3.24.44.4a.2.2,0,0,0,.22,0c-.23-.25-.45-.39-.7-.64,0,.08,0,.19,0,.27Zm.3.39c-.22,0-.27,0-.28-.25a3.33,3.33,0,0,1,.28.25ZM21.1,6.84a1,1,0,0,0,.23.89,1.93,1.93,0,0,0-.13-.48,1.45,1.45,0,0,0-.1-.41Zm.22,8a.64.64,0,0,0-.35-.51s.13.16.21.29.11.19.14.22Zm.06.57a2.47,2.47,0,0,1-.2-.34c-.11-.19-.3-.38-.32-.43a1.06,1.06,0,0,1,.52.77Zm.05.56c-.05-.05-.1-.21-.25-.44s-.39-.5-.41-.57a1.5,1.5,0,0,1,.66,1Zm0,.44a1.49,1.49,0,0,0-.73-1.09c0,.11.3.35.48.66s.18.37.25.43Zm-.91-9.14a1.06,1.06,0,0,0,.41.82,3.63,3.63,0,0,0-.22-.42c-.09-.21-.13-.37-.19-.4Z"/><path class="cls-4" d="M9.69,6.3c-.2-.08-.26,0-.22.23,2.93,4.13,7.37,10.16,12.59,17.28l0,.1.44.25-.14-.59-.09.06C18.21,18,13.54,11.39,9.69,6.3Zm-.51.23c0,.12,0,.18-.13.06a.55.55,0,0,1,.06-.75.49.49,0,0,1,.74-.07c.15.12.11.13-.07.13-.5,0-.69.25-.6.63ZM7,2.77c.44.54.85,1,1.32,1.67a.14.14,0,0,1-.16.16c-.49-.69-.85-1.25-1.22-1.77-.07-.11,0-.12.06-.06Z"/><path class="cls-5" d="M17.51,7.58c-.1-.07-.15.11,0,0l.25-.22c.12-.21,0,.06.12,0a.54.54,0,0,0,.19-.39L18.3,7c.12-.1.09-.14-.07-.13a2.7,2.7,0,0,0-.54.53l-.18.23ZM17,7.47s0,.07,0,.13-.1.06-.13,0,0-.09,0-.13.1-.06.13,0Zm-6-.34c-.18.06-.18.13,0,.16a.34.34,0,0,0,.2,0c.1,0,.14,0,.19.09s.16.2.23.16-.28-.28-.12-.28h.09c.25.24.48.37.47.32L12,7.32c0-.09.1,0,.16,0l.33.3c.05.06,0,0,0-.24s0-.06.11,0c.21.21.46.56.46.43V7.69c0-.06.07-.06.11,0s.28.27.27.22l0-.12c0-.07,0-.07.13,0l.35.29c.07.06.13,0,.1,0L13.84,8c-.05-.07,0-.09.07,0l.31.22s0,0,0-.15h.17c0,.11.1.13.28.21s.06,0,.15-.06L15.21,8c.13,0,.12-.13,0-.1a2.8,2.8,0,0,1-2-.53A2.69,2.69,0,0,0,11,7.13Zm.72-.47c-.08,0-.08.07,0,.09s.21-.1.34,0c0-.19.07-.18.23.06-.06-.24,0-.3.25.06,0-.19,0-.22.18.1,0,.06.09.06.1,0-.09-.34,0-.32.15,0,.06.07.08.07.08,0,0-.24.09-.19.31.13.06.07.09.1.1,0s.05-.18.24.06c.15,0,.35.1.61.33,0,.05.06.06.09.05-.14-.27,0-.16.27,0,.14-.08.16-.12.07-.15A4.62,4.62,0,0,1,13.53,7c-.34-.26-.49-.19-.88-.43a.84.84,0,0,0-.92.14Zm1.65-.09a2.3,2.3,0,0,1,.95.33s0,.07,0,0a.51.51,0,0,0-.3-.13C14,6.94,14,7,14,7c-.11-.2-.22-.23-.31-.19a.06.06,0,0,1-.07,0c-.09-.19-.13-.19-.17-.12s-.09-.12,0-.12ZM8.52,9.12c.22-.34.4-.44.51-.17.15-.47.31-.52.52-.11.27,0,.33.43.29,1.06l-.27-.71v.46c-.17-.78-1.3-.32-1.05-.53ZM10,9.3c.05,0,.09.06.12.16a.35.35,0,0,1,0,.19c-.05,0-.09-.06-.12-.16a.35.35,0,0,1,0-.19ZM8.35,10.89a.82.82,0,0,1,.32-.28l0,.14.35-.12,0,.12.38-.21c-.22.28-.27.4-.19.4s.33-.33.42-.24c-.19.29,0,.21.31-.06.09,0-.12.24-.09.27s.15-.06.38-.22c.06,0,.19-.19.22-.12s-.07.13-.12.19c-.23.28-.17.23.24,0,.06,0,.15-.1.2-.07-.27.36-.16.29.25,0,.06,0,.13-.13.21-.06-.51.46-.43.52.23.19-.31.36-.23.37.25.06a.55.55,0,0,0,.16,0c-.22.22-.25.38-.14.33a.88.88,0,0,1,.46-.14c-.2.21-.19.3.08.25.09,0,0,.13-.27.31,0,.07-.08,0-.13-.18,0,.11-.07.11-.12.05l-.05.38-.09,0v-.22c-.05,0-.09,0-.13,0l-.08.3-.13-.08a.56.56,0,0,1-.2.28C11,12,11,12,11,12.14s-.09,0-.15,0-.08.16-.16.08a1.5,1.5,0,0,0-.33.26l-.06-.15c-.1.15-.19.24-.25.21l-.1-.1-.16.26-.27.07c0,.08.1.08.28.05a9.42,9.42,0,0,0,1-.22c.29-.09.62-.14,1-.28s.6-.37.92-.53c.07.06,0,.21-.6.69l-.29-.09.16.22c-.08.07-.13.1-.21.09l-.26-.13.09.28c-.19,0-.28-.24-.46-.14l.08.22-.4-.11.07.26-.33-.15-.08.15c-.1,0-.16,0-.17.07a4.28,4.28,0,0,0,2.5-.57s.06,0,.06.09a1.58,1.58,0,0,1-.72.94l.12-.47c-.26.11-.56.69-.78.76l.24-.62-.69.58c-.06-.08,0-.24.18-.44-.21,0-.56.48-.62.45s.12-.22.18-.32c-.19,0-.32.16-.49.25,0-.09.09-.19.27-.35l-.57.26c0-.1.22-.19.26-.34a1.48,1.48,0,0,1-.56.28l.18-.28-.5.27.31-.33-.53.25.15-.28-.38.25.16-.3a1,1,0,0,1-.47.26c.1-.13.18-.24.16-.31a1,1,0,0,1-.42.25l.07-.25a1.27,1.27,0,0,1-.48.31L8,13.18s0-.11,0-.06l-.4.32c.09-.16.14-.26.08-.31l-.28.15,0-.16-.32.35s0-.1,0-.26l-.33.22a1.34,1.34,0,0,1,.86-.71,6.45,6.45,0,0,1,1.13-.2A4.18,4.18,0,0,0,10,12.21a2.21,2.21,0,0,0,.65-.35c.11-.09.07-.12-.06-.1l-.53,0v-.24l-.2.28-.05-.28L9.68,12l-.08-.55-.13.6-.07-.59-.22.68-.06-.71L9,12.18l-.13-.73-.09.73-.15-.69-.06.66-.19-.67v.7l-.22-.67,0,.6L8,11.52l-.06.53-.12-.48-.07.52c-.22-.41-.31-.74-.16-.93a.87.87,0,0,1,.81-.27ZM6.49,14l-.06.16c.07,0,.13-.09.2-.13l-.06.26c.09,0,.3-.2.44-.3l-.1.26c.13,0,.22-.19.32-.29l-.06.27c.16,0,.27-.22.4-.33l0,.26c.12,0,.2-.17.32-.28l.06.19c.1,0,.16-.13.25-.19l0,.18.22-.22.05.19L8.73,14l.07.1L9,14v.22l.28-.12,0,.15.2-.12v.19l.24-.05v.17l.35-.15-.12.27.31-.19,0,.2.34-.14-.2.3c.22,0,.3-.14.44-.22l-.1.28a1.13,1.13,0,0,0,.6-.45c.05.07,0,.19-.14.44a.83.83,0,0,0,.43-.44l-.07.31a.69.69,0,0,0,.43-.34l0,.29a.71.71,0,0,0,.26-.35c.15.06.31,0,.37-.26s0-.3-.16-.22a3,3,0,0,1-2.69.19,10.41,10.41,0,0,0-2.43-.28c-.37,0-.68,0-.82.38Zm4.87,1c.06-.09.12-.13.13-.12s0,.12,0,.21-.12.11-.15.1a.24.24,0,0,1,.06-.19Zm.29-.06c.06-.1.14-.16.16-.13s0,.13-.05.23-.15.16-.18.14,0-.14.07-.24Zm.33-.17c.08-.14.19-.19.22-.17a.48.48,0,0,1-.09.3c-.09.13-.19.2-.22.16s0-.16.09-.29Zm-1,.2c.13,0,.25,0,.25.09s-.12.1-.25.1-.26,0-.26-.1.11-.09.26-.09Zm5.81-7.67c0-.1.38-.37.88-.7a1,1,0,0,1,.62-.24.63.63,0,0,0,.26,0c.12.07.07.13-.06.16a.14.14,0,0,0-.17,0c-.14,0-.15.12-.24.14L18,6.65c-.17.11-.29.44-.42.6l0-.16c-.09,0-.15.2-.28.3,0-.11,0-.17-.06-.17-.22.14-.38.22-.44.16Z"/><path d="M38.5,9.06V5.22H36.69V9.06h-.6V4.7h3V9.06Z"/><path d="M43.06,7.39c0,1-.45,1.75-1.31,1.75a1.1,1.1,0,0,1-.88-.38v1.58l-.58.07V5.73h.5l0,.45a1.23,1.23,0,0,1,1-.53C42.71,5.65,43.06,6.34,43.06,7.39Zm-.63,0c0-.86-.25-1.28-.75-1.28a1,1,0,0,0-.81.52V8.26a.85.85,0,0,0,.74.4C42.14,8.66,42.43,8.27,42.43,7.39Z"/><path d="M46.37,8.29c0,.29.11.38.28.44l-.14.41a.68.68,0,0,1-.65-.5,1.13,1.13,0,0,1-1,.5,1,1,0,0,1-1.07-1c0-.71.54-1.1,1.47-1.1h.52V6.79c0-.49-.24-.66-.7-.66a3.05,3.05,0,0,0-.9.17L44,5.88a3.37,3.37,0,0,1,1.16-.23,1,1,0,0,1,1.17,1.11Zm-.58-.11V7.42h-.44c-.61,0-.92.23-.92.68s.19.6.57.6A.86.86,0,0,0,45.79,8.18Z"/><path d="M50.16,8.08c0,.69-.6,1-1.41,1h-1.2V5.77a5.62,5.62,0,0,1,1.1-.12c.8,0,1.34.31,1.34.88,0,.34-.17.6-.68.72C49.88,7.31,50.16,7.58,50.16,8.08Zm-2-1.94v.94h.6c.39,0,.66-.12.66-.5s-.25-.48-.74-.48A3,3,0,0,0,48.13,6.14Zm.53,2.47c.4,0,.89,0,.89-.54s-.34-.56-.78-.56h-.64v1.1Z"/><path d="M53.14,9.06V7.56a9.94,9.94,0,0,1,.07-1.17L51.83,9.06h-.71V5.73h.58V7.24c0,.51-.05,1.06-.06,1.15L53,5.73h.72V9.06Z"/><path d="M56.15,6.2V9.06h-.59V6.2h-1.1V5.73h2.82l-.07.47Z"/><path d="M60.47,7.6H58.34c.06.77.42,1.06.9,1.06a1.36,1.36,0,0,0,.87-.29l.25.35a1.81,1.81,0,0,1-1.16.42c-.93,0-1.48-.65-1.48-1.71s.53-1.78,1.39-1.78,1.37.63,1.37,1.65A2.72,2.72,0,0,1,60.47,7.6Zm-.56-.47c0-.65-.26-1-.79-1s-.73.31-.78,1.06h1.57Z"/><path d="M64,9.06h-.58V6.2h-1l-.09,1.12c-.11,1.27-.24,1.6-1,1.82l-.14-.46c.41-.15.43-.33.53-1.43l.13-1.52H64Z"/><path d="M66.16,6.8c1,0,1.41.45,1.41,1.12a1.15,1.15,0,0,1-1.3,1.14H65.13V5.73h.58V6.8Zm0,1.81c.44,0,.75-.17.75-.69s-.2-.67-.81-.67h-.44V8.61Z"/><path d="M70.76,6l-.29.38a1.09,1.09,0,0,0-.71-.26c-.52,0-.85.41-.85,1.28s.33,1.24.85,1.24a1.07,1.07,0,0,0,.72-.28l.28.4a1.58,1.58,0,0,1-1,.37c-.9,0-1.46-.64-1.46-1.72s.55-1.77,1.46-1.77A1.49,1.49,0,0,1,70.76,6Z"/><path d="M73,6.2V9.06h-.58V6.2h-1.1V5.73h2.82L74,6.2Z"/><path d="M77.44,8.08c0,.69-.6,1-1.4,1h-1.2V5.77a5.51,5.51,0,0,1,1.09-.12c.8,0,1.34.31,1.34.88,0,.34-.17.6-.68.72C77.16,7.31,77.44,7.58,77.44,8.08Zm-2-1.94v.94H76c.39,0,.67-.12.67-.5s-.26-.48-.74-.48A2.82,2.82,0,0,0,75.42,6.14Zm.52,2.47c.41,0,.89,0,.89-.54s-.34-.56-.78-.56h-.63v1.1Z"/><path d="M81.19,7.39c0,1-.54,1.75-1.49,1.75s-1.49-.68-1.49-1.74.55-1.75,1.5-1.75S81.19,6.34,81.19,7.39Zm-2.35,0c0,.87.3,1.27.86,1.27s.86-.4.86-1.28-.3-1.27-.85-1.27S78.84,6.53,78.84,7.4Z"/><path d="M39.41,16.66l-.15-2c-.06-.68-.11-1.41-.11-1.77l-.94,3.25h-.57l-1-3.26c0,.51,0,1.19-.08,1.83l-.15,1.92h-.57l.36-4.36H37l.92,3.17.87-3.17h.82L40,16.66Z"/><path d="M43.81,15c0,1-.54,1.75-1.49,1.75s-1.48-.68-1.48-1.74.54-1.75,1.49-1.75S43.81,13.94,43.81,15Zm-2.35,0c0,.87.31,1.27.86,1.27s.87-.4.87-1.28-.31-1.27-.86-1.27S41.46,14.13,41.46,15Z"/><path d="M47.08,13.61l-.29.38a1.09,1.09,0,0,0-.71-.26c-.52,0-.85.41-.85,1.28s.33,1.24.85,1.24A1.07,1.07,0,0,0,46.8,16l.28.4a1.6,1.6,0,0,1-1,.37c-.9,0-1.46-.64-1.46-1.72s.55-1.77,1.46-1.77A1.49,1.49,0,0,1,47.08,13.61Z"/><path d="M50.52,16.66h-.69l-.92-1.53h-.42v1.53H47.9V13.33h.59v1.34h.43l.84-1.34h.64l-1,1.54Z"/><path d="M53.89,15.68c0,.69-.6,1-1.4,1H51.28V13.37a5.62,5.62,0,0,1,1.1-.12c.8,0,1.34.31,1.34.88,0,.34-.17.6-.68.72C53.61,14.91,53.89,15.18,53.89,15.68Zm-2-1.94v.94h.59c.39,0,.67-.12.67-.5s-.26-.48-.75-.48A2.78,2.78,0,0,0,51.87,13.74Zm.52,2.47c.41,0,.89-.05.89-.54s-.34-.56-.78-.56h-.63v1.1Z"/><path d="M55.82,14.4c1,0,1.41.45,1.41,1.12a1.15,1.15,0,0,1-1.31,1.14H54.86V13.33h.58V14.4Zm0,1.81c.44,0,.74-.17.74-.69s-.19-.67-.8-.67h-.37v1.36Zm2.43.45h-.58V13.33h.58Z"/></g></g></g></g></svg>