<svg xmlns="http://www.w3.org/2000/svg" viewBox="0 0 56 56"><defs><style>.cls-1{fill:#d4f3fd;}.cls-2,.cls-3{fill:#46b2e8;}.cls-3{opacity:0.3;}</style></defs><title>handshake</title><g id="Слой_2" data-name="Слой 2"><g id="_1280" data-name="1280"><g id="Index"><g id="body"><rect class="cls-1" width="56" height="56" rx="28"/><path class="cls-2" d="M27,12.55v2.92a1,1,0,0,0,1.94,0V12.55a1,1,0,1,0-1.94,0Z"/><path class="cls-2" d="M19.53,15.75a1,1,0,0,0,0,1.38l1.95,1.94a1,1,0,0,0,1.37-1.37l-1.94-1.95a1,1,0,0,0-1.38,0Z"/><path class="cls-2" d="M35.09,15.75,33.15,17.7a1,1,0,0,0,1.37,1.37l1.95-1.94a1,1,0,1,0-1.38-1.38Z"/><path class="cls-2" d="M43.62,25.19h-3V38.81h3a1,1,0,0,0,1-1V26.16a1,1,0,0,0-1-1Z"/><path class="cls-2" d="M11.4,26.16V37.83a1,1,0,0,0,1,1h3V25.19h-3a1,1,0,0,0-1,1Z"/><path class="cls-3" d="M25.52,27.24l-3,5.92a3.79,3.79,0,0,0,1.55.33,3.87,3.87,0,0,0,3.48-2.16l.64-1.28h1.88a2,2,0,0,1,1.38.57l7.21,7.21V26.16H27.26a1.94,1.94,0,0,0-1.74,1.08Z"/><path class="cls-3" d="M29.43,32l-.05.11a5.9,5.9,0,0,1-4.76,3.3,7,7,0,0,1-3.79-.87,1,1,0,0,1-.47-1.33l3.42-6.84a3.88,3.88,0,0,1,3.48-2.15h4.19a4.72,4.72,0,0,0,.44-1.95,1,1,0,0,0-1-1H23.37a2.91,2.91,0,0,0-2.61,1.62l-.87,1.73a1,1,0,0,1-.87.54H17.3V38.81h4.46l2.76,2.75a2.89,2.89,0,0,0,2.94.72l8.3-2.61A2.8,2.8,0,0,0,37,38.91L30.11,32Z"/></g></g></g></g></svg>