<svg xmlns="http://www.w3.org/2000/svg" viewBox="0 0 155.08 40"><defs><style>.cls-1{fill:#fff;}</style></defs><title>Design</title><g id="Layer_2" data-name="Layer 2"><g id="_1280" data-name="1280"><g id="Design"><g id="head"><path class="cls-1" d="M48.16,17.6,49.42,16a3.57,3.57,0,0,0,2.82,1.37c.78,0,1.36-.36,1.36-.94q0-.57-.9-1l-.92-.34a14.07,14.07,0,0,1-1.34-.57,2.88,2.88,0,0,1-1.66-2.62,2.79,2.79,0,0,1,1-2.23,4,4,0,0,1,2.66-.88A5,5,0,0,1,56,10.15l-1.15,1.72A3.67,3.67,0,0,0,52.49,11c-.79,0-1.23.35-1.23.85,0,.35.28.66.84.91l1,.41c.53.21.92.36,1.19.49a2.77,2.77,0,0,1,1.86,2.63,2.89,2.89,0,0,1-1.09,2.33,4.31,4.31,0,0,1-2.85.91A5,5,0,0,1,48.16,17.6Z"/><path class="cls-1" d="M58.24,18.34a4,4,0,0,1-1.15-2.88,3.9,3.9,0,0,1,1.15-2.87,4.38,4.38,0,0,1,6,0,3.91,3.91,0,0,1,1.17,2.87,4,4,0,0,1-1.17,2.88,4.41,4.41,0,0,1-6,0ZM62.61,14a1.94,1.94,0,0,0-2.77,0,1.92,1.92,0,0,0-.56,1.4,2,2,0,0,0,.56,1.45,2,2,0,0,0,2.77,0,2,2,0,0,0,.58-1.45A1.93,1.93,0,0,0,62.61,14Z"/><path class="cls-1" d="M68.87,19.3h-2.2V8.64h2.2Z"/><path class="cls-1" d="M71.32,18.34a4,4,0,0,1-1.15-2.88,3.9,3.9,0,0,1,1.15-2.87,4,4,0,0,1,3-1.18,4,4,0,0,1,3,1.18,3.91,3.91,0,0,1,1.16,2.87,4,4,0,0,1-1.16,2.88,4.09,4.09,0,0,1-3,1.17A4,4,0,0,1,71.32,18.34ZM75.69,14a2,2,0,0,0-2.78,0,2,2,0,0,0-.56,1.4,2,2,0,0,0,.56,1.45,2,2,0,0,0,2.78,0,2,2,0,0,0,.57-1.45A1.92,1.92,0,0,0,75.69,14Z"/><path class="cls-1" d="M79.75,19.3V11.62h2.1v1a2.32,2.32,0,0,1,2.08-1.2,2.94,2.94,0,0,1,1,.18l-.19,2.1a2.93,2.93,0,0,0-1-.16c-1.08,0-1.8.7-1.8,2.26V19.3Z"/><path class="cls-1" d="M86,16V11.62h2.19V16A1.41,1.41,0,1,0,91,16v-4.4h2.2V16A3.6,3.6,0,0,1,86,16Z"/><path class="cls-1" d="M106.23,12.25a3.1,3.1,0,0,1,.89,2.38V19.3h-2.2V15.05c0-1.06-.57-1.62-1.41-1.62a1.54,1.54,0,0,0-1.57,1.69V19.3h-2.2V15.07a1.45,1.45,0,0,0-1.44-1.64,1.55,1.55,0,0,0-1.56,1.71V19.3h-2.2V11.62h2.15v1.09a2.61,2.61,0,0,1,2.36-1.3,2.3,2.3,0,0,1,2.2,1.3,3.25,3.25,0,0,1,2.72-1.3A3.19,3.19,0,0,1,106.23,12.25Z"/><path class="cls-1" d="M113.4,18a5.17,5.17,0,0,1-1.51-3.82,5.09,5.09,0,0,1,1.57-3.85,5.42,5.42,0,0,1,3.91-1.52,5.85,5.85,0,0,1,4.17,1.68l-1.36,1.49a3.83,3.83,0,0,0-2.81-1.16A3.25,3.25,0,0,0,114,14.11a3.33,3.33,0,0,0,.92,2.38,3.2,3.2,0,0,0,2.4,1,4,4,0,0,0,2.77-1.11V14.94h-2.86V13.13H122v4.26a6.3,6.3,0,0,1-4.72,2.06A5.31,5.31,0,0,1,113.4,18Z"/><path class="cls-1" d="M123.57,19.3V11.66h1.89v1a2.25,2.25,0,0,1,2.1-1.24,2.72,2.72,0,0,1,.92.17l-.17,1.89a3.09,3.09,0,0,0-.91-.15c-1.12,0-1.86.73-1.86,2.31V19.3Z"/><path class="cls-1" d="M129.94,12.63a4.25,4.25,0,0,1,5.88,0A3.86,3.86,0,0,1,137,15.47a3.87,3.87,0,0,1-1.15,2.86,4.31,4.31,0,0,1-5.88,0,3.84,3.84,0,0,1-1.15-2.86A3.82,3.82,0,0,1,129.94,12.63Zm2.94,5a2,2,0,0,0,1.5-.63,2.25,2.25,0,0,0,.61-1.56,2.17,2.17,0,0,0-.61-1.54,2,2,0,0,0-1.5-.63,2,2,0,0,0-1.52.63,2.16,2.16,0,0,0-.6,1.54,2.24,2.24,0,0,0,.6,1.56A2,2,0,0,0,132.88,17.66Z"/><path class="cls-1" d="M138.25,16.07V11.66h2v4.41a1.53,1.53,0,1,0,3.05,0V11.66h2v4.41a3.5,3.5,0,0,1-7,0Z"/><path class="cls-1" d="M154,12.63a4,4,0,0,1,1.06,2.84A4,4,0,0,1,154,18.32a3.5,3.5,0,0,1-2.68,1.16,3.13,3.13,0,0,1-2.4-1.07v4h-2V11.66h2v.94a3,3,0,0,1,2.42-1.13A3.53,3.53,0,0,1,154,12.63ZM152.51,17a2.37,2.37,0,0,0,0-3.11A2,2,0,0,0,151,13.3a2,2,0,0,0-1.51.63,2.34,2.34,0,0,0,0,3.11,2,2,0,0,0,1.51.63A2,2,0,0,0,152.51,17Z"/><path class="cls-1" d="M52.23,25.91v1H49.75V31.3h-1.1V25.91Z"/><path class="cls-1" d="M58.68,26.6a3,3,0,0,1,0,4,2.5,2.5,0,0,1-1.92.82,2.25,2.25,0,0,1-1.84-.88v3h-1.1V25.91h1.1v.78a2.28,2.28,0,0,1,1.85-.91A2.48,2.48,0,0,1,58.68,26.6Zm-.82.72a1.74,1.74,0,0,0-2.5,0,1.85,1.85,0,0,0-.47,1.28,1.91,1.91,0,0,0,.47,1.3,1.76,1.76,0,0,0,2.5,0,1.87,1.87,0,0,0,.48-1.3A1.82,1.82,0,0,0,57.86,27.32Z"/><path class="cls-1" d="M64.72,25.91h1.21L63.7,31.79c-.48,1.27-1.09,1.79-2,1.79a1.67,1.67,0,0,1-.92-.22l.16-1a1.74,1.74,0,0,0,.67.17c.44,0,.79-.31,1.06-.92l.17-.4-2.34-5.35h1.27l1.58,3.89Z"/><path class="cls-1" d="M72.16,25.91V31.3h-1.1V26.88H68.64V31.3h-1.1V25.91Z"/><path class="cls-1" d="M79,25.91V31.3H77.89V26.88H75.47V31.3h-1.1V25.91Z"/><path class="cls-1" d="M85.42,25.91h1.06V31.3H85.42v-.74a2.32,2.32,0,0,1-1.84.87,2.53,2.53,0,0,1-1.93-.82,2.88,2.88,0,0,1-.76-2,2.75,2.75,0,0,1,.76-2,2.57,2.57,0,0,1,1.93-.79,2.3,2.3,0,0,1,1.84.88Zm-.44,4a1.93,1.93,0,0,0,0-2.57,1.74,1.74,0,0,0-2.5,0,2,2,0,0,0,0,2.58,1.62,1.62,0,0,0,1.25.52A1.64,1.64,0,0,0,85,29.89Z"/><path class="cls-1" d="M95.21,31.3,93.3,28.89l-.48.45v2H91.73V25.91h1.09V28l2.28-2.13h1.43l-2.45,2.27,2.49,3.12Z"/><path class="cls-1" d="M98.26,26.6a2.85,2.85,0,0,1,4.89,2,2.77,2.77,0,0,1-.81,2,2.95,2.95,0,0,1-4.08,0,2.8,2.8,0,0,1-.8-2A2.77,2.77,0,0,1,98.26,26.6Zm3.27.73a1.67,1.67,0,0,0-2.46,0,1.88,1.88,0,0,0,0,2.55,1.69,1.69,0,0,0,2.46,0,1.85,1.85,0,0,0,0-2.55Z"/><path class="cls-1" d="M105,31.3V25.91h.71l2.46,3.2,2.43-3.2h.72V31.3h-1.09V28l-1.9,2.46H108L106.12,28V31.3Z"/><path class="cls-1" d="M118.19,25.91V31.3h-1.1V26.88h-2.42V31.3h-1.1V25.91Z"/><path class="cls-1" d="M124.62,25.91h1.06V31.3h-1.06v-.74a2.32,2.32,0,0,1-1.84.87,2.49,2.49,0,0,1-1.92-.82,2.88,2.88,0,0,1-.76-2,2.75,2.75,0,0,1,.76-2,2.53,2.53,0,0,1,1.92-.79,2.3,2.3,0,0,1,1.84.88Zm-.44,4a1.93,1.93,0,0,0,0-2.57,1.74,1.74,0,0,0-2.5,0,2,2,0,0,0,0,2.58,1.62,1.62,0,0,0,1.25.52A1.64,1.64,0,0,0,124.18,29.89Z"/><path class="cls-1" d="M131.54,25.91h1.1V31.3h-1.1V29.07H129V31.3H127.9V25.91H129v2.18h2.55Z"/><path class="cls-1" d="M134.86,31.3V25.91h1.07v3.7l3.23-3.7h.69V31.3h-1.07V27.64l-3.23,3.66Z"/><path class="cls-1" d="M142.07,31.3V25.91h1.07v3.7l3.24-3.7h.69V31.3H146V27.64l-3.23,3.66Zm.72-6.71.54-.57a1.63,1.63,0,0,0,1.31.74,1.74,1.74,0,0,0,1.3-.74l.54.57a2.34,2.34,0,0,1-1.84,1A2.28,2.28,0,0,1,142.79,24.59Z"/><path class="cls-1" d="M39.14,16.08a15.72,15.72,0,0,0-1.57-3.15,17.24,17.24,0,0,0-2.14-2.68A9.13,9.13,0,0,0,32.59,5a9.49,9.49,0,0,0-5.44-2.31A6.33,6.33,0,0,0,25.9,1.41,6.12,6.12,0,0,0,19.68.5a4.72,4.72,0,0,0-1.27.93A4.14,4.14,0,0,0,17.18.75a5.72,5.72,0,0,0-4.89.93,8.76,8.76,0,0,0-1.91,1.68A14.55,14.55,0,0,0,9.28,5,4.29,4.29,0,0,0,8.15,5C5.91,5.22,4.5,7.2,3.47,8.65a17.14,17.14,0,0,0-2,3.83A19.74,19.74,0,0,0,.27,16.67a20.22,20.22,0,0,0,.28,8A20.51,20.51,0,0,0,2.9,30.28a21.45,21.45,0,0,0,1.7,2.43A19.73,19.73,0,0,0,16,39.59a20.29,20.29,0,0,0,6.9.21,20,20,0,0,0,7.52-2.7,20.78,20.78,0,0,0,7.92-9A18.21,18.21,0,0,0,39.85,23,17.05,17.05,0,0,0,39.14,16.08ZM34,27.91l0-.15c0-.09-.07-.62-.11-1.36,0,0,0-.33,0-.82,0,0,0-.92,0-1.81a30.15,30.15,0,0,1,.7-4c.12-.54.23-1.06.32-1.52a33.2,33.2,0,0,0,.5-3.61,7.28,7.28,0,0,1,.16-1.21,6,6,0,0,1,1.32,2.24,12.35,12.35,0,0,1,.89,3.06,16.45,16.45,0,0,1-.6,7.23,17.27,17.27,0,0,1-2.92,5.46,7.74,7.74,0,0,0,0-1.18C34.22,29.78,34.06,28.41,34,27.91ZM2.73,24.21A18.42,18.42,0,0,1,4.33,11,9.59,9.59,0,0,1,7,7.54a2.14,2.14,0,0,1,1.19-.43,1,1,0,0,1,.31,0,.86.86,0,0,1,.56.62C9.84,10,9,12.35,8.26,14.46l-.07.2A42,42,0,0,0,6.78,19.3a25.55,25.55,0,0,0-.63,5.05,24.27,24.27,0,0,0,.21,3.46A16.4,16.4,0,0,0,9,34.3a19.16,19.16,0,0,1-4.66-5.81h0A18.63,18.63,0,0,1,2.73,24.21Zm5.66-1.49a26.08,26.08,0,0,1,.47-2.83,37.53,37.53,0,0,1,1.35-4.36,14.48,14.48,0,0,0,1.24-6.3l-.06-.53a6.74,6.74,0,0,1,.19-3.35,4.51,4.51,0,0,1,3.77-2.64h.07a3.3,3.3,0,0,1,2.94,2.74A6.64,6.64,0,0,1,18,8.82l-.24.85c-.28,1.06-.58,2.13-.88,3.22C15.31,18.33,13.73,24,14.63,29.51a15.06,15.06,0,0,0,1,3.5,10.78,10.78,0,0,0,2.68,3.93,9.65,9.65,0,0,0,1.77,1.29c-.25,0-.55,0-.86,0a13.9,13.9,0,0,1-4-.86,9.47,9.47,0,0,1-1.46-.73C9,33.7,7.92,27.31,8.39,22.72ZM20.49,5.17a9.09,9.09,0,0,0-.15-.91c-.13-.68-.18-1,0-1.4.44-.7,1.65-.71,1.68-.71a4.45,4.45,0,0,1,4,3.4c1.13,3.58.08,7.71-.85,11.36l-.23.93a49.38,49.38,0,0,0-1.61,9c-.3,4.81.71,8.09,3.09,10a6.34,6.34,0,0,1-3.77.27,6.44,6.44,0,0,1-2.91-1.7h0a8.41,8.41,0,0,1-2-3C16.26,28.78,16.7,24.88,17,22.3a63.71,63.71,0,0,1,1.92-9L19,13c.38-1.45.78-3,1.09-4.45l.09-.39A9.18,9.18,0,0,0,20.49,5.17ZM27.69,35a2.7,2.7,0,0,1-.92-.84c-1.39-1.9-1.39-4.32-1.29-6.45a43,43,0,0,1,1.2-7.77c.19-.77.38-1.54.58-2.31a38.35,38.35,0,0,0,1.46-8c0-.25,0-.51,0-.76s0-.63,0-1a5.6,5.6,0,0,1,.05-1.7c.15-.59.43-.66.52-.68l.18,0a3.71,3.71,0,0,1,2.15,1.29A7.9,7.9,0,0,1,33.51,12,23.11,23.11,0,0,1,33.07,17c-.13.66-.28,1.34-.44,2.06a25.26,25.26,0,0,0-.76,5.5,47.24,47.24,0,0,0,.38,5.33,5.84,5.84,0,0,1-.72,3.77,3.4,3.4,0,0,1-1.87,1.42A2.73,2.73,0,0,1,27.69,35Z"/></g></g></g></g></svg>