<svg xmlns="http://www.w3.org/2000/svg" viewBox="0 0 56 56"><defs><style>.cls-1{fill:#d4f3fd;}.cls-2,.cls-3{fill:#46b2e8;}.cls-3{opacity:0.3;}</style></defs><title>man</title><g id="Слой_2" data-name="Слой 2"><g id="_1280" data-name="1280"><g id="Index"><g id="body"><rect class="cls-1" width="56" height="56" rx="28"/><path class="cls-2" d="M35.38,22.66C34.9,24.47,33.8,24.87,33.2,25a11.88,11.88,0,0,1-2,3,4.13,4.13,0,0,1-1.24.75,5.45,5.45,0,0,1-4,0,4.13,4.13,0,0,1-1.24-.75,11.88,11.88,0,0,1-2-3c-.6-.08-1.7-.48-2.18-2.29a2.87,2.87,0,0,1,.2-2.35,1.75,1.75,0,0,1,.56-.56c0-.2,0-.44,0-.71a3.36,3.36,0,0,1-.23-3.18,2.81,2.81,0,0,1,2.66-2,4.49,4.49,0,0,1,1.42-1.56,5.49,5.49,0,0,1,3.16-.95,7.08,7.08,0,0,1,4.21,1.48c2.12,1.56,1.94,5,1.89,5.66a8.8,8.8,0,0,1,.1,1.31,1.75,1.75,0,0,1,.56.56A2.87,2.87,0,0,1,35.38,22.66Z"/><path class="cls-3" d="M38.5,31.62l-6.1-2.44a.72.72,0,0,0-.54,0,.69.69,0,0,0-.37.4L30,33.83,29.65,33l.48-1.18a.7.7,0,0,0-.06-.66.71.71,0,0,0-.58-.31h-3a.71.71,0,0,0-.58.31.7.7,0,0,0-.06.66L26.35,33l-.31.87-1.53-4.24a.69.69,0,0,0-.37-.4.68.68,0,0,0-.54,0l-6.1,2.44a4.89,4.89,0,0,0-3.08,4.55V41.1a.69.69,0,0,0,.69.69H40.89a.69.69,0,0,0,.69-.69V36.17A4.89,4.89,0,0,0,38.5,31.62Zm-.63,7.26a.7.7,0,0,1-.7.7H32.49a.7.7,0,0,1-.7-.7V36.71a.7.7,0,0,1,.7-.7h4.68a.7.7,0,0,1,.7.7Z"/></g></g></g></g></svg>