<svg xmlns="http://www.w3.org/2000/svg" xmlns:xlink="http://www.w3.org/1999/xlink" viewBox="0 0 60.58 50.03"><defs><style>.cls-1{fill:none;}.cls-2{clip-path:url(#clip-path);}.cls-3{fill:#1b1b1b;}.cls-4{fill:#262626;}</style><clipPath id="clip-path" transform="translate(0 -0.09)"><rect class="cls-1" width="60.66" height="50.13"/></clipPath></defs><title>minculture</title><g id="Слой_2" data-name="Слой 2"><g id="_1280" data-name="1280"><g id="Index"><g id="body"><g class="cls-2"><path class="cls-3" d="M3.31,44.48c0,.13,0,.35.2.4a.94.94,0,0,0,.25,0s0,0,0,0,0,0-.08,0H3.08C3,45,3,45,3,44.92s0,0,0,0,0-.08,0-.15l-.18-2h0l-.93,2c-.08.16-.09.2-.13.2s0,0-.11-.18-.43-.84-.45-.88-.46-1-.5-1.08h0L.53,44.58v.2a.12.12,0,0,0,.1.11.45.45,0,0,0,.14,0s0,0,0,0,0,0-.06,0H.06S0,45,0,44.93s0,0,0,0H.15c.13,0,.14-.17.15-.31l.28-2.48s0-.06,0-.06,0,0,.06.05l1.16,2.39L3,42.11s0-.06.06-.06,0,0,0,.1l.26,2.33m1.16.46c0,.13,0,.14.09.06l0-.06.32-.4c.47-.62,1-1.21,1.47-1.8,0,0,.05,0,.05,0v1.1c0,.36,0,.66,0,.82s0,.19-.11.21H6.2s0,0,0,0,0,0,.06,0h.84s.06,0,.06,0a0,0,0,0,0,0,0H6.93c-.12,0-.14-.1-.15-.21s0-.46,0-.82V42.15c0-.12,0-.14-.09-.06-.78,1-1.31,1.64-1.85,2.27,0,0,0,0,0,0v-2c0-.13,0-.2.14-.22H5l0,0s0,0-.06,0H4.2s-.06,0-.06,0,0,0,0,0H4.3c.12,0,.15.09.16.22s0,.23,0,.82ZM10.4,43.2c0-.59,0-.7,0-.82s0-.2.14-.22h.09s0,0,0,0,0,0-.06,0h-.8s-.06,0-.06,0l0,0h.13c.13,0,.16.09.16.22s0,.27,0,.86v.08s0,0,0,0H8.45s0,0,0,0v-.08c0-.59,0-.74,0-.86s0-.2.14-.22h.09s0,0,0,0,0,0-.06,0h-.8s-.06,0-.06,0l0,0h.13c.12,0,.15.09.16.22s0,.23,0,.82v.67c0,.36,0,.66,0,.82s0,.19-.11.21H7.87s0,0,0,0,0,0,.06,0h.84s.06,0,.06,0a0,0,0,0,0,0,0H8.6c-.12,0-.14-.1-.15-.21s0-.46,0-.82v-.36s0,0,0,0h1.61l0,0v.36c0,.36,0,.66,0,.82s0,.19-.11.21H9.84a0,0,0,0,0,0,0s0,0,.06,0h.84s.06,0,.06,0a0,0,0,0,0,0,0h-.17c-.12,0-.14-.1-.15-.21s0-.46,0-.82Zm1.35,1.74c0,.13,0,.14.09.06l.05-.06.31-.4c.47-.62,1-1.21,1.47-1.8,0,0,.05,0,.05,0v1.1c0,.36,0,.66,0,.82s0,.19-.11.21h-.11a0,0,0,0,0,0,0s0,0,.06,0h.84s.06,0,.06,0a0,0,0,0,0,0,0h-.17c-.11,0-.14-.1-.15-.21s0-.46,0-.82V42.15c0-.12,0-.14-.09-.06-.78,1-1.31,1.64-1.85,2.27,0,0,0,0,0,0,0-1.25,0-1.84,0-2s0-.2.14-.22h.09s0,0,0,0,0,0-.06,0h-.8s-.06,0-.06,0l0,0h.13c.13,0,.16.09.16.22s0,.23,0,.82Zm3.08-1.45A1.49,1.49,0,0,0,16.54,45a2.2,2.2,0,0,0,.68-.09c.07,0,.08,0,.1-.11a3.58,3.58,0,0,0,.08-.48s0-.06,0-.06,0,0,0,.06a.73.73,0,0,1-.14.32.9.9,0,0,1-.66.19,1.38,1.38,0,0,1-1.37-1.39c0-.67.24-1.27,1.21-1.27.48,0,.92.16.92.6,0,.06,0,.08,0,.08s0,0,0-.24,0-.4,0-.44,0,0,0,0a8.87,8.87,0,0,0-.94-.1,1.42,1.42,0,0,0-1.58,1.44m4.42-1.23h.48c.37,0,.45.1.47.21v0s0,.06,0,.06,0,0,0,0,0-.31,0-.42,0,0,0,0a1.69,1.69,0,0,1-.37,0H18.45l-.3,0a.81.81,0,0,1-.16,0s0,.05,0,.07-.08.35-.08.39,0,0,0,0,0,0,0,0a1,1,0,0,1,.07-.12c.06-.09.15-.12.38-.12h.57v1.61c0,.36,0,.66,0,.82s0,.19-.11.21h-.12a0,0,0,0,0,0,0s0,0,.06,0h.84s.06,0,.06,0a0,0,0,0,0,0,0h-.17c-.11,0-.14-.1-.15-.21s0-.46,0-.82Zm2.14,0s0,0,0,0h.44c.22,0,.31.08.34.13a.44.44,0,0,1,0,.14s0,0,0,0,0,0,0,0a1.81,1.81,0,0,1,0-.25c0-.11,0-.16,0-.18s0,0,0,0l-.05,0H20.8s-.06,0-.06,0,0,0,0,0h.13c.12,0,.14.09.16.18s0,.22,0,.86v.67a7.06,7.06,0,0,1,0,.87c0,.11,0,.14-.1.16h-.12a0,0,0,0,0,0,0s0,0,.06,0h.38c.11,0,.36,0,.93,0,.15,0,.18,0,.21-.1a3.5,3.5,0,0,0,.05-.37s0-.06,0-.06,0,0,0,.06-.07.23-.17.27a.92.92,0,0,1-.36,0c-.38,0-.44-.06-.44-.31v-1s0,0,0,0a5.15,5.15,0,0,1,.54,0c.15,0,.19.08.2.13a.3.3,0,0,1,0,.12s0,0,0,0,0,0,0-.07a3.6,3.6,0,0,1,.05-.46s0,0,0,0,0,0-.06.05-.09,0-.18,0h-.6s0,0,0,0Zm2,1.58c0,.36,0,.66,0,.82s0,.19-.11.21h-.11a0,0,0,0,0,0,0s0,0,.06,0H24s.06,0,.06,0a0,0,0,0,0,0,0h-.17c-.11,0-.14-.1-.15-.21s0-.46,0-.82V42.31s0-.07,0-.07a.4.4,0,0,1,.17,0,.7.7,0,0,1,.52.19.82.82,0,0,1,.21.59.63.63,0,0,1-.66.62c-.08,0-.1,0-.1,0s0,0,0,0H24a.87.87,0,0,0,.93-.9.63.63,0,0,0-.19-.45.9.9,0,0,0-.7-.22h-.91s-.06,0-.06,0l0,0h.13c.13,0,.16.09.16.22s0,.23,0,.82Zm2-.38A1.5,1.5,0,0,0,27.09,45a2.22,2.22,0,0,0,.69-.09c.07,0,.07,0,.1-.11s.08-.46.08-.48,0-.06,0-.06,0,0,0,.06a.73.73,0,0,1-.14.32.89.89,0,0,1-.66.19,1.37,1.37,0,0,1-1.36-1.39c0-.67.23-1.27,1.21-1.27.47,0,.92.16.92.6,0,.06,0,.08,0,.08s0,0,0-.24,0-.4,0-.44,0,0-.05,0a8.27,8.27,0,0,0-.93-.1,1.43,1.43,0,0,0-1.59,1.44m4.3-1.23h.48c.36,0,.45.1.46.21v0s0,.06,0,.06,0,0,0,0,0-.31,0-.42,0,0,0,0a1.69,1.69,0,0,1-.37,0H28.88l-.3,0a1.47,1.47,0,0,1-.17,0s0,.05,0,.07-.08.35-.08.39,0,0,0,0l0,0a.62.62,0,0,1,.06-.12c.06-.09.15-.12.39-.12h.56v1.61c0,.36,0,.66,0,.82s0,.19-.11.21h-.11s0,0,0,0,0,0,.06,0H30c.05,0,.07,0,.07,0s0,0,0,0h-.17c-.11,0-.13-.1-.14-.21s0-.46,0-.82Zm3.44,1.89a.87.87,0,0,1-1,.83l-.5,0h-.37s-.06,0-.06,0a0,0,0,0,1,0,0h.11c.06,0,.08,0,.1-.16a7.06,7.06,0,0,0,0-.87V43.2c0-.64,0-.8,0-.86a.17.17,0,0,0-.16-.18h-.13l0,0s0,0,.06,0h.84c.63,0,.76.38.76.57a1,1,0,0,1-.35.68A.89.89,0,0,1,33.12,44.15Zm-1.33-.87s0,0,0,0a.75.75,0,0,0,.23,0c.21,0,.27,0,.35-.1a.58.58,0,0,0,.13-.38c0-.32-.14-.65-.51-.65h-.18s-.05,0-.05.05Zm1,1a.93.93,0,0,0-.37-.77.65.65,0,0,0-.41-.11c-.22,0-.23,0-.23,0v.92c0,.28,0,.35.14.41a.86.86,0,0,0,.33.06A.51.51,0,0,0,32.8,44.32Zm3.72-.85A1.49,1.49,0,0,1,35,45a1.42,1.42,0,0,1-1.47-1.49A1.47,1.47,0,0,1,35,42.05,1.38,1.38,0,0,1,36.52,43.47Zm-.37.1c0-.91-.55-1.39-1.15-1.39a1.09,1.09,0,0,0-1.11,1.24,1.3,1.3,0,0,0,1.21,1.46C35.45,44.88,36.15,44.68,36.15,43.57Zm2.52.3c0,.36,0,.66,0,.82s0,.19-.11.21h-.12a0,0,0,0,0,0,0s0,0,.06,0h.8s.06,0,.06,0,0,0,0,0h-.14c-.12,0-.14-.1-.15-.21a6.48,6.48,0,0,1,0-.82V43.5h0c.18.22,1,1.09,1.16,1.23a.75.75,0,0,0,.45.23h.46c.06,0,.08,0,.08,0s0,0,0,0a.54.54,0,0,1-.23,0c-.18-.07-.25-.13-.57-.43-.15-.14-.94-1-1-1.07l.83-.83a1.48,1.48,0,0,1,.41-.32.52.52,0,0,1,.22-.06s0,0,0,0,0,0-.06,0H40s0,0,0,0l0,0s0,0,0,.08-.1.16-.21.27-.82.84-.88.92h0V43.2c0-.59,0-.7,0-.82s0-.2.14-.22h.09s0,0,0,0,0,0-.06,0H38.4s-.06,0-.06,0,0,0,0,0h.13c.12,0,.15.09.16.22s0,.23,0,.82Zm4,.8c-.1.27-.19.45-.37.45S42,45,42,44.75s0-.08,0-.08,0,0,0,0a3.75,3.75,0,0,0,0,.48.1.1,0,0,0,.06.09.68.68,0,0,0,.26.07c.2,0,.39-.2.52-.53l.93-2.27c.1-.26.17-.32.22-.35a.32.32,0,0,1,.18-.05s0,0,0,0,0,0-.06,0h-.67c-.06,0-.08,0-.09,0s0,0,.05,0a.36.36,0,0,1,.14,0,.07.07,0,0,1,0,.08l-.05.18c-.1.3-.52,1.39-.73,1.92l-.85-1.81a1.08,1.08,0,0,1-.1-.29.08.08,0,0,1,.05-.08l.14,0s0,0,0,0,0,0-.1,0h-.8c-.06,0-.09,0-.09,0s0,0,0,0a.45.45,0,0,1,.14,0c.13,0,.17.08.27.29Zm2-1,.34-1c0-.06,0-.06.05,0l.36,1,.07.19.35.93a.08.08,0,0,1,0,.11l0,0s.05,0,.12,0h.59s.08,0,.08,0,0,0,0,0a.44.44,0,0,1-.15,0c-.08,0-.19-.08-.33-.42-.23-.58-.82-2.14-.88-2.29s-.06-.13-.08-.13,0,0-.09.14l-.86,2.36c-.07.19-.14.33-.32.36h-.11a0,0,0,0,0,0,0s0,0,.07,0h.73s0,0,0,0a0,0,0,0,0,0,0h0c-.07,0-.15,0-.15-.11a.69.69,0,0,1,.06-.25Zm4.08.47a.87.87,0,0,1-1,.83l-.51,0h-.37s-.06,0-.06,0a0,0,0,0,1,0,0H47c.08,0,.1-.1.11-.21s0-.46,0-.82V42.38a.19.19,0,0,0-.14-.21l-.12,0s0,0,0,0,0,0,.06,0h.75s.07,0,.07,0l0,0h-.09c-.1,0-.13.09-.14.22v.9s0,0,0,0a.8.8,0,0,0,.23,0C48.09,43.34,48.75,43.45,48.75,44.15Zm-.32.17a.93.93,0,0,0-.37-.77.81.81,0,0,0-.58-.11s0,0,0,.06v1c0,.19,0,.24.13.3a.86.86,0,0,0,.33.06A.51.51,0,0,0,48.43,44.32Zm1.84-2.06h.48c.36,0,.45.1.46.21v0s0,.06,0,.06,0,0,0,0,0-.31,0-.42,0,0,0,0a1.85,1.85,0,0,1-.38,0H49.47l-.3,0a1.47,1.47,0,0,1-.17,0s0,.05,0,.07-.09.35-.09.39,0,0,0,0,0,0,0,0l.06-.12c.06-.09.15-.12.39-.12H50v1.61c0,.36,0,.66,0,.82s0,.19-.11.21h-.11a0,0,0,0,0,0,0s0,0,.06,0h.84s.06,0,.06,0a0,0,0,0,0,0,0h-.17c-.12,0-.14-.1-.15-.21s0-.46,0-.82Zm2.8,2.41c-.1.27-.19.45-.37.45s-.26-.17-.26-.37,0-.08,0-.08,0,0,0,0a3.75,3.75,0,0,0,0,.48.1.1,0,0,0,.06.09.68.68,0,0,0,.26.07c.2,0,.39-.2.52-.53l.93-2.27c.1-.26.17-.32.22-.35a.32.32,0,0,1,.18-.05s0,0,0,0,0,0-.06,0h-.67c-.06,0-.08,0-.09,0s0,0,.05,0a.36.36,0,0,1,.14,0,.07.07,0,0,1,0,.08l-.05.18c-.1.3-.52,1.39-.73,1.92l-.85-1.81a1.08,1.08,0,0,1-.1-.29.08.08,0,0,1,.05-.08l.15,0s0,0,0,0,0,0-.1,0h-.8c-.06,0-.09,0-.09,0s0,0,0,0a.45.45,0,0,1,.14,0c.13,0,.17.08.27.29Zm2.09-.8c0,.36,0,.66,0,.82s0,.19-.12.21h-.11a0,0,0,0,0,0,0s0,0,.06,0h.83s.06,0,.06,0,0,0,0,0h-.17c-.11,0-.13-.1-.15-.21s0-.46,0-.82V42.31s0-.07,0-.07a.32.32,0,0,1,.16,0,.67.67,0,0,1,.52.19.82.82,0,0,1,.21.59.63.63,0,0,1-.66.62c-.08,0-.1,0-.1,0s0,0,0,0h.08a.88.88,0,0,0,.94-.9.67.67,0,0,0-.19-.45.91.91,0,0,0-.71-.22h-.91s-.06,0-.06,0l0,0H55c.13,0,.16.09.17.22v1.49Zm4.07.28a.87.87,0,0,1-1,.83l-.5,0h-.37s-.06,0-.06,0,0,0,0,0h.11c.08,0,.1-.1.11-.21s0-.46,0-.82V43.2c0-.59,0-.58,0-.82a.19.19,0,0,0-.15-.21l-.11,0s0,0,0,0,0,0,.06,0h.75s.06,0,.06,0,0,0,0,0h-.09c-.11,0-.14.09-.14.22v.9s0,0,0,0a.75.75,0,0,0,.23,0h.12A.85.85,0,0,1,59.23,44.15Zm-.33.17a.79.79,0,0,0-.78-.86c-.19,0-.22,0-.22.14v.08c0,.3,0,.77,0,.82s0,.24.13.3a.86.86,0,0,0,.33.06A.51.51,0,0,0,58.9,44.32Zm1.25-1.12c0-.59,0-.7,0-.82s0-.2.14-.22h.09s0,0,0,0,0,0-.06,0h-.75s-.06,0-.06,0,0,0,0,0l.11,0c.09,0,.12.08.13.21s0,.23,0,.82v.67c0,.36,0,.66,0,.82s0,.19-.11.21h-.11s0,0,0,0,0,0,.06,0h.84s.06,0,.06,0a0,0,0,0,0,0,0h-.17c-.12,0-.14-.1-.15-.21s0-.46,0-.82ZM.42,48.69c0,.36,0,.66,0,.82s0,.19-.11.21H.18s0,0,0,0,0,0,.06,0l.36,0,.47,0s.06,0,.06,0a0,0,0,0,0,0,0H.9c-.12,0-.14-.1-.15-.21s0-.46,0-.82V47.13s0-.07,0-.08l.16,0a.67.67,0,0,1,.52.19.79.79,0,0,1,.22.59.63.63,0,0,1-.66.61c-.08,0-.1,0-.1,0s0,0,0,0H1a.88.88,0,0,0,.93-.9.64.64,0,0,0-.19-.46,1,1,0,0,0-.7-.21H.15s-.06,0-.06,0l0,0H.25c.12,0,.16.09.16.22s0,.23,0,.82Zm5-.4A1.49,1.49,0,0,1,3.9,49.84a1.43,1.43,0,0,1-1.48-1.49,1.47,1.47,0,0,1,1.5-1.49A1.39,1.39,0,0,1,5.41,48.29Zm-.36.1A1.24,1.24,0,0,0,3.89,47a1.1,1.1,0,0,0-1.11,1.25A1.3,1.3,0,0,0,4,49.7C4.34,49.7,5.05,49.5,5.05,48.39Zm1-.08a1.5,1.5,0,0,0,1.71,1.53,2.26,2.26,0,0,0,.69-.09.13.13,0,0,0,.09-.11,4,4,0,0,0,.09-.48s0-.06,0-.06,0,0,0,.06a.7.7,0,0,1-.14.31.85.85,0,0,1-.66.2,1.38,1.38,0,0,1-1.37-1.39c0-.68.24-1.27,1.22-1.27.47,0,.91.16.91.6,0,.06,0,.08,0,.08s0-.06,0-.24,0-.4,0-.44,0,0-.05,0a7.8,7.8,0,0,0-.94-.11A1.43,1.43,0,0,0,6,48.31m3.06,0a1.49,1.49,0,0,0,1.71,1.53,2.2,2.2,0,0,0,.68-.09c.07,0,.07,0,.1-.11a3.58,3.58,0,0,0,.08-.48s0-.06,0-.06,0,0,0,.06a.7.7,0,0,1-.14.31.87.87,0,0,1-.66.2A1.37,1.37,0,0,1,9.4,48.28c0-.68.24-1.27,1.21-1.27.47,0,.92.16.92.6,0,.06,0,.08,0,.08s0-.06,0-.24,0-.4,0-.44,0,0,0,0a7.55,7.55,0,0,0-.93-.11,1.42,1.42,0,0,0-1.58,1.45m3.48,1.45c0,.13,0,.14.09.06l0-.06.31-.4c.47-.62,1-1.21,1.47-1.8,0,0,0,0,0,0v1.1c0,.36,0,.66,0,.82s0,.19-.11.21h-.12a0,0,0,0,0,0,0s0,0,.06,0l.37,0,.47,0s.06,0,.06,0a0,0,0,0,0,0,0H15c-.11,0-.14-.1-.15-.21s0-.46,0-.82V47c0-.12,0-.14-.09-.06-.78,1-1.31,1.64-1.85,2.27,0,0,0,0,0,0,0-1.25,0-1.84,0-2s0-.2.14-.22h.09s0,0,0,0,0,0-.06,0h-.8s-.06,0-.06,0l0,0h.13c.13,0,.16.09.16.22s0,.23,0,.82Zm3.64,0c0,.13.05.14.09.06l.05-.06.31-.4c.48-.62,1-1.21,1.47-1.8,0,0,.06,0,.06,0v1.1c0,.36,0,.66,0,.82s0,.19-.11.21h-.12a0,0,0,0,0,0,0s0,0,.06,0l.38,0,.46,0s.06,0,.06,0,0,0,0,0h-.17c-.11,0-.13-.1-.15-.21s0-.46,0-.82V47c0-.12,0-.14-.09-.06-.77,1-1.31,1.64-1.84,2.27,0,0,0,0,0,0,0-1.25,0-1.84,0-2s0-.2.14-.22h.09l0,0s0,0-.07,0h-.8s-.06,0-.06,0l0,0H16c.13,0,.16.09.17.22v2.56Zm3.21-1.45a1.5,1.5,0,0,0,1.71,1.53,2.26,2.26,0,0,0,.69-.09.16.16,0,0,0,.1-.11c0-.13.08-.46.08-.48s0-.06,0-.06,0,0,0,.06a.7.7,0,0,1-.14.31.85.85,0,0,1-.66.2,1.38,1.38,0,0,1-1.37-1.39C19.73,47.6,20,47,21,47c.47,0,.92.16.92.6,0,.06,0,.08,0,.08s0-.06,0-.24,0-.4,0-.44,0,0-.05,0a7.53,7.53,0,0,0-.94-.11,1.43,1.43,0,0,0-1.58,1.45m3.49.38c0,.36,0,.66,0,.82s0,.19-.11.21h-.11s0,0,0,0,0,0,.06,0l.36,0,.44,0s.06,0,.06,0a0,0,0,0,0,0,0h-.15c-.11,0-.14-.1-.15-.21s0-.46,0-.82v-.38h0c.18.23,1,1.1,1.16,1.24a.78.78,0,0,0,.46.23h.45c.07,0,.09,0,.09,0s0,0-.05,0a.55.55,0,0,1-.24,0c-.18-.07-.24-.13-.56-.43-.16-.14-1-1-1.05-1.07.08-.09.74-.74.84-.83a1.45,1.45,0,0,1,.41-.33.58.58,0,0,1,.21-.05s0,0,0,0,0,0-.06,0h-.65l0,0a0,0,0,0,0,0,0,.09.09,0,0,1,.05.08c0,.07-.1.17-.2.28s-.83.84-.89.92h0V48c0-.59,0-.7,0-.82s0-.2.14-.22h.1l0,0s0,0-.06,0h-.79s-.06,0-.06,0,0,0,0,0h.13c.12,0,.15.09.16.22s0,.23,0,.82Zm5.4-.4a1.48,1.48,0,0,1-1.51,1.55,1.42,1.42,0,0,1-1.47-1.49,1.47,1.47,0,0,1,1.49-1.49A1.38,1.38,0,0,1,28.28,48.29Zm-.36.1c0-.91-.55-1.4-1.15-1.4a1.09,1.09,0,0,0-1.11,1.25,1.3,1.3,0,0,0,1.21,1.46C27.22,49.7,27.92,49.5,27.92,48.39Zm1.18,1.37c0,.13,0,.14.09.06l0-.06.32-.4c.47-.62,1-1.21,1.47-1.8,0,0,.05,0,.05,0v1.1c0,.36,0,.66,0,.82s0,.19-.11.21h-.11s0,0,0,0,0,0,.06,0l.37,0,.46,0s.07,0,.07,0,0,0,0,0h-.17c-.11,0-.13-.1-.14-.21s0-.46,0-.82V47c0-.12,0-.14-.09-.06-.78,1-1.31,1.64-1.85,2.27,0,0,0,0,0,0,0-1.25,0-1.84,0-2s0-.2.14-.22h.1l0,0s0,0-.06,0h-.8s-.06,0-.06,0,0,0,0,0h.13c.12,0,.15.09.16.22s0,.23,0,.82Zm6.18-.27v0c0,.13,0,.3.14.32h.17s0,0,0,0,0,0-.07,0l-.46,0-.37,0s-.06,0-.06,0,0,0,0,0h.11c.11,0,.09-.19.12-.32v0a1.24,1.24,0,0,1-1.31-1.16,1.3,1.3,0,0,1,1.31-1.19h0c0-.11,0-.23-.12-.25l-.12,0s0,0,0,0,0,0,.06,0h.76s.06,0,.06,0,0,0,0,0l-.1,0c-.09,0-.12.13-.13.25h0c.75,0,1.29.48,1.29,1.12A1.3,1.3,0,0,1,35.28,49.49Zm-.34-2.1v-.13s0,0,0,0a1,1,0,0,0-.95,1,1.09,1.09,0,0,0,.94,1.1s0,0,0,0,0-.39,0-.66Zm.34,2a1,1,0,0,0,.95-1,1.08,1.08,0,0,0-.85-1.09.12.12,0,0,0-.08,0s0,0,0,.11v1.32c0,.28,0,.51,0,.68A0,0,0,0,0,35.28,49.39Zm2.51-2.29s0,0,0,0h.44c.22,0,.32.08.34.13a.44.44,0,0,1,0,.14s0,0,0,0,0,0,0,0,0-.21,0-.25,0-.15,0-.17,0,0,0,0l-.06,0H37.2s-.06,0-.06,0,0,0,0,0h.13a.18.18,0,0,1,.16.18c0,.06,0,.22,0,.86v.67a6.74,6.74,0,0,1,0,.86c0,.12,0,.15-.1.17h-.11s0,0,0,0,0,0,.06,0l.37,0c.11,0,.36,0,.94,0,.14,0,.17,0,.2-.1a3.5,3.5,0,0,0,0-.37s0-.06,0-.06,0,0,0,.06-.07.23-.17.27a.9.9,0,0,1-.36,0c-.37,0-.44-.06-.44-.32v-1s0,0,0,0h.55c.14,0,.18.08.19.14a.27.27,0,0,1,0,.12s0,0,0,0,0,0,0-.08a3.36,3.36,0,0,1,.05-.45s0,0,0,0,0,0-.06.05-.09,0-.18,0h-.6s0,0,0,0Zm4.62,2.52c0,.12-.08.4-.09.44s0,0,0,0,0,0,0-.07v0c0-.12,0-.23-.33-.23H39.68c-.25,0-.28,0-.31.13a1,1,0,0,0,0,.17s0,0,0,0,0,0,0,0-.07-.4-.08-.44,0-.07,0-.07a.68.68,0,0,0,.2,0c.2,0,.27-.1.33-.27L40.7,47c0-.12.07-.14.09-.14s0,0,.09.13.69,1.72.93,2.3a1.35,1.35,0,0,0,.15.26.28.28,0,0,0,.23.08,1.06,1.06,0,0,0,.21,0S42.41,49.6,42.41,49.62Zm-.81,0h0l-.84-2.15c0-.06-.06-.06-.08,0L40,49.34a1,1,0,0,0,0,.26h0C40.37,49.63,40.94,49.63,41.6,49.61Zm1.82-2.51s0,0,0,0h.44c.23,0,.32.08.34.13a.51.51,0,0,1,0,.14s0,0,0,0,0,0,0,0a2.11,2.11,0,0,0,0-.25c0-.1,0-.15,0-.17s0,0,0,0,0,0-.05,0H42.83s-.06,0-.06,0l0,0h.13a.17.17,0,0,1,.16.18c0,.06,0,.22,0,.86v.67c0,.46,0,.77,0,.86s0,.15-.11.17h-.11a0,0,0,0,0,0,0s0,0,.06,0l.37,0c.11,0,.37,0,.94,0,.15,0,.18,0,.2-.1a3.5,3.5,0,0,0,.05-.37s0-.06,0-.06,0,0,0,.06-.08.23-.17.27a1,1,0,0,1-.37,0c-.37,0-.44-.06-.44-.32v-1s0,0,0,0H44c.15,0,.18.08.2.14a.53.53,0,0,1,0,.12s0,0,0,0,0,0,0-.08a4.17,4.17,0,0,1,0-.45s0,0,0,0l-.05.05s-.09,0-.18,0h-.61s0,0,0,0Zm2.21,1.59c0,.36,0,.66,0,.82s0,.19-.11.21h-.11s0,0,0,0,0,0,.06,0l.36,0,.47,0s.06,0,.06,0a0,0,0,0,0,0,0h-.17c-.12,0-.14-.1-.15-.21s0-.46,0-.82V47.13s0-.07,0-.08l.16,0a.67.67,0,0,1,.52.19.84.84,0,0,1,.22.59.63.63,0,0,1-.66.61c-.08,0-.1,0-.1,0s0,0,0,0h.08a.88.88,0,0,0,.93-.9.64.64,0,0,0-.19-.46,1,1,0,0,0-.7-.21h-.91s-.06,0-.06,0,0,0,0,0h.13c.12,0,.15.09.16.22s0,.23,0,.82Zm4.44,1.07s0,0-.07,0h-.6c-.07,0-.11,0-.11,0a0,0,0,0,1,0,0s0,0,0-.06v-.05L49,48.69s0,0,0,0h-.82s0,0,0,0l-.22.67a.65.65,0,0,0-.06.25c0,.08.08.11.15.11h0a0,0,0,0,1,0,0s0,0-.05,0l-.3,0-.43,0s-.07,0-.07,0a0,0,0,0,1,0,0h.11c.18,0,.26-.17.32-.36L48.5,47c0-.12.07-.15.09-.15s0,0,.08.14.65,1.71.89,2.29c.13.34.24.4.32.42a.47.47,0,0,0,.15,0S50.07,49.74,50.07,49.76ZM48.91,48.5l-.36-1s0,0,0,0a0,0,0,0,0,0,0l-.34,1s0,0,0,0h.73S48.92,48.52,48.91,48.5Zm3.66,1a.42.42,0,0,1,0,.13,11.6,11.6,0,0,1-1.56,0,.25.25,0,0,1,0-.13c0-.16,0-.46,0-.82,0-1.27,0-1.37,0-1.49s0-.2.14-.22h.1l0,0s0,0-.07,0h-.8s-.06,0-.06,0l0,0h.13c.13,0,.16.09.17.22v1.49c0,.36,0,.66,0,.82s0,.19-.11.21h-.11a0,0,0,0,0,0,0s0,0,.06,0l.37,0,.33,0h1.38l.27,0h.18c.31,0,.29.13.29.25v0c0,.06,0,.07,0,.07s0,0,0-.05.06-.32.08-.44,0,0,0,0l-.2,0s-.25.07-.25-.24V47.2c0-.13,0-.2.14-.22h.1l0,0s0,0-.06,0h-.8s-.06,0-.06,0,0,0,0,0h.13c.12,0,.15.09.16.22s0,.23,0,.82v.67c0,.36,0,.66,0,.82m1.69.25c0,.13,0,.14.09.06l0-.06.32-.4c.47-.62,1-1.21,1.47-1.8,0,0,0,0,0,0v1.1c0,.36,0,.66,0,.82s0,.19-.11.21H56s0,0,0,0,0,0,.06,0l.37,0,.46,0s.06,0,.06,0,0,0,0,0h-.17c-.11,0-.13-.1-.14-.21s0-.46,0-.82V47c0-.12,0-.14-.09-.06-.78,1-1.31,1.64-1.85,2.27,0,0,0,0,0,0,0-1.25,0-1.84,0-2s0-.2.14-.22h.1l0,0s0,0-.06,0H54c-.05,0-.06,0-.06,0s0,0,0,0h.12c.13,0,.16.09.17.22s0,.23,0,.82Zm3.66,0c0,.13,0,.14.09.06l.05-.06.31-.4c.48-.62,1-1.21,1.47-1.8,0,0,.06,0,.06,0v1.1c0,.36,0,.66,0,.82s0,.19-.11.21h-.12a0,0,0,0,0,0,0s0,0,.06,0l.38,0,.46,0s.06,0,.06,0,0,0,0,0h-.17c-.11,0-.13-.1-.15-.21s0-.46,0-.82V47c0-.12,0-.14-.1-.06-.77,1-1.3,1.64-1.84,2.27,0,0,0,0,0,0,0-1.25,0-1.84,0-2s0-.2.14-.22h.1l0,0s0,0-.07,0h-.8s-.06,0-.06,0l0,0h.13c.13,0,.16.09.17.22v2.56ZM18,46.28c0-.05,0-.09,0-.11s-.05,0-.11.08a.55.55,0,0,1-.38.19.26.26,0,0,1-.29-.25c0-.1,0-.18-.05-.18s-.19.17-.19.26.15.29.45.29A.72.72,0,0,0,18,46.28Zm12.82,0c0-.05.05-.09,0-.11s-.05,0-.11.08a.58.58,0,0,1-.39.19.26.26,0,0,1-.28-.25c0-.1,0-.18,0-.18s-.19.17-.19.26.15.29.45.29A.68.68,0,0,0,30.84,46.28Z" transform="translate(0 -0.09)"/><path class="cls-4" d="M22.09,21.18l.33-.7-.21-.1-.45.58,0,.25.28,0m1.64.19,0-.68-.24,0-.17.65.16.21Zm13.32.15.15-.21L37,20.66l-.24,0,0,.68Zm1.68-.31.05-.25-.45-.58-.21.1.33.7Zm1-1.07-.08-.25L39,19.6l-.11.21.64.44Zm-19-3.21.06.27.73.27.11-.21L21,16.85Zm.66,1.49-.76-.1-.2.18.17.22.77-.06Zm-.48,1.47-.07.25.25.11.64-.44-.11-.21ZM39.8,17.2l.06-.27-.25-.08-.65.41.12.21Zm8.39.32a3,3,0,0,0-.74-.28,4.18,4.18,0,0,0-.88-.07,3.08,3.08,0,0,0,.58-.26,2.43,2.43,0,0,0,1.07-1.67,8.53,8.53,0,0,0-.88-.05,7.08,7.08,0,0,0-1.06.08,2.64,2.64,0,0,0,.87-.6,2.29,2.29,0,0,0,.62-1.76,1.79,1.79,0,0,0-.69-.05,1.35,1.35,0,0,0-.63.16,2.74,2.74,0,0,0,.79-1.64A1.81,1.81,0,0,0,47,10.11a2,2,0,0,0-.73.39c-.48.36-1.14,1-1.14,1a3.25,3.25,0,0,0,.37-.6A4.41,4.41,0,0,0,46,7.49c-.24-.44-.7-.47-.91-.15s-.63,1.26-1,2A18,18,0,0,1,42.4,12c-.18-.38-.35-.11-.35-.11l-.57,1a4.76,4.76,0,0,1-.84,1,1.74,1.74,0,0,0-.55-.45l-.08.08s-2,2.06-2.58,2.86-.15,1.17.29,1.82a1.12,1.12,0,0,1-.66,1.77,1.18,1.18,0,0,1-1.56-.36,1.83,1.83,0,0,0,1.17-1.63,2,2,0,0,0-.05-.41,1.69,1.69,0,0,0-1.68-1.4,1.9,1.9,0,0,0-.83.19,1.87,1.87,0,0,0-.39.25l-.07.07a1.91,1.91,0,0,1,.11-2.08,3.32,3.32,0,0,1,1.32-1.36l.19.16s0-.07.4-.26a.92.92,0,0,1,1.14.24,1.2,1.2,0,0,1,.27.77,1.32,1.32,0,0,0,.35-.52.81.81,0,0,0,0-.51s.33.12.68.27a1.32,1.32,0,0,0,1.44-.11A1.28,1.28,0,0,0,40,12.12a1.46,1.46,0,0,1-.89.57,2.44,2.44,0,0,1-1.28-.32,4,4,0,0,0-.82-.22A1.25,1.25,0,0,1,38.11,12c.53.17.6.38.6.38a1.6,1.6,0,0,0,.45-.61,1,1,0,0,0-.25-1.12,2.62,2.62,0,0,0-.94-.47.16.16,0,0,0-.11-.24l-.38-.11a.62.62,0,0,0-.36-.74c-.82-.37-2.14.32-3.57.53a2,2,0,0,1-1.38-.16,1.08,1.08,0,0,0,.27.42,2.26,2.26,0,0,0,.63.5,2.08,2.08,0,0,1-.52,0c-.24,0-.65-.14-.65-.14a1.49,1.49,0,0,0,.38.4,3,3,0,0,0,.52.31,9.54,9.54,0,0,1-1,.4,5.91,5.91,0,0,1-1.18.15,2,2,0,0,0,.59.37,2.71,2.71,0,0,0,.5.15,7.66,7.66,0,0,0-.63,1c-.24.45-.6,1.29-.8,1.76-.2-.47-.57-1.31-.8-1.76a8.29,8.29,0,0,0-.64-1,2.71,2.71,0,0,0,.5-.15,1.87,1.87,0,0,0,.59-.37,5.77,5.77,0,0,1-1.17-.15,9.11,9.11,0,0,1-1-.4,3,3,0,0,0,.52-.31,1.44,1.44,0,0,0,.39-.4l-.65.14a2,2,0,0,1-.52,0,2.44,2.44,0,0,0,.63-.5,1.13,1.13,0,0,0,.26-.42,2,2,0,0,1-1.37.16c-1.44-.21-2.75-.9-3.58-.53a.62.62,0,0,0-.36.74l-.37.11c-.22.07-.11.24-.11.24a2.62,2.62,0,0,0-.94.47.93.93,0,0,0-.25,1.12,1.49,1.49,0,0,0,.45.61s.06-.21.6-.38a1.26,1.26,0,0,1,1.15.14,4,4,0,0,0-.83.22,2.38,2.38,0,0,1-1.27.32,1.42,1.42,0,0,1-.89-.57,1.28,1.28,0,0,0,.42,1.09,1.31,1.31,0,0,0,1.43.11l.69-.27a.77.77,0,0,0,0,.51,1.41,1.41,0,0,0,.36.52,1.23,1.23,0,0,1,.26-.77A.93.93,0,0,1,25,13.07c.4.19.4.26.4.26l.18-.16a3.38,3.38,0,0,1,1.33,1.36A1.88,1.88,0,0,1,27,16.59l0,0a2.25,2.25,0,0,0-.47-.26,1.93,1.93,0,0,0-.83-.19A1.69,1.69,0,0,0,24,17.5a2,2,0,0,0-.05.41,1.71,1.71,0,0,0,1.17,1.63,1.18,1.18,0,0,1-1.56.36,1.12,1.12,0,0,1-.66-1.77c.44-.65.9-1,.29-1.82s-2.57-2.86-2.57-2.86l-.09-.08a1.74,1.74,0,0,0-.55.45,5.08,5.08,0,0,1-.84-1l-.57-1s-.17-.27-.35.11a18,18,0,0,1-1.72-2.65c-.38-.72-.85-1.74-1-2s-.67-.29-.91.15a4.44,4.44,0,0,0,.52,3.39,3,3,0,0,0,.36.6s-.66-.62-1.13-1a2.08,2.08,0,0,0-.74-.39,1.81,1.81,0,0,0-.21,1.27A2.74,2.74,0,0,0,14.13,13a1.31,1.31,0,0,0-.63-.16,1.83,1.83,0,0,0-.69.05,2.29,2.29,0,0,0,.62,1.76,2.64,2.64,0,0,0,.87.6,7,7,0,0,0-1.06-.08,8.48,8.48,0,0,0-.87.05,2.4,2.4,0,0,0,1.06,1.67,3.08,3.08,0,0,0,.58.26,4.18,4.18,0,0,0-.88.07,3,3,0,0,0-.74.28,2.51,2.51,0,0,0,1.34,1.34,2.25,2.25,0,0,0,.48.14,4.26,4.26,0,0,0-.84.32,3.14,3.14,0,0,0-.6.41,2.24,2.24,0,0,0,1.4,1.07l.15,0a4.11,4.11,0,0,0-.67.52,3.44,3.44,0,0,0-.45.65,2.39,2.39,0,0,0,1.86.66,2.55,2.55,0,0,0-.27.37,2.76,2.76,0,0,0-.3.88,2.44,2.44,0,0,0,1.76.15,2.18,2.18,0,0,0-.14.34,5.48,5.48,0,0,0-.09.93A2.31,2.31,0,0,0,17.9,25a1.47,1.47,0,0,0-.12.51,5.68,5.68,0,0,0,0,.92,2.39,2.39,0,0,0,1.86-.67l.06-.06a2.3,2.3,0,0,0,0,.28,6.65,6.65,0,0,0,.18.91A2.41,2.41,0,0,0,21.66,26l.16-.26a1.67,1.67,0,0,0,.12.63,3.43,3.43,0,0,0,.31.61,2.07,2.07,0,0,0,1.23-1.18,4.37,4.37,0,0,0,.21-1.37l.09.08a1.34,1.34,0,0,0,.59-.37A8.41,8.41,0,0,0,24,26.42c0,.21,0,.41,0,.62a4.06,4.06,0,0,0,.18,1,3.54,3.54,0,0,1-.31.49.84.84,0,0,0-.27.69.36.36,0,0,0,.31.33.87.87,0,0,0,.09.49.66.66,0,0,0,.36.24l.26.06s.05.38.17.46a2.27,2.27,0,0,0,.54.23c.09,0,.26.15.38.21a.78.78,0,0,0,.65-.08.46.46,0,0,0,.17-.39l.16.07a1.23,1.23,0,0,1,.45.25,3.48,3.48,0,0,1,.24,1,1.9,1.9,0,0,0,.11.55l0,0-.08,0a3.54,3.54,0,0,0-.89.45c-.31.22-.7.84-1.18.95s-.74-.09-.78-.36a2.4,2.4,0,0,1,0-.4s-.59.35-.63.76a.78.78,0,0,0,.42.77s-.78.74-.53,1.38a9.31,9.31,0,0,1,.38,1,.49.49,0,0,1-.05.34s.39,0,.48-.49a1.17,1.17,0,0,1,.22-.58.53.53,0,0,0,.08-.14,2.75,2.75,0,0,0,.08.83,1.26,1.26,0,0,0,1.11.77,1.92,1.92,0,0,0,1-.26,1.82,1.82,0,0,0,1.05.68,2.58,2.58,0,0,0,1.23-.11,4.76,4.76,0,0,0,.32.49,2.11,2.11,0,0,0,.37.39l.2.11s.23-.23.38-.42a4.84,4.84,0,0,0,.37-.65,2.75,2.75,0,0,0,1.3.12,2.29,2.29,0,0,0,1-.55,1.27,1.27,0,0,0,1,.36,1.4,1.4,0,0,0,1.12-.93,2.36,2.36,0,0,0,.06-.81l.14.11c.09.08.16.12.23.51s.39.56.39.56a1.19,1.19,0,0,1,.08-.53,4.72,4.72,0,0,0,.38-.91,1.06,1.06,0,0,0-.54-1.25.79.79,0,0,0,.39-.71,1,1,0,0,0-.7-.83s.06.07,0,.33-.3.54-.81.39c-.27-.07-.76-.67-1.07-.9a7.94,7.94,0,0,0-1-.51l-.06,0v0a1.9,1.9,0,0,0,.11-.55,4.66,4.66,0,0,1,.19-.92c.06-.14.25-.24.5-.34l.16-.07a.46.46,0,0,0,.17.39.8.8,0,0,0,.66.08,3.71,3.71,0,0,1,.37-.21,2.27,2.27,0,0,0,.54-.23c.12-.08.18-.46.18-.46l.26-.06a.64.64,0,0,0,.35-.24.87.87,0,0,0,.09-.49.38.38,0,0,0,.32-.33.87.87,0,0,0-.28-.69,5.07,5.07,0,0,1-.31-.49,4.06,4.06,0,0,0,.18-1c0-.21,0-.41,0-.62a8.8,8.8,0,0,0-.36-2.33,1.39,1.39,0,0,0,.59.37l.09-.08a4.37,4.37,0,0,0,.21,1.37,2.07,2.07,0,0,0,1.23,1.18,4,4,0,0,0,.32-.61,2.2,2.2,0,0,0,.12-.63,1.4,1.4,0,0,0,.16.26,2.39,2.39,0,0,0,1.74.93,5.36,5.36,0,0,0,.18-.91,1.23,1.23,0,0,0,0-.28l.07.06a2.39,2.39,0,0,0,1.86.67,6.11,6.11,0,0,0,0-.92,1.27,1.27,0,0,0-.12-.51,2.33,2.33,0,0,0,1.89.34,5.89,5.89,0,0,0-.1-.93,2.18,2.18,0,0,0-.14-.34,2.44,2.44,0,0,0,1.76-.15,2.76,2.76,0,0,0-.3-.88,2,2,0,0,0-.27-.37A2.39,2.39,0,0,0,47.38,22a3.44,3.44,0,0,0-.45-.65,4.12,4.12,0,0,0-.66-.52l.15,0a2.24,2.24,0,0,0,1.39-1.07,2.81,2.81,0,0,0-.6-.41,4.26,4.26,0,0,0-.84-.32,2.25,2.25,0,0,0,.48-.14,2.51,2.51,0,0,0,1.34-1.34M47,15.5a3.71,3.71,0,0,1,.73.06,3.51,3.51,0,0,1-2,1.17,9.77,9.77,0,0,1-2.7.42,3.28,3.28,0,0,0,1-.81s0-.07-.29-.17c.26-.07.76-.2,1.13-.32s.42-.14.7-.26c.11,0,.94-.09,1.42-.09m-8.69,6.58a4.38,4.38,0,0,0,.34.79,1.24,1.24,0,0,1-.14.41,1.19,1.19,0,0,1-.26.32,1.11,1.11,0,0,1-.7-.56,1.94,1.94,0,0,1-.17-.88l.24-.21a1.15,1.15,0,0,0,.23-.39,1.22,1.22,0,0,0,.38.17c0,.09,0,.21.08.34h0m.26-.24a1.34,1.34,0,0,0,.42.1c.06-.05.16-.18.19-.21a3,3,0,0,0,.84.68,2.23,2.23,0,0,1,0,.51,2.52,2.52,0,0,1-.08.42,1.57,1.57,0,0,1-.77-.44,2.44,2.44,0,0,1-.59-1.06m.83-.32.07-.1a1.44,1.44,0,0,0,.14-.6,6.15,6.15,0,0,0,1.4.64,4.38,4.38,0,0,1,.12.45,2,2,0,0,1,0,.43,3.29,3.29,0,0,1-1-.28,2.56,2.56,0,0,1-.8-.54m1.24-.61-.45-.2a1.34,1.34,0,0,0,.53-.34.5.5,0,0,0-.07-.16,2.7,2.7,0,0,0,.85.09h.11a3.48,3.48,0,0,1,.55.4,1.11,1.11,0,0,1,.32.52,5.24,5.24,0,0,1-1.84-.31m.84-1.06a10.64,10.64,0,0,1-1.06-.1,1.48,1.48,0,0,0-.25-.26,1.47,1.47,0,0,0,.36-.28,5.23,5.23,0,0,0,1.88-.2l.1,0,.37.17a1.32,1.32,0,0,1,.51.39,5.29,5.29,0,0,1-1.91.32m.22-1.12a3.29,3.29,0,0,1-.89,0,1.5,1.5,0,0,0,.13-.28c0-.12-.18-.26-.45-.47l-.06,0A11.09,11.09,0,0,0,42,17.66a2.1,2.1,0,0,1,.63.16,1.62,1.62,0,0,1,.68.4,4.76,4.76,0,0,1-1.62.51m.22-1.53a5.9,5.9,0,0,1-1.55.26,1.7,1.7,0,0,0,.29-.54,8,8,0,0,0,1.66-.82,4.45,4.45,0,0,1,.55,0,1.38,1.38,0,0,1,.75.23,3.89,3.89,0,0,1-1.7.84m5-4a1.32,1.32,0,0,1,.62,0,5.05,5.05,0,0,1-2,1.75,13.21,13.21,0,0,1-2.2,1,4,4,0,0,0-.64-.06,4.65,4.65,0,0,0,.55-.66,8.94,8.94,0,0,0,2.94-1.82.15.15,0,0,0,.06-.05,4.87,4.87,0,0,1,.71-.18m-4.31-.91a16.36,16.36,0,0,0,1.14-1.57c.5-.79,1.16-2.18,1.58-3,.21-.41.62-.24.63.38a6.27,6.27,0,0,1-1.27,3.12,7.89,7.89,0,0,1-2.14,2.09,2,2,0,0,0,.06-1m1.9.13c.27-.25,1.3-1,2-1.62a2.28,2.28,0,0,1,.57-.38,2.58,2.58,0,0,1-.45,1.53,5.56,5.56,0,0,1-1.4,1.48,8,8,0,0,1-1.68,1.07,2.31,2.31,0,0,0-1.41,0,.4.4,0,0,0,.07-.13,15.68,15.68,0,0,0,2.35-2m-3,.95a7.27,7.27,0,0,0,.59-1c.17-.31.33-.25.32.08a3,3,0,0,1-.68,1.67,2.59,2.59,0,0,1-.86.73,1.24,1.24,0,0,0,0-.85,3.4,3.4,0,0,0,.66-.67m.35,1.44.56-.12a1.66,1.66,0,0,1,.84.06,8.86,8.86,0,0,1-1.54,1.15,12.52,12.52,0,0,1-1.28.62,2.07,2.07,0,0,0-.62-.16l.49-.48a4,4,0,0,0,1.55-1.07m-5.83,5.5a2,2,0,0,0,2.17-.82,1.42,1.42,0,0,0-.25-1.65c-.48-.67-.73-.82.54-2.22a19.41,19.41,0,0,1,1.77-1.79.78.78,0,0,1,.42.87c0,.44-.79,1.2-1,1.44l-.43.45a4.06,4.06,0,0,1,.73.06,1.22,1.22,0,0,1,.47.17,1.82,1.82,0,0,1-.25.6l-.39.43a1.85,1.85,0,0,1,.57.35,2.72,2.72,0,0,1,.32.36,1.57,1.57,0,0,1-.37.57,5.07,5.07,0,0,1-.58.37,2.54,2.54,0,0,1,.51.45,1,1,0,0,1,.18.35,1.86,1.86,0,0,1-.48.25,1.77,1.77,0,0,1-.37.06h-.19a1.66,1.66,0,0,1-.09.63,1.13,1.13,0,0,1-.34.4,2.45,2.45,0,0,1-.64-.14,2.82,2.82,0,0,1-.46-.32,3.28,3.28,0,0,1-.33.52,1.27,1.27,0,0,1-.32.22,3.11,3.11,0,0,1-.44-.22,2.37,2.37,0,0,1-.31-.25l-.69.48s-.29-.1-.68-.79l0,0a7.57,7.57,0,0,1-.51-1.31,5.19,5.19,0,0,0,1.48.53M35,16.5a1.39,1.39,0,0,1,1.14,2c-.5.93-1.46.82-1.65.53a.67.67,0,0,1,.14-.91c.27-.2.69,0,.69,0l0,0a.63.63,0,0,0-1-.08.68.68,0,0,0-.24.49H33a1.37,1.37,0,0,1,.05-.28A2,2,0,0,1,35,16.5m-5.89.21a.38.38,0,1,1,.52.35v1.48h-.3V17.05a.38.38,0,0,1-.22-.34m.66-.65a.7.7,0,0,0-.52,0,.73.73,0,0,0-.46.49.47.47,0,0,0-.17,0,.66.66,0,0,0-.51.21.72.72,0,0,0-.2.49.71.71,0,0,0,.26.55v.43h-.25a3.11,3.11,0,0,0-.39-1A3.73,3.73,0,0,0,28.18,16a5,5,0,0,0,.23-1.07,2,2,0,0,1,.2.28,3.82,3.82,0,0,1,.26.48L29,16l.11-.29A5.15,5.15,0,0,0,29.3,15c0-.17.05-.31.06-.43a3.64,3.64,0,0,1,.31.44,3.58,3.58,0,0,1,.28.61,1.69,1.69,0,0,1,.08.24.66.66,0,0,0-.29.24m-1.52,1.15a.38.38,0,1,1,.76,0,.39.39,0,0,1-.24.35v1h-.29v-1a.4.4,0,0,1-.23-.35m5.83,1.6,0,.42H26.55v-.43Zm-2.2-2.3a.66.66,0,0,0-.46-.51.76.76,0,0,0-.6,0,.5.5,0,0,0-.21-.2,2.58,2.58,0,0,1,.08-.26,4.61,4.61,0,0,1,.28-.61,5.27,5.27,0,0,1,.31-.44c0,.12,0,.26.07.43a4.46,4.46,0,0,0,.18.71l.11.29.13-.28A3.82,3.82,0,0,1,32,15.2l.2-.28A5,5,0,0,0,32.43,16a3.65,3.65,0,0,0,.67,1.19,2.77,2.77,0,0,0-.41,1h-.25v-.43a.69.69,0,0,0,.26-.55.7.7,0,0,0-.85-.69m-.23.7a.39.39,0,0,1,.39-.38.38.38,0,0,1,.37.38.38.38,0,0,1-.23.35v1h-.29v-1a.38.38,0,0,1-.24-.35m-.82-.54a.38.38,0,0,1,.38-.38.38.38,0,0,1,.12.74v1.51H31V17a.37.37,0,0,1-.21-.34m6.38-3.28a1.09,1.09,0,0,0-.46-.48,1,1,0,0,0-.54-.21.47.47,0,0,1,.5-.06c.3.14.41.24.47.43a.66.66,0,0,1,0,.32m.09-1c.31.11.93.36,1.16.45a1.36,1.36,0,0,0,1.11-.08.78.78,0,0,1-.91.39,3.58,3.58,0,0,1-1.22-.46,2,2,0,0,0-.64-.26.9.9,0,0,1,.5,0m.53-1.94a1.4,1.4,0,0,1,.78.3c.32.27.45.47.36.79s-.23.39-.23.39a1.37,1.37,0,0,0-.85-.29A2,2,0,0,0,36.6,12c-.06.05-.11,0-.07-.07a3.47,3.47,0,0,0,.32-.36,5.81,5.81,0,0,1,.52-.67c.2-.23.43-.45.43-.45m-5.11.12a4.8,4.8,0,0,0,.58,0,7.66,7.66,0,0,1,.88-.07,2.51,2.51,0,0,1,1.22.11l.87.34a3.23,3.23,0,0,0,.37-.36,1.07,1.07,0,0,0,.2-.38.61.61,0,0,1-.29,0,2.74,2.74,0,0,0-1.17-.12,6.26,6.26,0,0,1-1.79,0c-.62-.1-.74-.28-.74-.28a4,4,0,0,0,1.35-.1c1.27-.22,2.6-.86,3-.35.11.15,0,.39,0,.57a4.37,4.37,0,0,1-.67,1,6.91,6.91,0,0,1-.6.56,4.92,4.92,0,0,1-.85.45,6.26,6.26,0,0,1-.85.24L35,10.85l-.3.07a5.43,5.43,0,0,0-1.16.43,5.73,5.73,0,0,0-.58.38c0-.14,0-.3.07-.37a1.29,1.29,0,0,1,.19-.37l.1-.08.1-.05-.35-.08a2.27,2.27,0,0,1-.42-.17m2.84-.24a1.18,1.18,0,0,1,.25.05l0,.13-.22-.08c-.2-.07-.18-.08-.18-.08s0,0,.17,0m.56.3.08-.05a.61.61,0,0,0,.11-.15l.16,0-.17.23Zm-5.33,3.82c.13-.31.26-.6.39-.88a4.17,4.17,0,0,1,.76-.82c0,.07,0,.14,0,.22a3.48,3.48,0,0,0-.06.68v.19l0,.45.22-.39a4.35,4.35,0,0,1,.43-.64,2.64,2.64,0,0,1,.47-.44c-.05.16-.11.34-.14.49a4.14,4.14,0,0,0,0,.58,3.26,3.26,0,0,0,0,.46l0,.31.19-.25s.36-.48.61-.74a4.88,4.88,0,0,1,.67-.59l.33-.22-.14-.22a6,6,0,0,0-1,.85c-.13.14-.3.34-.42.5v-.1a3.53,3.53,0,0,1,0-.54,2.31,2.31,0,0,1,.15-.5,2.44,2.44,0,0,1,.11-.3l.12-.33-.3.16a3.26,3.26,0,0,0-.87.71l-.22.29c0-.12,0-.25,0-.36.06-.3.13-.54.13-.54l.08-.3-.27.16a2.44,2.44,0,0,0-.41.29,1.3,1.3,0,0,0,.1-.15,5,5,0,0,1,.48-.63,3.09,3.09,0,0,0-.48-.13,1,1,0,0,1-.26,0s.34-.09.67-.2a3.62,3.62,0,0,0,.71-.34.56.56,0,0,0,0,.12,6.77,6.77,0,0,0-.13.72l0,.31.25-.19a6.46,6.46,0,0,1,.79-.55,5.23,5.23,0,0,1,.75-.31h0l-.86,1.4.28-.05a5.43,5.43,0,0,0,1.19-.28l.13-.06a2.88,2.88,0,0,0,.81-.48,3.45,3.45,0,0,0,.74-.74c.33-.5.63-.91.63-.91a.23.23,0,0,1,.12,0l.1.07a4.56,4.56,0,0,0-.33.35c-.14.15-.48.64-.71,1a4.23,4.23,0,0,1-.89,1l-.42.3-.26,0a2.79,2.79,0,0,0-1.37,1.26,2.49,2.49,0,0,0-.39,2.36l.18.32-.18.18-.17-.23a2.92,2.92,0,0,1-.41-.83,4.75,4.75,0,0,1-.25-1.33l0-.31-.2.24a6.41,6.41,0,0,0-.41.55l-.14.22c0-.1,0-.23-.08-.37-.07-.4-.09-.7-.09-.7v-.28l-.21.2a4,4,0,0,0-.54.71l-.15.26c.06-.21.12-.42.19-.61m-.45,1.63a.38.38,0,0,1,.38.38.37.37,0,0,1-.24.35v1.69h-.29v-1.7a.37.37,0,0,1-.23-.34.38.38,0,0,1,.38-.38M23.47,9.45c.37-.51,1.7.13,3,.35a3.9,3.9,0,0,0,1.34.1s-.12.18-.73.28a6.34,6.34,0,0,1-1.8,0,2.68,2.68,0,0,0-1.16.12.64.64,0,0,1-.3,0,1.31,1.31,0,0,0,.2.38,3.23,3.23,0,0,0,.37.36l.88-.34a2.47,2.47,0,0,1,1.21-.11,7.85,7.85,0,0,1,.89.07,4.8,4.8,0,0,0,.58,0,2.27,2.27,0,0,1-.42.17l-.35.08.1.05.1.08a1.36,1.36,0,0,1,.18.37,3.57,3.57,0,0,1,.07.37,4.7,4.7,0,0,0-.57-.38,5.22,5.22,0,0,0-1.17-.43l-.3-.07.89,1.45a6.26,6.26,0,0,1-.85-.24,4.43,4.43,0,0,1-.84-.45,6.84,6.84,0,0,1-.61-.56,4,4,0,0,1-.66-1,.61.61,0,0,1,0-.57m1.78.94s0,0-.18.08l-.21.08a.61.61,0,0,0,0-.13,1.43,1.43,0,0,1,.25-.05c.2,0,.17,0,.17,0m-.72.28-.18.05-.18-.23.16,0a1.14,1.14,0,0,0,.12.15.28.28,0,0,0,.08.05m-1.77,1a1.37,1.37,0,0,0-.85.29s-.16-.07-.24-.39,0-.52.36-.79a1.42,1.42,0,0,1,.78-.3s.24.22.44.45.29.36.52.67a2.59,2.59,0,0,0,.32.36s0,.12-.08.07a1.94,1.94,0,0,0-1.25-.36m.44,1.05a3.51,3.51,0,0,1-1.21.46.77.77,0,0,1-.91-.39,1.34,1.34,0,0,0,1.1.08c.24-.09.85-.34,1.17-.45a.87.87,0,0,1,.49,0,2.06,2.06,0,0,0-.64.26m.7.18a1.09,1.09,0,0,0-.46.48.58.58,0,0,1,0-.32c.07-.19.17-.29.47-.43a.49.49,0,0,1,.51.06,1,1,0,0,0-.54.21m3.46,3.56a2.47,2.47,0,0,0-.4-2.36,2.79,2.79,0,0,0-1.37-1.26l-.25,0-.43-.3a4.22,4.22,0,0,1-.88-1c-.23-.33-.58-.82-.71-1s-.34-.35-.34-.35l.11-.07a.23.23,0,0,1,.12,0s.3.41.63.91a3.45,3.45,0,0,0,.74.74h0a2.74,2.74,0,0,0,.8.48l.14.06a5.53,5.53,0,0,0,1.18.28l.28.05-.86-1.4h0a5.82,5.82,0,0,1,.76.31,7.42,7.42,0,0,1,.79.55l.25.19L27.91,12a4.87,4.87,0,0,0-.13-.72l0-.12a3.14,3.14,0,0,0,.71.34c.32.11.66.2.66.2a1,1,0,0,1-.25,0,3,3,0,0,0-.49.13,4.67,4.67,0,0,1,.49.63l.09.15a3.44,3.44,0,0,0-.4-.29l-.27-.16.08.3s.06.24.12.54a2.08,2.08,0,0,1,.05.36c-.07-.09-.14-.2-.22-.29a3.3,3.3,0,0,0-.86-.71l-.31-.16.13.33.11.3a3,3,0,0,1,.14.5,3.53,3.53,0,0,1,0,.54V14a5,5,0,0,0-.42-.5,5.64,5.64,0,0,0-1-.85L26,12.9l.33.22a6.43,6.43,0,0,1,.67.59c.24.26.6.74.61.74l.18.25,0-.31s0-.19,0-.46a4.14,4.14,0,0,0,0-.58,2.43,2.43,0,0,0-.14-.49,2.1,2.1,0,0,1,.47.44,4,4,0,0,1,.44.64l.22.39,0-.45v-.19a3.4,3.4,0,0,0-.05-.68c0-.08,0-.15-.05-.22a4.17,4.17,0,0,1,.77.82c.13.28.26.57.38.88a5.44,5.44,0,0,1,.19.61c0-.08-.1-.17-.15-.26a3.53,3.53,0,0,0-.54-.71l-.2-.2,0,.28s0,.3-.09.7a2.61,2.61,0,0,1-.08.37,2.53,2.53,0,0,0-.13-.22,5.49,5.49,0,0,0-.42-.55l-.2-.24,0,.31a5.6,5.6,0,0,1-.25,1.33,3.22,3.22,0,0,1-.42.83l-.18.25-.16-.21.18-.31m-2.87,2.06a1.39,1.39,0,0,1,1.15-2,2,2,0,0,1,1.94,1.76,2.66,2.66,0,0,1,0,.28l-1.07,0a.9.9,0,0,0-.18-.55.74.74,0,0,0-1.11-.07s-.13.21-.05.28a.31.31,0,0,0,.24.05.5.5,0,0,1,.57,0,.58.58,0,0,1,.14.82c-.2.29-1.15.4-1.66-.53m-4.08-4.74a19.41,19.41,0,0,1,1.77,1.79c1.28,1.4,1,1.55.54,2.22a1.41,1.41,0,0,0-.24,1.65,2,2,0,0,0,2.16.82,5.19,5.19,0,0,0,1.48-.53,7.57,7.57,0,0,1-.51,1.31.08.08,0,0,0,0,0c-.39.69-.68.79-.68.79l-.69-.48a2.37,2.37,0,0,1-.31.25,3.31,3.31,0,0,1-.43.22,1.22,1.22,0,0,1-.33-.22,3.28,3.28,0,0,1-.33-.52,2.82,2.82,0,0,1-.46.32,2.45,2.45,0,0,1-.64.14,1.13,1.13,0,0,1-.34-.4,1.66,1.66,0,0,1-.09-.63H21.1a1.8,1.8,0,0,1-.36-.06,1.86,1.86,0,0,1-.48-.25.88.88,0,0,1,.17-.35,2.87,2.87,0,0,1,.51-.45,5.07,5.07,0,0,1-.58-.37,1.49,1.49,0,0,1-.36-.57,2,2,0,0,1,.32-.36,1.75,1.75,0,0,1,.56-.35l-.39-.43a1.82,1.82,0,0,1-.25-.6,1.22,1.22,0,0,1,.47-.17,4.2,4.2,0,0,1,.74-.06s-.21-.2-.44-.45-1-1-1-1.44a.79.79,0,0,1,.42-.87m-1.8,3.87a11.26,11.26,0,0,0,1.57.28l-.06,0c-.27.21-.41.35-.45.47a1.5,1.5,0,0,0,.13.28,3.22,3.22,0,0,1-.88,0,4.6,4.6,0,0,1-1.62-.51,1.54,1.54,0,0,1,.67-.4,2.06,2.06,0,0,1,.64-.16M17,16.36a1.38,1.38,0,0,1,.75-.23,4.59,4.59,0,0,1,.56,0,8,8,0,0,0,1.65.82,1.7,1.7,0,0,0,.29.54,6,6,0,0,1-1.55-.26,3.89,3.89,0,0,1-1.7-.84M18.2,19a5.23,5.23,0,0,0,1.88.2,2,2,0,0,0,.36.28,1.11,1.11,0,0,0-.24.26c-.27,0-.54.08-1.07.1a5.33,5.33,0,0,1-1.91-.32,1.3,1.3,0,0,1,.52-.39l.37-.17.09,0m.91,1.29a2.78,2.78,0,0,0,.86-.09.33.33,0,0,0-.07.16,1.26,1.26,0,0,0,.52.34l-.45.2a5.2,5.2,0,0,1-1.84.31,1.21,1.21,0,0,1,.32-.52,3.48,3.48,0,0,1,.55-.4h.11m.38,1.61a2,2,0,0,1,.12-.45,6.39,6.39,0,0,0,1.4-.64,1.27,1.27,0,0,0,.14.6l.06.1a2.42,2.42,0,0,1-.8.54,3.21,3.21,0,0,1-1,.28,1.74,1.74,0,0,1,0-.43m1.1.5a3,3,0,0,0,.84-.68s.13.16.19.21a1.28,1.28,0,0,0,.42-.1,2.5,2.5,0,0,1-.58,1.06,1.62,1.62,0,0,1-.78.44,2.52,2.52,0,0,1-.08-.42,3.05,3.05,0,0,1,0-.51m1.72-.33h0a3.46,3.46,0,0,0,.07-.34,1.09,1.09,0,0,0,.38-.17A1.38,1.38,0,0,0,23,22l.24.21a1.94,1.94,0,0,1-.17.88,1.11,1.11,0,0,1-.69.56,1.33,1.33,0,0,1-.27-.32,1.24,1.24,0,0,1-.14-.41,5.32,5.32,0,0,0,.35-.79m-1.94-6.24.48.48a2.07,2.07,0,0,0-.62.16A12.52,12.52,0,0,1,19,15.86a9.28,9.28,0,0,1-1.54-1.15,1.66,1.66,0,0,1,.84-.06c.28,0,.45.09.56.12a3.9,3.9,0,0,0,1.56,1.07m-1.8-3.47a7.79,7.79,0,0,0,.6,1,3.43,3.43,0,0,0,.65.67,1.23,1.23,0,0,0,0,.85,2.41,2.41,0,0,1-.86-.73,2.89,2.89,0,0,1-.69-1.67c0-.33.16-.39.32-.08M14.71,8c0-.62.42-.79.62-.38.42.86,1.08,2.25,1.59,3a15.41,15.41,0,0,0,1.13,1.57,2.11,2.11,0,0,0,.06,1A8,8,0,0,1,16,11.14,6.26,6.26,0,0,1,14.71,8m-.63,3.89a2.58,2.58,0,0,1-.45-1.53,2.43,2.43,0,0,1,.58.38c.65.59,1.68,1.37,1.94,1.62a15.68,15.68,0,0,0,2.35,2,.34.34,0,0,0,.08.13,2.35,2.35,0,0,0-1.42,0,8,8,0,0,1-1.68-1.07,5.56,5.56,0,0,1-1.4-1.48m-1,1.27a1.34,1.34,0,0,1,.62,0,4.87,4.87,0,0,1,.71.18l.06.05a8.94,8.94,0,0,0,2.94,1.82,4.19,4.19,0,0,0,.56.66,4.12,4.12,0,0,0-.65.06,13.27,13.27,0,0,1-2.19-1,5.11,5.11,0,0,1-2.05-1.75m-.24,2.38a3.93,3.93,0,0,1,.73-.06c.48,0,1.31.07,1.42.09.28.12.44.17.7.26s.88.25,1.13.32c-.28.1-.29.17-.29.17a3.28,3.28,0,0,0,1,.81,9.77,9.77,0,0,1-2.7-.42,3.51,3.51,0,0,1-1.95-1.17m.06,2.1a3.58,3.58,0,0,1,.63-.19,6.4,6.4,0,0,1,1.16-.07,4.78,4.78,0,0,0,1.42.22c.66,0,1.25,0,1.64,0a1.68,1.68,0,0,0-.62.3,1.06,1.06,0,0,0-.3.34s.12.12.17.16a7,7,0,0,1-2.33,0,3.42,3.42,0,0,1-1.77-.7m.32,2.12a4,4,0,0,1,.7-.42,3.62,3.62,0,0,1,1-.3,6.51,6.51,0,0,0,1.62-.1,8.4,8.4,0,0,0,1-.22,1.24,1.24,0,0,0,.23.11,1.51,1.51,0,0,0-.66.33,1.11,1.11,0,0,0-.31.42,1.25,1.25,0,0,0,.38.24,6.15,6.15,0,0,1-1.79.28c-1.54.07-1.95-.16-2.19-.34m.43,2.15a1.87,1.87,0,0,1,.5-.63,3.36,3.36,0,0,1,.64-.44,6.76,6.76,0,0,0,2.35-.44,3.61,3.61,0,0,0,.72-.32,4,4,0,0,0,.75.17,13,13,0,0,1-2.4,1.32,3.56,3.56,0,0,1-2.56.34m1.2,1.74a2.37,2.37,0,0,1,.55-1.07,7.46,7.46,0,0,0,2.21-1c.08-.06.1,0,.2-.12a2.88,2.88,0,0,0,.92.09,11.25,11.25,0,0,1-2.38,1.74,3.52,3.52,0,0,1-1.5.4m2.76.75a3.26,3.26,0,0,1-1.29.58,1.85,1.85,0,0,1,0-.44,2.55,2.55,0,0,1,.16-.62,6.4,6.4,0,0,0,2.05-1.8l.49-.62.19,0a2.21,2.21,0,0,0-.13.52,2.53,2.53,0,0,0,0,.63.52.52,0,0,0,.15,0,7.86,7.86,0,0,1-1.63,1.75m1.63.83a1.9,1.9,0,0,1-1.2.61,2.21,2.21,0,0,1,0-.48,5.2,5.2,0,0,1,.12-.65,6.8,6.8,0,0,0,1.41-2.05,1.93,1.93,0,0,0,.7-.14,2.33,2.33,0,0,0,0,.52,4.24,4.24,0,0,0,.11.5,5,5,0,0,1-1.15,1.69m2,.23a2.59,2.59,0,0,1-1.11.88s-.17-.14-.16-1a6.26,6.26,0,0,0,.89-1.77,2.13,2.13,0,0,0,.91-.5,2,2,0,0,0,.16.43c0,.05.14.23.16.27a5.41,5.41,0,0,1-.85,1.67M23,25.6c-.29.69-.71.77-.71.77a3.37,3.37,0,0,1-.24-1.15A6.86,6.86,0,0,0,22.44,24a2.08,2.08,0,0,0,.67-.51s.14.33.22.48A4.77,4.77,0,0,1,23,25.6M23.77,24a1.31,1.31,0,0,1-.24-.3,2,2,0,0,1-.22-.44s.07-.19.11-.32a2.34,2.34,0,0,0,.08-.71l.35-.2.38-.26.43.34a2.7,2.7,0,0,1-.23,1.05,2.36,2.36,0,0,1-.66.84M24,29.27a.37.37,0,0,1,.07-.43c.1-.13.21-.4.28-.38s0,.16,0,.26-.21.22-.18.29.19,0,.19,0-.06.2.05.23.13-.09.2-.09.17.23.31.25.31-.17.31-.17l.29.06s.15.32-.1.43-.4,0-.62-.17-.7,0-.77-.24M25.33,29c0-.07.06-.14.06-.14s0-.1.08,0,.06.22,0,.23a.15.15,0,0,1-.15-.1m-.1,1.71c0-.07-.2.05-.23-.12s.07-.17.24-.08.25.15.2.23-.16,0-.21,0m.33-.39c-.24,0-.43-.15-.65-.21s-.41,0-.56-.17,0-.31,0-.3,0,.1.07.13.12-.07.15,0,0,.14,0,.16.05-.08.13-.05a1.17,1.17,0,0,0,.4.11c.1,0,.3-.23.45,0s.18.37-.07.39m.28-.67s.22-.15.17,0-.07.32-.21.15,0-.19,0-.19M26,31c-.19,0-.31,0-.27-.27s.05-.11.22-.14.35-.05.35.14-.1.27-.3.27m.31-.53a.13.13,0,0,1,0-.21c.06-.06.13-.06.15.11s0,.18-.13.1m.76,7.09a1.34,1.34,0,0,1-1.07.22.89.89,0,0,1-.71-.59A3.24,3.24,0,0,1,25.24,36c0-.06.19-.73.22-.88s.05-.2,0-.18,0,.17-.49.45a1.1,1.1,0,0,0-.53,1.1,2.07,2.07,0,0,1,0,.58,1.65,1.65,0,0,0-.1-.34,3,3,0,0,1-.19-.58c-.1-.38.1-.62.3-.9a2.93,2.93,0,0,1,.49-.51,1.51,1.51,0,0,1-.38-.14.51.51,0,0,1-.3-.47.56.56,0,0,1,.19-.37.67.67,0,0,0,.1.42.92.92,0,0,0,.71.27,2,2,0,0,0,1.06-.63,3,3,0,0,1,.75-.63,1.68,1.68,0,0,1,.68-.25A2.16,2.16,0,0,1,28,33a5.18,5.18,0,0,0-1.94,2,2,2,0,0,0-.25,1.6.82.82,0,0,0,.65.55,2,2,0,0,0,.71-.07.6.6,0,0,1,.51.13c.15.13.15.22.15.22a1,1,0,0,0-.76.15m-.45-9.35.31-.32.55.76-.13.15Zm.53.79-.11.12-.75-.52.1-.11,0-.07Zm.53-.28.13,0-.56.64-.05-.09Zm.24.35.77.81-.26.3-.86-.71Zm1,1,.07.06-.29.36-.09-.06Zm.23.2,4.89,5-.1.1-5-4.83Zm4.77-1.4c.24,0,.28.06.07.22a5.78,5.78,0,0,1-1.16.43l.62.06c.23,0,.29.07.16.23a4.15,4.15,0,0,1-1.25.33,3.38,3.38,0,0,1,.58.13c.1,0,.21.11,0,.27a4.51,4.51,0,0,1-1,.35s.49.18.2.35a4.15,4.15,0,0,1-1,.31s.42.15.33.29a.8.8,0,0,1-.32.12l-.75-.77a17.63,17.63,0,0,1,3.42-2.8c.87-.45,1-.36.61,0a2.58,2.58,0,0,1-1,.49h.55M33.5,35.4l.25.24h0c-.54.09-.54-.09-.54-.09a.83.83,0,0,0,.31-.16m-.46,0a7.78,7.78,0,0,1-.6-.74c-.21-.29-.38-.51-.59-.85l1.49,1.46a.48.48,0,0,1-.3.13m.47,1c.21-.26.13-.43.13-.43A1.07,1.07,0,0,0,34,36a.67.67,0,0,0,.2-.07.51.51,0,0,1-.05.44c-.15.23-.31.19-.58.25s-.27,0-.27,0a.59.59,0,0,0,.24-.18m-3.14-4.05s0,0,0,.06a5.83,5.83,0,0,1-1.38.4L26.5,35.14a1.42,1.42,0,0,1,.42-.7c.65-.71,1.92-1.83,2.8-2.71Zm-3.53,4.22a.5.5,0,0,1-.36-.12.68.68,0,0,1-.14-.58.68.68,0,0,0,.31.12h.25a.76.76,0,0,0-.08.26,1.51,1.51,0,0,0,0,.31m-.07-.79a.86.86,0,0,1-.32-.15l.32-.32a1.72,1.72,0,0,0,.25.14,1.26,1.26,0,0,0,.51.06s-.17.35-.76.27m.68-.49a.37.37,0,0,1-.31-.33l2-1.92h.05a1.35,1.35,0,0,1-.14.3,5.7,5.7,0,0,1-.89,1.1c-.26.28-.73.86-.73.86m.61,2.83a1.35,1.35,0,0,1-.64-.45,1,1,0,0,1,.33,0,1.07,1.07,0,0,1,.38.12,2,2,0,0,0,0-.25.83.83,0,0,0-.23-.52c-.26-.33-.59-.28-.67-.35a.77.77,0,0,1-.07-.24.38.38,0,0,1,.1-.32c.06-.07.31-.15.47-.33a2.47,2.47,0,0,0,.28-.37H27.8s.41-.51.92-1.07A4,4,0,0,0,29.49,33h.1a5.15,5.15,0,0,1-.26.74c-.15.33-.42.75-.68,1.26a3.51,3.51,0,0,0-.54,1.61c.06,1.07,1.3,1.49,1.3,1.49a2.62,2.62,0,0,1-1.35,0m1.32-2.8a7.23,7.23,0,0,0-.2,1.35,4.13,4.13,0,0,0,.07,1.05,1.21,1.21,0,0,1-.61-1,3.55,3.55,0,0,1,.32-1.3c.16-.41.87-2.36.87-2.36h.09c-.1.53-.48,2-.54,2.28m.2,2.62a4.35,4.35,0,0,1-.09-1.48,18.78,18.78,0,0,1,.43-2.38c.07-.36.13-.74.19-1,.06,0,.05,0,.11,0,0,.63,0,1.56,0,2.31a4.86,4.86,0,0,0-.28.59A4.12,4.12,0,0,0,29.74,37a3,3,0,0,0,.08.85s-.15.1-.24.05M30.3,39l-.11-.11-.26-.32a1.17,1.17,0,0,1-.2-.36l.18-.07a4,4,0,0,0,.22.41,1.3,1.3,0,0,0,.18.21Zm0-.61,0-1c0-.41,0-1.46,0-1.74a1.74,1.74,0,0,1,.47,1.45,2.2,2.2,0,0,1-.42,1.31M30.55,33c.08,0,.1,0,.15,0v0l1,2.45A3.66,3.66,0,0,1,32,36.64a1.52,1.52,0,0,1-.8,1.29,2.94,2.94,0,0,0,.26-1.26A23.81,23.81,0,0,0,30.55,33m2.2,4.28a1.34,1.34,0,0,1-1.35.83,1.46,1.46,0,0,0,.79-.88,2.44,2.44,0,0,0-.26-1.95c-.35-.78-.83-1.93-.95-2.28h.11l.05,0c.09.17.37.65.69,1.3s.6,1.11.77,1.49a2,2,0,0,1,.15,1.45m.53-3.94.38.33a4,4,0,0,0,1.28.77,1.06,1.06,0,0,0,1.11-.27.53.53,0,0,0,.08-.32.4.4,0,0,1,.15.19.56.56,0,0,1-.32.6,1.62,1.62,0,0,1-.93.11c-.32,0-.06.12.13.25.48.32,1.09.42,1.13.89a2,2,0,0,1-.08.71c-.05.28-.13.12-.13.12a.65.65,0,0,0-.09-.28c-.19-.28-.46-.33-.63-.63s-.44-.74-.56-.59.7,1.18.12,1.94-1.16.21-1.5.23a1.48,1.48,0,0,0-.48.19,1.51,1.51,0,0,1,.2-.56c.11-.11.27-.13.54-.17a.78.78,0,0,0,.81-.79,1.45,1.45,0,0,0-.27-.71l.14-.17L32.19,33h.1a2.1,2.1,0,0,1,1,.34m.65-3-.36.18-.2.08c-.49.19-.55.75-.64,1.44s-.25.58-.49.58h-.43l-.53-.53a.74.74,0,0,0,.25-.11.23.23,0,0,0,0-.35,2.18,2.18,0,0,0,.73-.26c.33-.2.14-.41.14-.41a3.4,3.4,0,0,0,.72-.34c.36-.23.1-.49.1-.49a1,1,0,0,0,.57-.26c.39-.42-.07-.49-.07-.49a1.66,1.66,0,0,0,.52-.29c.32-.3,0-.42,0-.42s.58-.39.58-.74-.36-.23-.6-.15a6.35,6.35,0,0,0-1.44.81,26.36,26.36,0,0,0-2.69,2.34l-.95-1-1.32-1.41-.13-.05-.84-1-1,1.08,1,.77,0,.09,1.52,1.18,1,.93c-.37.39-.68.71-1.09,1.09h-.1c-.24,0-.39.12-.49-.58s-.14-1.25-.64-1.44a4.7,4.7,0,0,1-.57-.26c.06-.26-.11-.44-.2-.42a.38.38,0,0,0-.25.16l-.06,0,.06-.13c.09-.17.09-.49-.13-.54a.23.23,0,0,0-.23,0s0,.05-.07,0a.38.38,0,0,1,0-.21,1.26,1.26,0,0,0-.08-.46.25.25,0,0,0-.4-.14c-.11.1,0,.22-.14.33h0a2.43,2.43,0,0,1-.28-.48,7.16,7.16,0,0,1,0-4.29,24.09,24.09,0,0,1,1.21-3,5.79,5.79,0,0,0,.44-1.29l1.15-.3a12.71,12.71,0,0,1-.41,1.84c-.24.81-.68,2.06-.84,2.71a4.21,4.21,0,0,0,.32,3,3.93,3.93,0,0,0,1.8,1.39v-8.7l.29-.23v9l.56.14V19.77l.29-.23v9.22a5.09,5.09,0,0,0,.56,0v-9l.29-.23V28.8a5.1,5.1,0,0,0,.57,0v-9l.29-.23v9.17l.56-.14v-8.8l.29-.23v8.93a3.93,3.93,0,0,0,1.8-1.39,4.15,4.15,0,0,0,.31-3c-.15-.65-.59-1.9-.83-2.71a9.57,9.57,0,0,1-.37-1.55l1.07-.26a2.17,2.17,0,0,0,0,.25v0A5.16,5.16,0,0,0,34.52,21c0,.06,0,.13.08.18a25.73,25.73,0,0,1,1.21,3,7.16,7.16,0,0,1,0,4.29l-.09.2-.19.28h0c-.12-.11,0-.23-.15-.33a.25.25,0,0,0-.4.14,1.53,1.53,0,0,0-.08.46.38.38,0,0,1,0,.21c0,.09-.06,0-.06,0a.25.25,0,0,0-.24,0c-.22.05-.22.37-.13.54l.06.13-.06,0a.38.38,0,0,0-.25-.16c-.09,0-.26.16-.21.42M35.25,29a.15.15,0,0,1-.15.1s0-.11,0-.23.07,0,.07,0,.08.07.06.14m-.47.84c-.13.17-.16,0-.21-.15s.17,0,.17,0,.18,0,0,.19m-.65.5c0-.17.09-.17.15-.11s.09.13,0,.21-.15.08-.13-.1m.44.63c-.2,0-.3-.07-.3-.27s.17-.17.35-.14.18-.09.22.14-.08.27-.27.27m.78-.26c-.05.07-.16.1-.2,0s0-.14.19-.23.27-.1.24.08-.18,0-.23.12m.88-.77c-.15.21-.35.11-.56.17s-.41.24-.65.21-.23-.2-.07-.39.35,0,.46,0a1.32,1.32,0,0,0,.4-.11c.07,0,.06.08.12.05s0-.12,0-.16.08.06.15,0,0-.12.08-.13.19.08,0,.3m0-.75c.11,0,0-.23,0-.23s.17.11.2,0-.14-.19-.19-.29-.1-.23,0-.26.18.25.28.38a.37.37,0,0,1,.07.43c-.07.2-.54.07-.77.24s-.37.29-.62.17-.1-.43-.1-.43l.29-.06s.16.19.31.17.24-.25.31-.25.1.13.2.09m.82-5.55a1.48,1.48,0,0,1-.25.3,2.28,2.28,0,0,1-.65-.84,2.36,2.36,0,0,1-.23-1.05l.43-.34s.14.11.37.26l.35.2a2.71,2.71,0,0,0,.08.71c0,.13.11.29.12.32a2.53,2.53,0,0,1-.22.44m1.22,2.72s-.42-.08-.7-.77A4.75,4.75,0,0,1,37.25,24c.08-.15.21-.45.22-.48a2.08,2.08,0,0,0,.67.51,6.86,6.86,0,0,0,.38,1.21,3.11,3.11,0,0,1-.24,1.15m2.17,0a2.58,2.58,0,0,1-1.12-.88,5.41,5.41,0,0,1-.85-1.67,2.46,2.46,0,0,0,.17-.27,2.81,2.81,0,0,0,.16-.43,2.1,2.1,0,0,0,.9.5,6.26,6.26,0,0,0,.89,1.77c0,.84-.15,1-.15,1m2.06-.5a1.92,1.92,0,0,1-1.21-.61,5.15,5.15,0,0,1-1.15-1.69,4.11,4.11,0,0,0,.12-.5,2.89,2.89,0,0,0,0-.52,1.93,1.93,0,0,0,.7.14,6.67,6.67,0,0,0,1.42,2.05c0,.05.1.45.12.65a3.3,3.3,0,0,1,0,.48M44.23,25a3.27,3.27,0,0,1-1.3-.58,7.75,7.75,0,0,1-1.62-1.75.52.52,0,0,0,.15,0,2.85,2.85,0,0,0,0-.63,2.21,2.21,0,0,0-.13-.52l.19,0,.49.62a6.4,6.4,0,0,0,2,1.8,2.55,2.55,0,0,1,.16.62,2.32,2.32,0,0,1,0,.44m1.46-1.33a3.55,3.55,0,0,1-1.5-.4,11.25,11.25,0,0,1-2.38-1.74,3,3,0,0,0,.93-.09c.09.07.11.06.19.12a7.46,7.46,0,0,0,2.21,1,2.24,2.24,0,0,1,.55,1.07m.7-2.37a1.73,1.73,0,0,1,.5.63,3.56,3.56,0,0,1-2.56-.34,12.67,12.67,0,0,1-2.39-1.32,3.94,3.94,0,0,0,.74-.17,4,4,0,0,0,.72.32,6.76,6.76,0,0,0,2.35.44,3.36,3.36,0,0,1,.64.44m.23-1.94a4.36,4.36,0,0,1,.71.42c-.24.18-.65.41-2.2.34a6.21,6.21,0,0,1-1.79-.28,1.25,1.25,0,0,0,.38-.24,1,1,0,0,0-.31-.42,1.51,1.51,0,0,0-.66-.33,1.46,1.46,0,0,0,.24-.11A8,8,0,0,0,44,19a6.55,6.55,0,0,0,1.62.1,3.53,3.53,0,0,1,1,.3m-.74-1a7.07,7.07,0,0,1-2.34,0,1,1,0,0,0,.18-.16,1,1,0,0,0-.31-.34,1.68,1.68,0,0,0-.62-.3c.39,0,1,0,1.64,0a4.78,4.78,0,0,0,1.42-.22,6.55,6.55,0,0,1,1.17.07,4.27,4.27,0,0,1,.63.19,3.46,3.46,0,0,1-1.77.7m-6.66.3.77.06.17-.22-.2-.18-.76.1ZM22.5,11.33v-.14c0-.09,0-.19,0-.19a1,1,0,0,0-.3.42.92.92,0,0,0-.05.29s0-.09.25-.15a2.29,2.29,0,0,1,.54-.05l.06-.12a.61.61,0,0,0-.25-.07,1.11,1.11,0,0,0-.26,0m15.7.23c.24.06.26.15.26.15a.92.92,0,0,0-.05-.29,1,1,0,0,0-.3-.42s0,.1,0,.19a.94.94,0,0,1,0,.14,1,1,0,0,0-.25,0,.62.62,0,0,0-.26.07l.06.12a2.29,2.29,0,0,1,.54.05M31.51,4.67a5.19,5.19,0,0,1,.28.46L32,5l.13-.13a4.16,4.16,0,0,0-.27-.47,2.59,2.59,0,0,1-.32.3M31.87,4c.11-.12.19-.2.27-.3L32,3.53l-.15-.17a1,1,0,0,1-.14.15l-.15.15a3.48,3.48,0,0,1,.26.3l0,0M28.65,4l.26-.3a1,1,0,0,0-.15-.14l-.14-.15-.15.17a1.83,1.83,0,0,0-.13.16l.27.31,0,0M25.58,6.72a2.15,2.15,0,0,0-.18-.23l-.22.26a2,2,0,0,1,.17.23l.23-.26m3.39-2-.32-.3a5.28,5.28,0,0,0-.27.46l.13.14.18.16A4.06,4.06,0,0,1,29,4.69M35.5,6.8l-.22-.25a2.22,2.22,0,0,0-.18.22l.22.27c.07-.09.11-.16.18-.24M17.86,8.68a.94.94,0,0,1,.66,0,1.44,1.44,0,0,0,.59,0,.93.93,0,0,0-.4.45.59.59,0,0,0,.42.78c.39.07.53,0,.71.06a4.15,4.15,0,0,0,.42,0s-.17-.19-.29-.3-.34-.21-.27-.4.4-.41.67-.65a.7.7,0,0,0,.05-1l-.62-.85a.6.6,0,0,1,0-.69L20.59,6a1.75,1.75,0,0,0,.53-.17,6.48,6.48,0,0,1-.08.69,1.72,1.72,0,0,0,.1,1.33,2.52,2.52,0,0,0,1.33.72,6.41,6.41,0,0,0,.88.11h0c.27,0,.59,0,1.44,0s1.55-.08,2.06-.14A7.16,7.16,0,0,0,28,8.39a3.3,3.3,0,0,0,1.54-1,2.25,2.25,0,0,0,.77.15A2.5,2.5,0,0,0,31,7.41a4.32,4.32,0,0,0,1.19.87,6.74,6.74,0,0,0,1.52.35l.06,0a16.19,16.19,0,0,0,2,.13c.86,0,1.18,0,1.45,0h.05a6.64,6.64,0,0,0,.88-.12,2.57,2.57,0,0,0,1.33-.71,1.74,1.74,0,0,0,.09-1.34c0-.32-.07-.69-.07-.69a1.76,1.76,0,0,0,.53.18c.34.06.77.11.77.11a.59.59,0,0,1,0,.68c-.23.31-.39.55-.62.85a.71.71,0,0,0,.06,1c.26.23.61.49.66.64s-.13.3-.26.4-.29.3-.29.3.23,0,.42,0,.31,0,.71-.05a.6.6,0,0,0,.42-.78,1,1,0,0,0-.4-.46,1.24,1.24,0,0,0,.58,0,1,1,0,0,1,.66,0C43,8.82,43,9,43,9a1,1,0,0,0,.09-.59c0-.3-.43-.46-.83-.49s-.18-.3,0-.46.6-.47.49-1-.57-.67-1.18-.82-.67-.68-1-.93a.91.91,0,0,0-1.2,0,2.1,2.1,0,0,1-.68.19c-.2.06-.38.19-.6.58-.32.56.13,1.16.35,1.75s-.06,1.06-.78,1.21a2.32,2.32,0,0,1-.54,0l0-.18a3.2,3.2,0,0,1,.24-.62,5.33,5.33,0,0,0,.29-.77.72.72,0,0,0-.34-.67,3.56,3.56,0,0,0-.59-.2,1,1,0,0,1-.36-.18.46.46,0,0,0,.05-.2.41.41,0,0,0-.07-.22h.07v0L36.21,5l.4.08V4.67l-.43.1.1-.45h-.47l.12.49-.42-.13v.44L35.89,5l-.22.43v0h.07v0a.47.47,0,0,0-.06.2.41.41,0,0,0,0,.19.86.86,0,0,1-.36.18,4.53,4.53,0,0,0-.59.21.72.72,0,0,0-.34.67,1.66,1.66,0,0,0,.29.77,2.63,2.63,0,0,1,.24.62s0,.07,0,.14h-.22a3.66,3.66,0,0,1-1-.23h0A4,4,0,0,1,32.18,7,1,1,0,0,1,32,6.2a2.68,2.68,0,0,1,.1-.4,4.39,4.39,0,0,1,.32-.7A2.22,2.22,0,0,0,32.81,4a1.14,1.14,0,0,0-.5-1.06,4.61,4.61,0,0,0-.9-.3,2.06,2.06,0,0,1-.65-.32A.55.55,0,0,0,30.85,2a.59.59,0,0,0-.09-.32.11.11,0,0,0,0,0h.07V1.57L30.42,1l.57.07,0-.58-.52.12.17-.56H29.9L30,.64,29.47.52v.63l.6-.11-.43.54v0h.05a.65.65,0,0,0-.1.36.58.58,0,0,0,.09.35,1.61,1.61,0,0,1-.62.28,3.47,3.47,0,0,0-.95.29A1.12,1.12,0,0,0,27.65,4a3.66,3.66,0,0,0,.57,1.39,2.64,2.64,0,0,1,.26.78,1.53,1.53,0,0,1,0,.37.86.86,0,0,1-.2.47,3.7,3.7,0,0,1-1.45,1.1,2.63,2.63,0,0,1-1,.29l-.23,0c0-.07,0-.1,0-.15a2.3,2.3,0,0,1,.23-.61,1.75,1.75,0,0,0,.3-.78.74.74,0,0,0-.35-.67,3.25,3.25,0,0,0-.59-.2.83.83,0,0,1-.36-.19.35.35,0,0,0,.05-.18.46.46,0,0,0-.05-.2l0,0h.07v0L24.73,5l.38.12V4.63l-.41.12.11-.48h-.47l.1.44L24,4.63v.45L24.41,5l-.26.4v0h.06a.41.41,0,0,0-.07.22.33.33,0,0,0,.06.19.94.94,0,0,1-.36.18c-.27.09-.47.14-.59.2a.76.76,0,0,0-.35.68,1.82,1.82,0,0,0,.29.77,2.21,2.21,0,0,1,.24.61c0,.07,0,.13,0,.19a2.71,2.71,0,0,1-.55-.06c-.71-.15-1-.61-.77-1.2s.66-1.2.35-1.76c-.22-.38-.4-.51-.61-.57s-.49,0-.67-.19a.9.9,0,0,0-1.21,0c-.31.24-.37.77-1,.92s-1.07.32-1.18.82a1.11,1.11,0,0,0,.49,1c.17.15.39.42,0,.45s-.79.2-.84.5a1.09,1.09,0,0,0,.09.58s0-.15.27-.24M39,5.18A1.43,1.43,0,0,0,39.61,5c.25-.12.43-.29.71-.18s.38.33.56.57a1.48,1.48,0,0,0,.56.48,6.2,6.2,0,0,1,.8.24c.33.18.41.54.13,1s-.59.57-.54.77a.59.59,0,0,0,.54.35c.59.08.6.42.6.42a.69.69,0,0,0-.68-.12,1.59,1.59,0,0,1-.65.07,1,1,0,0,1-.32-.15s-.15.2-.06.31.2.19.31.33.31.39-.09.61a.84.84,0,0,1-.49.09.37.37,0,0,0,.26-.44c-.06-.24-.4-.46-.62-.62a.54.54,0,0,1-.12-.83c.17-.29.49-.62.71-1s0-.51,0-.51.77-.15.69.47c0,.23,0,.46.14.29s.28-.55,0-.76A1.63,1.63,0,0,0,41.26,6a5.2,5.2,0,0,1-1.44-.28c-.47-.21-.38-.19-.62-.28a.68.68,0,0,0-.72.1A.83.83,0,0,1,39,5.18m-.52,1.26c-.14-.33.1-.58.4-.65a.42.42,0,0,1,.31.06,1.4,1.4,0,0,0,0,.25c0,.08.06.42.14.77A1.12,1.12,0,0,1,39,8.08a1.25,1.25,0,0,1-.42.24,1.17,1.17,0,0,0,.3-1.07c-.09-.28-.16-.45-.31-.81M37,8.4a.82.82,0,0,0,0,.1,5.22,5.22,0,0,0-.87-.09,3.52,3.52,0,0,0-.9.08V8.42s0-.11,0-.11a3.3,3.3,0,0,1,.89-.15,2.52,2.52,0,0,1,.91.17.32.32,0,0,1,0,.07m-1.59-.67a.53.53,0,0,1,.32,0A.73.73,0,0,1,36,8a.65.65,0,0,1-.33,0,.89.89,0,0,1-.23-.27m.71.22a.57.57,0,0,1,0-.69.64.64,0,0,1,.11.36.92.92,0,0,1-.12.33m.41-.18a.35.35,0,0,1,.28,0,.53.53,0,0,1-.18.21,1.27,1.27,0,0,1-.41.06,1.27,1.27,0,0,1,.31-.29m0-1.56,0,0s0,.14,0,.34l0,0,.23-.22-.13-.14.16,0,.17,0s.07,0,.25.28l.09-.12a.33.33,0,0,1,.11.11c.05.07,0,.09,0,.09a.56.56,0,0,0-.1.15,2,2,0,0,0,.13.25s0,.06-.06.15a.27.27,0,0,1-.07.1s-.07-.18-.15-.34c-.06.07-.15.21-.2.26a1.27,1.27,0,0,1,.17.41.45.45,0,0,0-.06.1,1.07,1.07,0,0,0-.09.19,1.67,1.67,0,0,0-.2-.55l-.22.17-.19-.16a3.16,3.16,0,0,0,.27-.23c-.1-.15-.19-.26-.23-.32-.06.33-.11.52-.11.52l-.2-.11s0-.2.08-.56,0-.62,0-.62Zm-.43-.71a.2.2,0,1,1,0,.4.2.2,0,1,1,0-.4M35,7c-.08.16-.15.34-.15.34a.27.27,0,0,1-.07-.1c0-.09-.06-.15-.06-.15a2.54,2.54,0,0,0,.14-.25l-.11-.15s0,0,0-.09a.43.43,0,0,1,.12-.11L35,6.6c.18-.24.24-.28.25-.28l.17,0,.16,0-.13.14.23.22,0,0c0-.2,0-.35,0-.35h0l.23-.1s0,.3.05.62a4.16,4.16,0,0,1,0,.52l-.17.11s0-.18-.1-.51c0,.06-.13.17-.23.32a3.16,3.16,0,0,0,.27.23l-.2.16-.21-.17a1.67,1.67,0,0,0-.2.55,1.07,1.07,0,0,0-.09-.19.45.45,0,0,0-.06-.1,1.27,1.27,0,0,1,.17-.41S35,7.06,35,7m-4.75.21a1.37,1.37,0,0,1-.58-.11l.24-.29a.52.52,0,0,0,.35.18.42.42,0,0,0,.31-.2l.23.3a1.43,1.43,0,0,1-.55.12m.05-.83a8.65,8.65,0,0,0-1.48.15s0-.1,0-.17a.35.35,0,0,0,0-.12A4.51,4.51,0,0,1,30.31,6a5.26,5.26,0,0,1,1.47.26v.3a5.09,5.09,0,0,0-1.5-.14m0-2.59A.21.21,0,0,1,30,3.57a.2.2,0,0,1,.21-.2.21.21,0,1,1,0,.41m.14.35a.14.14,0,0,1-.14.14.15.15,0,0,1-.15-.14A.15.15,0,0,1,30.25,4a.15.15,0,0,1,.14.15m-.13.33a1.09,1.09,0,0,1,.2.56,1.08,1.08,0,0,1-.18.58,1.5,1.5,0,0,1-.2-.55,1,1,0,0,1,.18-.59m0-1.26a.31.31,0,0,1,0-.62.31.31,0,1,1,0,.62M29,5.26a1.76,1.76,0,0,1,.62.06,1.33,1.33,0,0,1,.41.43,1.65,1.65,0,0,1-.65-.06A1.26,1.26,0,0,1,29,5.26m1.48.51a1.39,1.39,0,0,1,.45-.46,1.85,1.85,0,0,1,.54-.12,1.36,1.36,0,0,1-.38.45,2,2,0,0,1-.61.13m1.7,1.73a5.81,5.81,0,0,0,1.27.81,5.4,5.4,0,0,1-1.55-.63A2.87,2.87,0,0,1,31,6.8l.59,0a2.4,2.4,0,0,0,.58.67m-1-3.71a.64.64,0,0,1,.09-.11.3.3,0,0,1-.06-.09l0-.33a2.31,2.31,0,0,0,.21.25s0,0,0,0a3.15,3.15,0,0,0,.25-.28,5.36,5.36,0,0,0-.41-.39l.18,0,.26.07s0,0,.13.1,0,0,0,0l.21.09s0,0-.08.12l.18.22.09.11a1.1,1.1,0,0,0,.13-.18l.09.25a.94.94,0,0,1-.09.13c.11.23.16.37.16.37l-.09.28a2.37,2.37,0,0,0-.24-.46L32,4.2c.12.17.22.34.28.44l.18-.19-.17.31h0L32.15,5l-.1.1-.17.17a1,1,0,0,1,.07.15l-.11.36a6.09,6.09,0,0,0-.43-.88A4.71,4.71,0,0,0,31,4.39l.06-.27a2.27,2.27,0,0,1,.32.38c.07-.06.19-.19.31-.32h0l-.3-.34a3.76,3.76,0,0,1-.3.27Zm-.36-1.21.24.14h.05s0,.45-.13,1-.19.94-.19.94l-.2-.11s.05-.31.12-.9.11-1.06.11-1.06m-.56-1a.4.4,0,0,1,0,.79.4.4,0,1,1,0-.79m-.7,1.14.24-.14s0,.53.11,1.06.11.9.11.9l-.2.11s-.08-.35-.19-.94-.13-1-.13-1ZM28.43,5.16l-.1-.11-.15-.27h0L28,4.47l.17.19c.06-.1.16-.28.28-.45l-.27-.3a2.65,2.65,0,0,0-.23.46l-.09-.28s.05-.14.16-.37A.94.94,0,0,1,28,3.59l.09-.25a2.07,2.07,0,0,0,.13.19,1.06,1.06,0,0,1,.1-.12,2,2,0,0,1,.18-.21c-.09-.11-.09-.13-.09-.13L28.58,3l0,0c.1-.1.13-.1.13-.1L29,2.86l.19,0a5.54,5.54,0,0,0-.42.4L29,3.5s0,0,0,0a3.18,3.18,0,0,0,.21-.26l0,.34-.06.09a.26.26,0,0,1,.09.1l.06.32-.3-.27a4.13,4.13,0,0,0-.3.34h0l.31.31a1.82,1.82,0,0,1,.32-.37l.06.26a4.41,4.41,0,0,0-.41.56,5.67,5.67,0,0,0-.43.87l-.11-.35.07-.16-.17-.16M28.3,7.5a2.4,2.4,0,0,0,.58-.67l.59,0a2.87,2.87,0,0,1-.89.88A5.4,5.4,0,0,1,27,8.31,5.81,5.81,0,0,0,28.3,7.5m-2.84.86v.08a3.21,3.21,0,0,0-.9-.09,5,5,0,0,0-.87.09.82.82,0,0,0,0-.1.32.32,0,0,1,0-.07,2.52,2.52,0,0,1,.91-.17,3.3,3.3,0,0,1,.89.15s0,.08,0,.11m-1-.36a1.27,1.27,0,0,1-.41-.06.47.47,0,0,1-.18-.21.41.41,0,0,1,.28,0,1.27,1.27,0,0,1,.31.29m0-.44a.67.67,0,0,1,.11-.36.57.57,0,0,1,0,.69.92.92,0,0,1-.12-.33m.27.41s.11-.24.25-.3a.59.59,0,0,1,.31,0s-.12.22-.23.27a.7.7,0,0,1-.33,0M25,6.16h0s0,.14,0,.35l0,0,.23-.21-.13-.14.16,0,.17,0a1.58,1.58,0,0,1,.25.29l.09-.13a.51.51,0,0,1,.11.11c.05.07,0,.1,0,.1a.85.85,0,0,0-.1.14A2,2,0,0,0,26,7s0,.06-.06.15a.27.27,0,0,1-.07.11s-.07-.19-.15-.35c-.06.07-.15.21-.2.26a1.38,1.38,0,0,1,.17.41.45.45,0,0,0-.06.1,1.07,1.07,0,0,0-.09.19,1.76,1.76,0,0,0-.2-.55l-.21.17-.2-.16a3.16,3.16,0,0,0,.27-.23A2.44,2.44,0,0,0,25,6.81c-.05.32-.1.51-.1.51l-.18-.12s0-.16.06-.52.05-.62.05-.62Zm-.46-.72a.2.2,0,1,1-.2.2.2.2,0,0,1,.2-.2M23.44,7.6a1.38,1.38,0,0,1,.17-.41c-.05-.05-.14-.19-.2-.26l-.15.35a.27.27,0,0,1-.07-.11c0-.09-.06-.15-.06-.15a2,2,0,0,0,.13-.25.5.5,0,0,0-.1-.14s0,0,0-.1a.51.51,0,0,1,.11-.11l.09.13a1.58,1.58,0,0,1,.25-.29l.17,0,.16,0-.13.14.23.21,0,0c0-.2,0-.34,0-.34l0,0L24.36,6a5.78,5.78,0,0,0,0,.63c0,.35.07.56.07.56l-.2.1s-.05-.19-.11-.52l-.23.32a3.16,3.16,0,0,0,.27.23l-.2.16-.21-.17a1.76,1.76,0,0,0-.2.55,1.07,1.07,0,0,0-.09-.19.45.45,0,0,0-.06-.1M22.16,6.38c-.15.36-.22.53-.31.81A1.07,1.07,0,0,0,22,8a1,1,0,0,0,.2.28A1.25,1.25,0,0,1,21.73,8a1.09,1.09,0,0,1-.43-1.2c.07-.36.12-.69.13-.77a1.46,1.46,0,0,0,0-.25.41.41,0,0,1,.32-.07.48.48,0,0,1,.39.65M18.32,8.1a.59.59,0,0,0,.53-.35c0-.19-.25-.34-.53-.77s-.21-.78.13-1a5.67,5.67,0,0,1,.79-.24,1.48,1.48,0,0,0,.56-.48c.19-.24.33-.48.56-.57s.47.06.71.18a1.41,1.41,0,0,0,.58.21.83.83,0,0,1,.55.38.68.68,0,0,0-.72-.1c-.24.1-.15.07-.62.29A5.55,5.55,0,0,1,19.42,6a1.59,1.59,0,0,0-.86.3c-.25.2-.1.59,0,.75s.17,0,.14-.29c-.09-.61.68-.46.68-.46s-.16.15,0,.5.54.72.72,1a.56.56,0,0,1-.13.84c-.22.15-.56.37-.62.61a.38.38,0,0,0,.26.44.88.88,0,0,1-.5-.09c-.39-.22-.2-.46-.08-.61s.22-.21.31-.32-.06-.32-.06-.32a.9.9,0,0,1-.32.15,1.44,1.44,0,0,1-.65-.07.69.69,0,0,0-.68.12s0-.34.61-.42m5.61-1.35-.22-.26a2.15,2.15,0,0,0-.18.23l.23.26a2,2,0,0,1,.17-.23m13.22,0A2.22,2.22,0,0,0,37,6.55l-.22.25a2.07,2.07,0,0,1,.17.24c.06-.06.16-.19.23-.27" transform="translate(0 -0.09)"/></g></g></g></g></g></svg>