<svg xmlns="http://www.w3.org/2000/svg" viewBox="0 0 56 56"><defs><style>.cls-1{fill:#d4f3fd;}.cls-2,.cls-3{fill:#46b2e8;}.cls-2{opacity:0.3;}</style></defs><title>money</title><g id="Слой_2" data-name="Слой 2"><g id="_1280" data-name="1280"><g id="Strategy"><g id="body"><rect class="cls-1" width="56" height="56" rx="28"/><path class="cls-2" d="M24.49,42.15a22.44,22.44,0,0,0,6.71-.82,4.07,4.07,0,0,1-.06-.61,3.29,3.29,0,0,1,1-2.37,3.31,3.31,0,0,1,0-4.76,3.3,3.3,0,0,1,0-4.75,3.3,3.3,0,0,1,.36-5.05,12.54,12.54,0,0,0-1.8-1.39,1.87,1.87,0,0,0,.43-1.17,1.9,1.9,0,0,0-1.9-1.9H19.73a1.9,1.9,0,0,0-1.9,1.9,1.88,1.88,0,0,0,.43,1.16,13.62,13.62,0,0,0-6.2,11.2C12.06,41.26,19.18,42.15,24.49,42.15Zm0-9.23a2.84,2.84,0,0,1-.94-5.53V26a.95.95,0,1,1,1.9,0v1.4a2.85,2.85,0,0,1,1.89,2.68.95.95,0,1,1-1.9,0,.95.95,0,1,0-.95.95,2.84,2.84,0,0,1,1,5.52v.86a.95.95,0,1,1-1.9,0v-.85a2.85,2.85,0,0,1-1.91-2.68,1,1,0,0,1,1.9,0,1,1,0,1,0,1.9,0A1,1,0,0,0,24.48,32.92Z"/><path class="cls-3" d="M43.09,39.3H34.47a1.43,1.43,0,1,0,0,2.85h8.62a1.43,1.43,0,1,0,0-2.85Z"/><path class="cls-3" d="M43.09,34.54H34.47a1.43,1.43,0,0,0,0,2.86h8.62a1.43,1.43,0,0,0,0-2.86Z"/><path class="cls-3" d="M43.09,29.79H34.47a1.43,1.43,0,1,0,0,2.85h8.62a1.43,1.43,0,1,0,0-2.85Z"/><path class="cls-3" d="M43.09,25H34.47a1.43,1.43,0,1,0,0,2.85h8.62a1.43,1.43,0,1,0,0-2.85Z"/><path class="cls-2" d="M27.16,11.6a2.84,2.84,0,0,0-5.36,0h-3A1,1,0,0,0,18,12a.94.94,0,0,0-.13.86l1.49,4.58H29.61l1.48-4.58A.94.94,0,0,0,31,12a1,1,0,0,0-.77-.39Z"/></g></g></g></g></svg>