<svg xmlns="http://www.w3.org/2000/svg" viewBox="0 0 56 56"><defs><style>.cls-1{fill:#d4f3fd;}.cls-2{fill:#46b2e8;}.cls-3{opacity:0.3;}</style></defs><title>people</title><g id="Слой_2" data-name="Слой 2"><g id="_1280" data-name="1280"><g id="Strategy"><g id="body"><rect class="cls-1" width="56" height="56" rx="28"/><circle class="cls-2" cx="27.89" cy="16.4" r="3.92"/><path class="cls-2" d="M33.76,31,32.87,24a2,2,0,0,0-1.95-1.76H29.85a1,1,0,0,0-.69.28l-1.27,1.27-1.27-1.27a1,1,0,0,0-.69-.28H24.86A1.94,1.94,0,0,0,22.91,24L22,31a1,1,0,0,0,1,1.1h1.06l.82,10a2,2,0,0,0,1.95,1.76H29A2,2,0,0,0,30.91,42l.82-10h1.06a1,1,0,0,0,.73-.34A1,1,0,0,0,33.76,31Z"/><g class="cls-3"><circle class="cls-2" cx="37.68" cy="16.4" r="3.92"/></g><g class="cls-3"><path class="cls-2" d="M18.1,12.48A3.92,3.92,0,1,0,22,16.4,3.93,3.93,0,0,0,18.1,12.48Z"/></g><g class="cls-3"><path class="cls-2" d="M43.55,31,42.66,24a2,2,0,0,0-1.95-1.76H39.64a1,1,0,0,0-.69.28l-1.27,1.27-1.26-1.27a1,1,0,0,0-.69-.28H34.65a1.86,1.86,0,0,0-.34.06,3.9,3.9,0,0,1,.51,1.47l.88,6.9a2.82,2.82,0,0,1-1.69,3l.65,6.37a2,2,0,0,0,2,1.76h2.15a2,2,0,0,0,2-1.78l.81-8h1.06a1,1,0,0,0,1-1.11Z"/></g><g class="cls-3"><path class="cls-2" d="M20.79,33a2.92,2.92,0,0,1-.71-2.31l.89-7a3.48,3.48,0,0,1,.49-1.42,1.75,1.75,0,0,0-.33-.06H20.06a1,1,0,0,0-.7.28L18.1,23.83l-1.27-1.27a1,1,0,0,0-.69-.28H15.07a1.94,1.94,0,0,0-2,1.73l-.89,7a.93.93,0,0,0,.24.76.94.94,0,0,0,.73.34h1.06l.82,8a2,2,0,0,0,2,1.76h2.14a2,2,0,0,0,1.95-1.78l.65-6.36A2.91,2.91,0,0,1,20.79,33Z"/></g></g></g></g></g></svg>