<svg xmlns="http://www.w3.org/2000/svg" viewBox="0 0 38.83 52.27"><defs><style>.cls-1{fill:#afafaf;}</style></defs><title>rosmol</title><g id="Слой_2" data-name="Слой 2"><g id="_1280" data-name="1280"><g id="Index"><g id="body"><path class="cls-1" d="M20.24,14.3l0,.58a3.67,3.67,0,0,1-1.43,2.66,5.67,5.67,0,0,1-3.51.87H12.49v3.66c0,1.91,1.91,3.66,3.52,4.8a22.52,22.52,0,0,0,3.44,2,20.86,20.86,0,0,0,4.85-3.1,5.42,5.42,0,0,0,2.1-3.39V11.73H24a5,5,0,0,0-2.88.56A2.44,2.44,0,0,0,20.24,14.3Z"/><path class="cls-1" d="M19.42,0A19.42,19.42,0,1,0,38.83,19.42,19.44,19.44,0,0,0,19.42,0ZM28,22.23a6.59,6.59,0,0,1-.08,1C27,27.4,20,30.42,19.68,30.55l-.24.1-.23-.11c-.33-.14-8-3.61-8.28-8.18V10.25h4.35a5.73,5.73,0,0,1,3.51.86,3.69,3.69,0,0,1,.66.65,3.23,3.23,0,0,1,.67-.66,5.67,5.67,0,0,1,3.51-.87H28Z"/><rect class="cls-1" x="5.23" y="50.65" width="28.64" height="1.62"/><path class="cls-1" d="M5.24,48.39V45.55H6.48a1.05,1.05,0,0,1,.73.24.78.78,0,0,1,.27.62.8.8,0,0,1-.27.62,1.05,1.05,0,0,1-.73.24H5.83v1.12Zm.59-1.62h.61c.28,0,.45-.13.45-.35s-.17-.36-.45-.36H5.83Z"/><path class="cls-1" d="M8,46.62a1.2,1.2,0,0,1,1.61,0,1.06,1.06,0,0,1,0,1.52,1.2,1.2,0,0,1-1.61,0,1.06,1.06,0,0,1,0-1.52ZM8.8,48a.54.54,0,0,0,.4-.17.58.58,0,0,0,.16-.4A.56.56,0,0,0,9.2,47a.54.54,0,0,0-.4-.17.55.55,0,0,0-.56.57.57.57,0,0,0,.15.4A.55.55,0,0,0,8.8,48Z"/><path class="cls-1" d="M10.64,48.15a1,1,0,0,1-.33-.78,1,1,0,0,1,.33-.76,1.12,1.12,0,0,1,.78-.3,1.33,1.33,0,0,1,.6.14v.48a1.22,1.22,0,0,0-.51-.12.73.73,0,0,0-.46.16.57.57,0,0,0,0,.82.69.69,0,0,0,.45.16,1.06,1.06,0,0,0,.54-.14v.49a1.34,1.34,0,0,1-.64.15A1.08,1.08,0,0,1,10.64,48.15Z"/><path class="cls-1" d="M12.64,48.39v-2h.57l.59.75.59-.75H15v2h-.54V47.14l-.5.63h-.23l-.5-.63v1.25Z"/><path class="cls-1" d="M15.78,46.62a1.13,1.13,0,0,1,.81-.31,1.15,1.15,0,0,1,.81.31,1.09,1.09,0,0,1,0,1.52,1.15,1.15,0,0,1-.81.31,1.13,1.13,0,0,1-.81-.31,1.06,1.06,0,0,1,0-1.52ZM16.59,48a.54.54,0,0,0,.4-.17.54.54,0,0,0,.16-.4A.52.52,0,0,0,17,47a.54.54,0,0,0-.4-.17.53.53,0,0,0-.4.17.52.52,0,0,0-.16.4.54.54,0,0,0,.16.4A.53.53,0,0,0,16.59,48Z"/><path class="cls-1" d="M19,46.85v.28a2.65,2.65,0,0,1-.09.71.69.69,0,0,1-.7.57.39.39,0,0,1-.21,0v-.46h.12c.13,0,.21-.08.26-.26a2.58,2.58,0,0,0,.06-.7l0-.59h1.75v2h-.58V46.85Z"/><path class="cls-1" d="M21,46.62a1.21,1.21,0,0,1,1.62,0,1.06,1.06,0,0,1,0,1.52,1.21,1.21,0,0,1-1.62,0,1.09,1.09,0,0,1,0-1.52ZM21.84,48a.53.53,0,0,0,.4-.17.54.54,0,0,0,.16-.4.52.52,0,0,0-.16-.4.56.56,0,0,0-.8,0,.52.52,0,0,0-.16.4.54.54,0,0,0,.16.4A.53.53,0,0,0,21.84,48Z"/><path class="cls-1" d="M23.24,48.91v-1h.26a2.2,2.2,0,0,0,.25-1.15v-.39h1.71v1.54h.33v1h-.54v-.52H23.79v.52Zm1.66-1V46.85h-.63a2.93,2.93,0,0,1-.18,1.06Z"/><path class="cls-1" d="M26.48,48.15a1,1,0,0,1-.32-.77,1,1,0,0,1,.29-.76,1,1,0,0,1,.76-.31.85.85,0,0,1,.7.32,1.1,1.1,0,0,1,.27.76v.15H26.72c.06.27.32.42.68.42a1.28,1.28,0,0,0,.65-.18v.46a1.24,1.24,0,0,1-.77.21A1.14,1.14,0,0,1,26.48,48.15Zm-.05-2.37a.31.31,0,0,1,.3-.3.3.3,0,1,1,0,.6A.3.3,0,0,1,26.43,45.78Zm1.18,1.39a.41.41,0,0,0-.42-.41.45.45,0,0,0-.47.41ZM27.41,46a.3.3,0,1,1,.43,0A.32.32,0,0,1,27.41,46Z"/><path class="cls-1" d="M28.39,48.39l.87-1.08-.78-.94h.64l.62.76v-.76h.57v.76l.61-.76h.65l-.79.94.88,1.08H31l-.67-.86v.86h-.57v-.86l-.67.86Z"/><path class="cls-1" d="M32.09,48.39v-2h.58V47h.48c.51,0,.84.28.84.71a.7.7,0,0,1-.21.52.85.85,0,0,1-.6.2Zm.58-.44h.4c.22,0,.35-.1.35-.28s-.13-.28-.35-.28h-.4Z"/></g></g></g></g></svg>