<svg xmlns="http://www.w3.org/2000/svg" viewBox="0 0 56 56"><defs><style>.cls-1{fill:#d4f3fd;}.cls-2,.cls-3{fill:#46b2e8;}.cls-2{opacity:0.3;}</style></defs><title>support</title><g id="Слой_2" data-name="Слой 2"><g id="_1280" data-name="1280"><g id="Index"><g id="body"><rect class="cls-1" width="56" height="56" rx="28"/><path class="cls-2" d="M34.13,28.85v-2l-1.51,2Z"/><path class="cls-2" d="M29.62,16.21a11.56,11.56,0,0,0-3.17.44v5.46H22a30.39,30.39,0,0,0,0,11.51h4.5v5.47a11.55,11.55,0,0,0,3.17.43,11.66,11.66,0,1,0,0-23.31Zm.57,14.35H24.66a5.12,5.12,0,0,1,.08-.93,2.23,2.23,0,0,1,.27-.75,2.15,2.15,0,0,1,.51-.63,4.72,4.72,0,0,1,.81-.57l.87-.47a6.32,6.32,0,0,0,.55-.34,1.16,1.16,0,0,0,.3-.26.4.4,0,0,0,.08-.27.63.63,0,0,0-.22-.5,1,1,0,0,0-.63-.19,1.45,1.45,0,0,0-.81.23,3.33,3.33,0,0,0-.67.6l-1.13-1.31a1.94,1.94,0,0,1,.48-.39,3.92,3.92,0,0,1,.68-.34,4.65,4.65,0,0,1,.82-.24,4.83,4.83,0,0,1,.94-.09,2.9,2.9,0,0,1,1.84.52A1.75,1.75,0,0,1,30.07,26a1.73,1.73,0,0,1-.12.66,1.88,1.88,0,0,1-.31.51,2,2,0,0,1-.42.4,4.87,4.87,0,0,1-.47.32l-.4.23-.46.27-.43.28a2,2,0,0,0-.29.25h3Zm6.48-.11h-1V32H33.92V30.45H30.86V28.86l3.62-4.64h1.21v4.63h1Z"/><path class="cls-3" d="M20.56,20.35h4.13V12.87H20.82c-1.49.07-3,1.61-4.15,4.22a27.53,27.53,0,0,0-2,10.78,27.42,27.42,0,0,0,2,10.86c1.17,2.63,2.71,4.13,4.22,4.13h3.76V35.38H20.54l-.16-.68a30.9,30.9,0,0,1-.73-6.78A30.57,30.57,0,0,1,20.4,21Z"/></g></g></g></g></svg>