<svg xmlns="http://www.w3.org/2000/svg" viewBox="0 0 56 56"><defs><style>.cls-1{fill:#d4f3fd;}.cls-2,.cls-3{fill:#46b2e8;}.cls-3{opacity:0.3;}</style></defs><title>wallet</title><g id="Слой_2" data-name="Слой 2"><g id="_1280" data-name="1280"><g id="Index"><g id="body"><rect class="cls-1" width="56" height="56" rx="28"/><path class="cls-2" d="M20.61,18.65l11.8-3.22-.62-1.26a1.68,1.68,0,0,0-2.23-.76L19,18.65Z"/><path class="cls-2" d="M36.08,15.52a1.67,1.67,0,0,0-.44.06l-2.77.76L24.4,18.65H38.2l-.52-1.9A1.66,1.66,0,0,0,36.08,15.52Z"/><path class="cls-3" d="M39.93,19.82H15.36a1.65,1.65,0,0,0-1.3.62,1.72,1.72,0,0,0-.31.6,2.12,2.12,0,0,0-.06.44V40a1.66,1.66,0,0,0,1.66,1.66H39.93A1.66,1.66,0,0,0,41.59,40V35.36H31.73a2.83,2.83,0,0,1-2.83-2.82v-3.7a2.83,2.83,0,0,1,.8-2A2.78,2.78,0,0,1,31.39,26a1.83,1.83,0,0,1,.33,0h9.87V21.48A1.66,1.66,0,0,0,39.93,19.82Z"/><path class="cls-2" d="M42.76,27.61a1.64,1.64,0,0,0-.58-.35,1.61,1.61,0,0,0-.54-.09H31.73a1.66,1.66,0,0,0-1.67,1.66v3.7a1.67,1.67,0,0,0,1.67,1.67h9.91a1.91,1.91,0,0,0,.54-.09,1.8,1.8,0,0,0,.58-.35,1.66,1.66,0,0,0,.54-1.23v-3.7A1.65,1.65,0,0,0,42.76,27.61ZM35.2,31a.83.83,0,0,1-.83.83h-.56A.83.83,0,0,1,33,31v-.55a.84.84,0,0,1,.32-.65.85.85,0,0,1,.51-.18h.56a.83.83,0,0,1,.83.83V31Z"/></g></g></g></g></svg>