<svg xmlns="http://www.w3.org/2000/svg" viewBox="0 0 56 56"><defs><style>.cls-1{fill:#d4f3fd;}.cls-2{fill:#46b2e8;}.cls-3{opacity:0.3;}</style></defs><title>web</title><g id="Слой_2" data-name="Слой 2"><g id="_1280" data-name="1280"><g id="Strategy"><g id="body"><rect class="cls-1" width="56" height="56" rx="28"/><path class="cls-2" d="M42.22,15.47H13.78a.88.88,0,0,0-.88.89v2.36H43.1V16.36A.88.88,0,0,0,42.22,15.47Z"/><g class="cls-3"><path class="cls-2" d="M12.9,20.49V37.6a.88.88,0,0,0,.88.89H27.12L26.54,37a2.36,2.36,0,0,1,2.2-3.2,2.45,2.45,0,0,1,.85.15l7.34,2.81a2.36,2.36,0,0,1,1.46,1.71v0h3.82a.88.88,0,0,0,.88-.89V20.49Zm4.42,2.18H28a.89.89,0,0,1,0,1.77H17.32a.89.89,0,0,1,0-1.77Zm0,3.54H28A.89.89,0,0,1,28,28H17.32a.89.89,0,0,1,0-1.77Zm5.34,8.85H17.32a.89.89,0,0,1,0-1.77h5.34a.89.89,0,1,1,0,1.77Zm16-3.54H17.32a.89.89,0,0,1,0-1.77H38.68a.89.89,0,0,1,0,1.77Zm.88-4.36a.88.88,0,0,1-.88.88H31.82a.89.89,0,0,1-.89-.88V23.24a.88.88,0,0,1,.89-.88h6.86a.87.87,0,0,1,.88.88v3.92Z"/></g><path class="cls-2" d="M38.11,43l-2.62-2.62,1-1a.6.6,0,0,0-.2-1L29,35.59a.59.59,0,0,0-.77.76L31,43.69a.59.59,0,0,0,1,.21l1-1,2.63,2.63a.59.59,0,0,0,.83,0l1.67-1.67A.6.6,0,0,0,38.11,43Z"/></g></g></g></g></svg>